{"glyphs":{"0":{"ha":849,"x_min":79,"x_max":769,"o":"m 769 407 q 744 238 769 315 q 672 105 718 161 q 562 17 625 49 q 424 -14 499 -14 q 285 17 349 -14 q 176 105 222 49 q 105 238 131 161 q 79 407 79 315 q 105 576 79 499 q 176 709 131 653 q 285 797 222 765 q 424 829 349 829 q 562 797 499 829 q 672 709 625 765 q 744 576 718 653 q 769 407 769 499 m 699 407 q 678 552 699 486 q 622 665 658 618 q 535 738 586 711 q 424 764 485 764 q 312 738 363 764 q 225 665 261 711 q 169 552 189 618 q 149 407 149 486 q 169 263 149 328 q 225 150 189 197 q 312 77 261 103 q 424 51 363 51 q 535 77 485 51 q 622 150 586 103 q 678 263 658 197 q 699 407 699 328 z "},"1":{"ha":567,"x_min":63,"x_max":538,"o":"m 538 64 l 538 0 l 94 0 l 94 64 l 292 64 l 292 706 q 253 669 279 689 q 193 633 226 650 q 125 603 160 615 q 63 592 90 592 l 63 661 q 136 680 97 661 q 209 722 175 699 q 266 767 243 746 q 292 793 289 789 l 361 793 l 361 64 l 538 64 z "},"2":{"ha":706,"x_min":63,"x_max":639,"o":"m 63 0 q 69 87 63 39 q 101 184 76 135 q 172 280 125 233 q 296 364 218 326 q 379 403 335 383 q 461 448 424 422 q 524 507 499 474 q 549 588 549 540 q 536 643 549 615 q 499 693 524 671 q 438 729 475 715 q 350 743 400 743 q 263 729 301 743 q 197 696 225 715 q 149 657 168 676 q 122 626 131 638 l 75 675 q 102 702 81 681 q 160 747 124 724 q 247 788 196 769 q 360 807 297 807 q 472 790 422 807 q 555 742 521 772 q 606 673 589 713 q 624 590 624 633 q 596 492 624 533 q 528 419 568 450 q 444 367 488 388 q 368 332 400 346 q 202 223 260 286 q 142 64 144 160 l 639 64 l 639 0 l 63 0 z "},"3":{"ha":735,"x_min":57,"x_max":667,"o":"m 458 328 q 610 243 553 313 q 667 72 667 174 q 644 -41 667 10 q 580 -128 621 -92 q 482 -184 539 -164 q 356 -204 425 -204 q 172 -160 251 -204 q 57 -37 93 -115 l 108 4 q 200 -101 136 -62 q 357 -140 264 -140 q 531 -83 467 -140 q 594 75 594 -26 q 528 236 594 176 q 342 296 463 296 l 308 296 l 308 357 l 344 357 q 517 408 457 357 q 576 543 576 458 q 560 624 576 589 q 514 685 543 660 q 444 723 485 710 q 357 736 404 736 q 211 698 274 736 q 119 594 149 660 l 72 633 q 117 701 89 671 q 184 754 146 732 q 267 788 222 776 q 363 800 313 800 q 477 782 425 800 q 567 731 529 764 q 627 651 606 697 q 649 550 649 606 q 635 469 649 507 q 597 403 622 432 q 537 353 572 374 q 458 328 501 333 z "},"4":{"ha":744,"x_min":29,"x_max":701,"o":"m 510 -176 l 510 82 l 29 82 l 29 143 l 531 793 l 579 793 l 579 146 l 701 146 l 701 82 l 579 82 l 579 -176 l 510 -176 m 107 146 l 515 146 l 515 681 l 107 146 z "},"5":{"ha":753,"x_min":50,"x_max":701,"o":"m 381 431 q 506 408 447 431 q 608 343 564 385 q 676 244 651 301 q 701 117 701 186 q 674 -16 701 43 q 601 -118 647 -75 q 494 -184 556 -161 q 365 -207 433 -207 q 176 -153 260 -207 q 50 -12 92 -100 l 101 17 q 210 -99 139 -56 q 365 -143 281 -143 q 469 -124 421 -143 q 553 -71 518 -106 q 610 11 589 -36 q 631 117 631 58 q 610 218 631 172 q 556 297 590 264 q 474 349 521 331 q 374 367 428 367 q 240 335 303 367 q 138 246 178 304 l 71 246 q 78 285 72 256 q 92 354 85 314 q 110 443 100 394 q 129 540 119 492 q 181 793 153 654 l 653 793 l 653 728 l 233 728 l 156 338 q 256 406 197 382 q 381 431 314 431 z "},"6":{"ha":833,"x_min":75,"x_max":772,"o":"m 772 324 q 746 192 772 253 q 672 85 719 131 q 562 13 625 39 q 426 -14 499 -14 q 285 14 350 -14 q 174 93 221 42 q 101 219 128 144 q 75 388 75 293 q 101 657 75 543 q 175 846 128 771 q 288 957 222 921 q 433 993 354 993 q 610 942 533 993 q 725 801 688 890 l 676 764 q 582 885 649 839 q 433 931 515 931 q 315 899 368 931 q 224 808 261 868 q 165 660 186 747 q 143 460 143 572 q 188 541 158 504 q 255 604 217 578 q 339 645 293 631 q 435 660 385 660 q 567 633 506 660 q 674 561 628 607 q 746 454 719 515 q 772 324 772 393 m 428 49 q 535 70 485 49 q 624 129 586 92 q 683 217 661 167 q 706 324 706 267 q 683 431 706 381 q 624 518 661 481 q 535 578 586 556 q 428 600 485 600 q 320 578 371 600 q 232 518 269 556 q 172 431 194 481 q 150 324 150 381 q 172 217 150 267 q 232 129 194 167 q 320 70 269 92 q 428 49 371 49 z "},"7":{"ha":743,"x_min":56,"x_max":721,"o":"m 610 744 l 56 744 l 56 810 l 721 810 l 219 -176 l 140 -176 l 610 744 z "},"8":{"ha":818,"x_min":71,"x_max":746,"o":"m 746 269 q 718 154 746 206 q 644 66 690 103 q 535 10 597 29 q 404 -10 472 -10 q 269 13 331 -10 q 163 74 207 36 q 95 164 119 113 q 71 274 71 215 q 89 364 71 322 q 137 438 107 406 q 204 494 167 471 q 281 529 242 517 q 213 563 244 542 q 158 610 182 583 q 119 669 133 636 q 106 740 106 703 q 133 846 106 800 q 203 923 160 892 q 301 970 246 954 q 410 986 356 986 q 518 970 464 986 q 615 923 572 954 q 685 847 658 892 q 713 742 713 801 q 698 670 713 703 q 660 610 683 638 q 603 563 636 583 q 536 529 571 542 q 618 490 579 514 q 685 432 657 465 q 729 358 713 399 q 746 269 746 317 m 676 275 q 652 369 676 328 q 589 440 628 411 q 502 483 550 468 q 407 499 454 499 q 311 483 358 499 q 226 438 264 467 q 165 367 189 408 q 142 274 142 325 q 166 180 142 221 q 229 110 190 139 q 316 67 268 82 q 411 51 364 51 q 506 67 458 51 q 592 113 554 83 q 653 183 629 142 q 676 275 676 224 m 176 738 q 198 660 176 693 q 253 603 219 626 q 327 567 286 579 q 408 556 368 556 q 490 568 449 556 q 565 604 532 581 q 620 662 599 628 q 642 740 642 696 q 622 817 642 783 q 569 874 601 851 q 494 910 536 897 q 407 922 451 922 q 321 910 363 922 q 247 873 279 897 q 196 815 215 849 q 176 738 176 781 z "},"9":{"ha":810,"x_min":51,"x_max":749,"o":"m 51 456 q 78 588 51 526 q 151 694 104 649 q 261 767 199 740 q 397 793 324 793 q 538 765 474 793 q 649 686 601 738 q 722 560 696 635 q 749 392 749 485 q 722 122 749 236 q 649 -67 696 8 q 535 -178 601 -142 q 390 -214 469 -214 q 213 -162 290 -214 q 99 -22 136 -111 l 147 15 q 242 -106 175 -60 q 390 -151 308 -151 q 509 -120 456 -151 q 600 -28 563 -89 q 659 119 638 32 q 681 319 681 207 q 636 238 665 275 q 569 175 607 201 q 485 134 531 149 q 389 119 439 119 q 257 146 318 119 q 150 218 196 172 q 78 325 104 264 q 51 456 51 386 m 396 731 q 288 709 339 731 q 200 650 238 688 q 140 563 163 613 q 118 456 118 513 q 140 349 118 399 q 200 261 163 299 q 288 201 238 224 q 396 179 339 179 q 503 201 453 179 q 592 261 554 224 q 651 349 629 299 q 674 456 674 399 q 651 561 674 511 q 592 649 629 611 q 503 708 554 686 q 396 731 453 731 z "}," ":{"ha":357,"x_min":0,"x_max":0,"o":""},"!":{"ha":338,"x_min":133,"x_max":204,"o":"m 133 303 l 133 996 l 204 996 l 204 303 l 133 303 m 133 0 l 133 142 l 204 142 l 204 0 l 133 0 z "},"\"":{"ha":367,"x_min":97,"x_max":268,"o":"m 97 750 l 97 992 l 160 992 l 160 750 l 97 750 m 207 750 l 207 992 l 268 992 l 268 750 l 207 750 z "},"#":{"ha":929,"x_min":53,"x_max":876,"o":"m 876 647 l 703 647 l 632 351 l 818 351 l 818 294 l 618 294 l 546 0 l 485 0 l 558 294 l 269 294 l 197 0 l 136 0 l 210 294 l 53 294 l 53 351 l 222 351 l 294 647 l 110 647 l 110 701 l 308 701 l 376 986 l 438 986 l 368 701 l 657 701 l 725 986 l 786 986 l 717 701 l 876 701 l 876 647 m 572 351 l 643 647 l 354 647 l 282 351 l 572 351 z "},"$":{"ha":857,"x_min":58,"x_max":801,"o":"m 713 822 q 450 929 618 928 l 450 525 l 454 525 q 598 488 533 508 q 708 438 663 468 q 777 363 753 407 q 801 253 801 318 q 776 139 801 188 q 706 58 751 90 q 596 8 660 25 q 454 -8 532 -8 l 454 -137 l 411 -137 l 411 -7 q 58 139 204 4 l 96 196 q 233 99 153 136 q 414 54 314 61 l 414 464 q 276 499 336 481 q 175 547 215 518 q 114 615 135 575 q 93 717 93 656 q 116 829 93 779 q 181 914 139 879 q 281 969 222 949 q 411 992 340 989 l 411 1132 l 454 1132 l 454 993 q 618 962 546 990 q 749 878 690 933 l 713 822 m 726 244 q 709 324 726 290 q 658 381 692 357 q 572 423 624 406 q 450 457 519 440 l 450 54 l 451 54 q 653 101 581 54 q 726 244 726 149 m 165 726 q 179 652 165 682 q 224 601 193 622 q 301 563 254 579 q 414 533 349 547 l 414 928 q 224 868 283 922 q 165 726 165 814 z "},"S":{"ha":840,"x_min":49,"x_max":792,"o":"m 703 822 q 432 929 607 929 q 222 874 288 929 q 156 726 156 819 q 172 648 156 679 q 224 594 189 617 q 314 557 260 572 q 444 525 368 542 q 588 488 524 508 q 698 438 653 468 q 767 363 743 407 q 792 253 792 318 q 766 139 792 188 q 694 58 740 90 q 583 8 647 25 q 439 -8 518 -8 q 49 139 208 -8 l 86 196 q 239 92 149 131 q 442 54 329 54 q 644 101 571 54 q 717 244 717 149 q 697 327 717 293 q 640 386 678 361 q 543 429 601 411 q 407 464 485 447 q 267 499 328 481 q 166 547 207 518 q 104 615 125 575 q 83 717 83 656 q 109 835 83 783 q 181 922 135 886 q 290 975 226 957 q 432 993 354 993 q 603 965 528 993 q 739 878 678 936 l 703 822 z "},"%":{"ha":969,"x_min":60,"x_max":910,"o":"m 261 607 q 183 622 219 607 q 119 664 146 638 q 76 726 92 690 q 60 803 60 763 q 76 880 60 844 q 119 942 92 915 q 183 985 146 969 q 261 1000 219 1000 q 340 985 303 1000 q 403 942 376 969 q 447 880 431 915 q 463 803 463 844 q 447 726 463 763 q 403 664 431 690 q 340 622 376 638 q 261 607 303 607 m 261 651 q 319 664 292 651 q 365 697 346 676 q 397 746 385 718 q 408 803 408 774 q 397 863 408 835 q 364 911 385 890 q 317 944 343 932 q 261 956 290 956 q 204 943 231 956 q 158 910 178 931 q 126 861 138 889 q 115 803 115 833 q 127 744 115 771 q 158 696 139 717 q 205 663 178 675 q 261 651 232 651 m 708 -14 q 630 1 667 -14 q 566 44 593 17 q 523 106 539 71 q 507 183 507 142 q 523 260 507 224 q 566 322 539 296 q 630 364 593 349 q 708 379 667 379 q 787 364 750 379 q 851 322 824 349 q 894 260 878 296 q 910 183 910 224 q 894 106 910 142 q 851 44 878 71 q 787 1 824 17 q 708 -14 750 -14 m 708 31 q 766 43 739 31 q 813 76 793 56 q 844 125 832 97 q 856 183 856 153 q 844 242 856 214 q 811 290 832 269 q 764 323 790 311 q 708 335 738 335 q 651 322 678 335 q 605 289 625 310 q 574 240 585 268 q 563 183 563 213 q 574 124 563 151 q 605 75 585 96 q 651 42 625 54 q 708 31 678 31 m 82 29 l 469 507 l 850 990 l 889 958 l 501 479 l 119 -4 l 82 29 z "},"⁄":{"ha":196,"x_min":-306,"x_max":501,"o":"m -306 29 l 82 507 l 463 990 l 501 958 l 114 479 l -268 -4 l -306 29 z "},"&":{"ha":910,"x_min":68,"x_max":900,"o":"m 807 0 l 681 132 q 547 26 624 65 q 378 -14 471 -14 q 260 4 317 -14 q 161 56 204 22 q 93 138 118 90 q 68 247 68 186 q 85 340 68 297 q 133 417 103 382 q 202 485 163 453 q 286 546 242 517 q 220 622 247 588 q 176 683 193 656 q 152 737 160 711 q 144 788 144 763 q 163 869 144 831 q 214 936 182 907 q 290 982 246 965 q 386 999 335 999 q 474 984 433 999 q 544 944 514 969 q 590 885 574 919 q 607 810 607 850 q 589 731 607 768 q 540 662 571 694 q 467 599 508 629 q 382 539 426 569 l 679 231 q 726 349 710 285 q 743 483 743 414 l 804 483 q 721 186 801 317 l 900 0 l 807 0 m 386 43 q 529 78 465 43 q 640 174 593 114 l 326 503 q 252 447 286 475 q 192 388 218 419 q 151 322 165 357 q 136 244 136 286 q 158 157 136 194 q 216 94 181 119 q 297 56 251 68 q 386 43 342 43 m 210 789 q 215 753 210 771 q 234 711 219 735 q 274 656 249 688 q 340 582 300 625 q 488 692 432 642 q 543 807 543 743 q 499 903 543 865 q 385 942 454 942 q 315 929 347 942 q 260 896 283 917 q 223 847 236 875 q 210 789 210 819 z "},"'":{"ha":257,"x_min":97,"x_max":160,"o":"m 97 749 l 97 992 l 160 992 l 160 749 l 97 749 z "},"(":{"ha":356,"x_min":64,"x_max":308,"o":"m 64 479 q 79 619 64 550 q 120 754 94 688 q 181 887 146 821 q 254 1019 215 953 l 308 992 q 246 885 278 947 q 188 754 214 824 q 146 613 163 685 q 129 475 129 540 q 176 238 129 367 q 308 -15 224 110 l 256 -46 q 115 217 167 85 q 64 479 64 349 z "},")":{"ha":354,"x_min":46,"x_max":290,"o":"m 290 479 q 240 217 290 349 q 100 -46 189 85 l 47 -15 q 178 238 131 110 q 225 475 225 367 q 208 613 225 540 q 165 754 192 685 q 108 885 139 824 q 46 992 76 947 l 100 1019 q 174 887 139 953 q 235 754 208 821 q 276 619 261 688 q 290 479 290 550 z "},"*":{"ha":436,"x_min":89,"x_max":347,"o":"m 125 768 l 183 851 l 89 882 l 101 922 l 196 889 l 196 989 l 239 989 l 239 889 l 335 922 l 347 882 l 253 851 l 313 768 l 276 743 l 218 828 l 160 743 l 125 768 z "},"+":{"ha":575,"x_min":74,"x_max":500,"o":"m 500 522 l 500 464 l 319 464 l 319 268 l 256 268 l 256 464 l 74 464 l 74 522 l 256 522 l 256 718 l 319 718 l 319 522 l 500 522 z "},",":{"ha":331,"x_min":131,"x_max":201,"o":"m 135 -112 l 156 -3 l 131 -3 l 131 118 l 201 118 l 201 -3 l 172 -112 l 135 -112 z "},"-":{"ha":586,"x_min":93,"x_max":493,"o":"m 93 346 l 93 410 l 493 410 l 493 346 l 93 346 z "},".":{"ha":246,"x_min":93,"x_max":154,"o":"m 93 0 l 93 118 l 154 118 l 154 0 l 93 0 z "},"/":{"ha":804,"x_min":38,"x_max":765,"o":"m 765 986 l 117 0 l 38 0 l 685 986 l 765 986 z "},":":{"ha":246,"x_min":93,"x_max":153,"o":"m 93 600 l 93 718 l 153 718 l 153 600 l 93 600 m 93 0 l 93 118 l 153 118 l 153 0 l 93 0 z "},";":{"ha":265,"x_min":97,"x_max":168,"o":"m 99 600 l 99 718 l 160 718 l 160 600 l 99 600 m 103 -112 l 122 -3 l 97 -3 l 97 118 l 168 118 l 168 -3 l 140 -112 l 103 -112 z "},"<":{"ha":703,"x_min":47,"x_max":628,"o":"m 47 379 l 628 728 l 628 653 l 147 360 l 628 67 l 628 -10 l 47 338 l 47 379 z "},"=":{"ha":607,"x_min":96,"x_max":511,"o":"m 96 289 l 96 342 l 511 342 l 511 289 l 96 289 m 96 425 l 96 478 l 511 478 l 511 425 l 96 425 z "},">":{"ha":703,"x_min":75,"x_max":656,"o":"m 656 338 l 75 -10 l 75 67 l 554 360 l 75 653 l 75 728 l 656 379 l 656 338 z "},"?":{"ha":657,"x_min":49,"x_max":604,"o":"m 226 268 q 234 361 226 322 q 257 428 242 400 q 294 477 272 457 q 344 514 317 497 q 408 548 374 531 q 473 590 443 565 q 522 650 503 614 q 542 740 542 686 q 524 828 542 790 q 478 890 507 865 q 413 927 450 915 q 338 939 376 939 q 194 897 258 939 q 99 789 131 856 l 49 819 q 98 896 67 863 q 167 952 129 929 q 249 987 206 975 q 338 999 293 999 q 437 982 389 999 q 522 933 485 965 q 582 851 560 900 q 604 736 604 801 q 587 638 604 678 q 541 569 569 597 q 476 522 513 542 q 404 485 440 501 q 353 456 375 471 q 317 418 332 442 q 295 358 303 394 q 288 268 288 322 l 226 268 m 228 0 l 228 136 l 289 136 l 289 0 l 228 0 z "},"@":{"ha":1158,"x_min":67,"x_max":1079,"o":"m 578 838 q 772 798 681 838 q 931 688 863 758 q 1040 521 1000 618 q 1079 308 1079 424 q 1077 256 1079 289 q 1068 187 1075 224 q 1048 113 1061 150 q 1013 45 1035 75 q 958 -3 990 15 q 879 -22 925 -22 q 824 -12 844 -22 q 791 17 803 -1 q 774 59 779 35 q 767 110 769 83 q 667 40 729 69 q 533 11 606 11 q 382 63 438 11 q 326 193 326 114 q 349 280 326 244 q 409 336 372 315 q 491 366 446 357 q 582 375 536 375 q 692 363 644 375 q 763 343 739 351 q 754 440 763 396 q 726 515 746 483 q 672 563 707 546 q 586 581 638 581 q 483 563 533 581 q 390 514 432 546 l 368 557 q 473 609 417 589 q 592 629 529 629 q 709 604 665 629 q 776 538 753 579 q 806 447 799 497 q 813 346 813 396 l 813 154 q 815 99 813 124 q 824 56 817 74 q 847 30 832 39 q 885 21 861 21 q 959 51 929 21 q 1006 126 989 82 q 1031 219 1024 169 q 1038 310 1038 269 q 1002 501 1038 411 q 904 656 967 590 q 758 759 842 721 q 576 797 674 797 q 397 762 482 797 q 248 663 313 726 q 146 511 183 599 q 108 319 108 424 q 144 131 108 219 q 242 -22 179 43 q 389 -125 304 -87 q 571 -162 474 -162 q 783 -110 682 -162 l 800 -147 q 571 -203 690 -203 q 375 -163 467 -203 q 215 -53 283 -124 q 106 112 146 17 q 67 319 67 207 q 109 531 67 436 q 222 694 151 626 q 385 800 293 763 q 578 838 478 838 m 667 89 q 716 121 697 103 q 745 159 735 139 q 758 199 756 179 q 761 240 761 219 l 761 299 q 736 305 753 300 q 697 315 719 310 q 643 326 674 321 q 578 331 613 331 q 504 324 540 331 q 440 301 468 317 q 394 260 411 286 q 378 196 378 235 q 424 95 378 132 q 536 58 469 58 q 606 67 571 58 q 667 89 640 76 z "},"A":{"ha":938,"x_min":19,"x_max":917,"o":"m 439 986 l 500 986 l 917 0 l 842 0 l 704 325 l 233 325 l 96 0 l 19 0 l 439 986 m 685 383 l 469 900 l 250 383 l 685 383 z "},"B":{"ha":919,"x_min":129,"x_max":856,"o":"m 856 256 q 835 155 856 201 q 778 74 814 108 q 693 19 742 39 q 590 0 644 0 l 129 0 l 129 986 l 589 986 q 682 964 640 986 q 753 906 724 942 q 798 826 782 871 q 814 735 814 781 q 776 597 814 660 q 672 506 739 535 q 806 412 757 481 q 856 256 856 343 m 785 265 q 771 341 785 304 q 732 406 757 378 q 673 451 707 435 q 600 468 639 468 l 200 468 l 200 64 l 590 64 q 667 81 632 64 q 728 126 703 97 q 769 190 754 154 q 785 265 785 226 m 200 922 l 200 528 l 561 528 q 635 544 601 528 q 692 588 668 561 q 731 651 717 615 q 744 725 744 688 q 731 801 744 765 q 695 863 718 836 q 640 906 672 890 q 569 922 608 922 l 200 922 z "},"C":{"ha":958,"x_min":61,"x_max":913,"o":"m 61 500 q 92 677 61 589 q 183 835 124 765 q 330 948 243 904 q 528 992 417 992 q 753 931 660 992 q 892 776 846 871 l 833 743 q 772 829 807 794 q 695 885 736 864 q 610 917 654 907 q 522 926 565 926 q 356 888 428 926 q 233 789 283 850 q 158 651 183 728 q 132 496 132 574 q 163 329 132 408 q 246 190 193 250 q 371 93 299 129 q 526 57 443 57 q 618 68 571 57 q 708 103 665 79 q 789 163 751 126 q 851 250 826 200 l 913 221 q 844 122 888 165 q 749 50 801 79 q 637 6 696 21 q 521 -8 578 -8 q 335 36 419 -8 q 190 152 251 81 q 95 315 129 224 q 61 500 61 406 z "},"D":{"ha":990,"x_min":129,"x_max":925,"o":"m 129 0 l 129 986 l 457 986 q 662 947 574 986 q 808 842 750 908 q 896 685 867 775 q 925 494 925 596 q 892 291 925 382 q 799 135 860 200 q 651 35 738 71 q 457 0 564 0 l 129 0 m 854 494 q 828 666 854 588 q 751 801 801 744 q 626 890 700 858 q 457 922 553 922 l 200 922 l 200 64 l 457 64 q 628 97 554 64 q 753 188 703 129 q 828 324 803 246 q 854 494 854 403 z "},"E":{"ha":850,"x_min":129,"x_max":786,"o":"m 786 64 l 786 0 l 129 0 l 129 986 l 774 986 l 774 922 l 200 922 l 200 535 l 701 535 l 701 474 l 200 474 l 200 64 l 786 64 z "},"F":{"ha":825,"x_min":129,"x_max":771,"o":"m 129 0 l 129 986 l 771 986 l 771 922 l 200 922 l 200 531 l 685 531 l 685 469 l 200 469 l 200 0 l 129 0 z "},"G":{"ha":996,"x_min":61,"x_max":917,"o":"m 856 154 q 524 -7 713 -7 q 338 36 424 -7 q 192 150 253 79 q 96 311 131 221 q 61 494 61 401 q 95 682 61 592 q 190 842 129 772 q 333 952 250 911 q 515 993 417 993 q 648 977 589 993 q 753 933 707 961 q 834 865 800 904 q 892 778 868 825 l 833 743 q 701 884 783 840 q 514 928 618 928 q 356 890 426 928 q 235 792 285 853 q 158 653 185 731 q 132 493 132 575 q 163 327 132 406 q 247 189 193 249 q 372 94 300 129 q 528 58 444 58 q 699 100 618 58 q 856 232 781 142 l 856 422 l 632 422 l 632 479 l 917 479 l 917 0 l 856 0 l 856 154 z "},"H":{"ha":1021,"x_min":129,"x_max":893,"o":"m 893 986 l 893 0 l 822 0 l 822 472 l 200 472 l 200 0 l 129 0 l 129 986 l 200 986 l 200 536 l 822 536 l 822 986 l 893 986 z "},"I":{"ha":329,"x_min":129,"x_max":200,"o":"m 129 0 l 129 986 l 200 986 l 200 0 l 129 0 z "},"J":{"ha":664,"x_min":22,"x_max":547,"o":"m 44 103 q 128 65 79 79 q 236 50 176 50 q 364 79 317 50 q 436 164 411 108 q 469 301 461 219 q 476 485 476 382 l 476 986 l 547 986 l 547 485 q 538 280 547 372 q 495 122 528 188 q 401 21 463 57 q 236 -15 340 -15 q 22 46 111 -15 l 44 103 z "},"K":{"ha":882,"x_min":129,"x_max":878,"o":"m 129 0 l 129 986 l 200 986 l 200 388 l 775 986 l 857 986 l 447 554 l 878 0 l 797 0 l 401 511 l 200 304 l 200 0 l 129 0 z "},"L":{"ha":807,"x_min":129,"x_max":789,"o":"m 129 0 l 129 986 l 200 986 l 200 64 l 789 64 l 789 0 l 129 0 z "},"M":{"ha":1222,"x_min":129,"x_max":1093,"o":"m 1022 0 l 1022 853 l 633 188 l 589 188 l 200 853 l 200 0 l 129 0 l 129 986 l 200 986 l 611 281 l 1022 986 l 1093 986 l 1093 0 l 1022 0 z "},"N":{"ha":1074,"x_min":129,"x_max":946,"o":"m 200 853 l 200 0 l 129 0 l 129 986 l 183 986 l 875 118 l 875 986 l 946 986 l 946 0 l 881 0 l 200 853 z "},"O":{"ha":1046,"x_min":61,"x_max":985,"o":"m 522 -7 q 335 36 419 -7 q 189 149 250 79 q 94 308 128 218 q 61 493 61 399 q 97 682 61 592 q 194 842 132 772 q 340 952 256 911 q 524 993 425 993 q 712 949 626 993 q 858 835 797 906 q 951 674 918 764 q 985 493 985 585 q 949 303 985 393 q 852 144 914 213 q 706 34 790 75 q 522 -7 621 -7 m 132 493 q 160 330 132 408 q 241 191 189 251 q 365 94 293 131 q 524 58 438 58 q 684 96 613 58 q 806 195 756 133 q 885 335 857 257 q 913 493 913 413 q 883 656 913 578 q 802 795 854 735 q 679 892 750 856 q 524 928 608 928 q 363 890 435 928 q 239 791 290 853 q 160 651 188 729 q 132 493 132 574 z "},"P":{"ha":863,"x_min":129,"x_max":822,"o":"m 129 0 l 129 986 l 535 986 q 650 960 597 986 q 741 890 703 933 q 801 791 779 846 q 822 681 822 736 q 802 565 822 621 q 745 467 782 510 q 657 398 708 424 q 543 372 606 372 l 200 372 l 200 0 l 129 0 m 200 438 l 540 438 q 628 458 589 438 q 694 512 667 478 q 735 590 721 546 q 750 681 750 633 q 733 773 750 729 q 685 850 715 817 q 616 903 656 883 q 532 922 576 922 l 200 922 l 200 438 z "},"Q":{"ha":1044,"x_min":61,"x_max":985,"o":"m 800 93 q 672 19 742 46 q 522 -7 601 -7 q 335 36 419 -7 q 189 149 250 79 q 94 308 128 218 q 61 493 61 399 q 97 682 61 592 q 194 842 132 772 q 340 952 256 911 q 524 993 425 993 q 712 949 626 993 q 858 835 797 906 q 951 674 918 764 q 985 493 985 585 q 947 296 985 389 q 842 132 908 203 l 951 0 l 878 0 l 800 93 m 524 58 q 651 81 593 58 q 757 144 710 104 l 640 286 l 714 286 l 797 185 q 883 328 853 247 q 913 493 913 408 q 883 656 913 578 q 802 795 854 735 q 679 892 750 856 q 524 928 608 928 q 363 890 435 928 q 239 791 290 853 q 160 651 188 729 q 132 493 132 574 q 160 330 132 408 q 241 191 189 251 q 365 94 293 131 q 524 58 438 58 z "},"R":{"ha":901,"x_min":129,"x_max":840,"o":"m 129 0 l 129 986 l 539 986 q 654 960 601 986 q 745 890 707 933 q 805 791 783 846 q 826 681 826 736 q 810 576 826 626 q 763 485 793 525 q 689 418 732 444 q 594 383 646 392 l 840 0 l 758 0 l 519 372 l 200 372 l 200 0 l 129 0 m 200 438 l 546 438 q 632 458 593 438 q 699 513 671 479 q 741 591 726 547 q 756 681 756 635 q 738 772 756 728 q 691 849 721 815 q 622 902 661 882 q 536 922 582 922 l 200 922 l 200 438 z "},"T":{"ha":842,"x_min":25,"x_max":818,"o":"m 818 922 l 457 922 l 457 0 l 386 0 l 386 922 l 25 922 l 25 986 l 818 986 l 818 922 z "},"U":{"ha":1050,"x_min":114,"x_max":936,"o":"m 525 58 q 691 96 625 58 q 795 194 757 133 q 849 333 833 256 q 865 490 865 411 l 865 986 l 936 986 l 936 490 q 915 301 936 392 q 844 142 893 211 q 718 33 796 74 q 526 -7 640 -7 q 329 35 408 -7 q 202 148 250 78 q 134 307 154 218 q 114 490 114 396 l 114 986 l 185 986 l 185 490 q 201 331 185 408 q 256 192 217 253 q 361 95 296 132 q 525 58 426 58 z "},"V":{"ha":943,"x_min":21,"x_max":921,"o":"m 96 986 l 471 89 l 846 986 l 921 986 l 504 0 l 439 0 l 21 986 l 96 986 z "},"W":{"ha":1449,"x_min":21,"x_max":1429,"o":"m 507 979 l 576 979 l 724 621 l 871 979 l 940 979 l 767 564 l 974 83 l 1351 986 l 1429 986 l 1007 0 l 942 0 l 725 507 l 507 0 l 442 0 l 21 986 l 97 986 l 476 83 l 681 564 l 507 979 z "},"X":{"ha":872,"x_min":10,"x_max":863,"o":"m 92 986 l 438 538 l 782 986 l 863 986 l 475 486 l 851 0 l 771 0 l 438 435 l 103 0 l 21 0 l 397 486 l 10 986 l 92 986 z "},"Y":{"ha":899,"x_min":26,"x_max":874,"o":"m 104 986 l 449 440 l 794 986 l 874 986 l 485 372 l 485 0 l 414 0 l 414 375 l 26 986 l 104 986 z "},"Z":{"ha":871,"x_min":42,"x_max":826,"o":"m 42 58 l 743 922 l 51 922 l 51 986 l 826 986 l 826 928 l 131 64 l 824 64 l 824 0 l 42 0 l 42 58 z "},"[":{"ha":343,"x_min":126,"x_max":267,"o":"m 126 -56 l 126 1028 l 267 1028 l 267 968 l 193 968 l 193 4 l 267 4 l 267 -56 l 126 -56 z "},"\\":{"ha":761,"x_min":38,"x_max":724,"o":"m 119 986 l 724 0 l 643 0 l 38 986 l 119 986 z "},"]":{"ha":343,"x_min":75,"x_max":215,"o":"m 75 -56 l 75 4 l 150 4 l 150 968 l 75 968 l 75 1028 l 215 1028 l 215 -56 l 75 -56 z "},"^":{"ha":731,"x_min":61,"x_max":669,"o":"m 61 421 l 336 986 l 396 986 l 669 421 l 606 421 l 367 915 l 122 421 l 61 421 z "},"_":{"ha":721,"x_min":92,"x_max":628,"o":"m 92 -64 l 92 0 l 628 0 l 628 -64 l 92 -64 z "},"`":{"ha":296,"x_min":68,"x_max":233,"o":"m 68 1014 l 147 1014 l 233 896 l 186 874 l 68 1014 z "},"a":{"ha":746,"x_min":49,"x_max":674,"o":"m 286 -14 q 193 3 236 -14 q 117 51 150 21 q 67 122 85 81 q 49 210 49 163 q 71 296 49 257 q 133 363 93 335 q 228 408 172 392 q 350 424 283 424 q 467 413 408 424 q 574 385 526 403 l 574 456 q 515 619 574 558 q 357 679 457 679 q 245 657 304 679 q 125 593 186 635 l 99 640 q 363 735 238 735 q 568 659 493 735 q 643 450 643 583 l 643 97 q 674 63 643 63 l 674 0 q 659 -2 667 -1 q 646 -3 651 -3 q 601 16 618 -3 q 582 61 585 35 l 582 121 q 454 21 532 56 q 286 -14 376 -14 m 300 42 q 448 72 381 42 q 551 153 515 103 q 574 208 574 182 l 574 336 q 469 365 524 356 q 357 375 415 375 q 258 363 303 375 q 182 331 214 351 q 133 280 150 310 q 115 214 115 250 q 129 146 115 178 q 168 91 143 114 q 227 55 193 68 q 300 42 261 42 z "},"b":{"ha":850,"x_min":108,"x_max":792,"o":"m 446 -14 q 288 31 361 -14 q 172 144 214 75 l 172 0 l 108 0 l 108 1014 l 178 1014 l 178 565 q 299 688 229 640 q 461 735 369 735 q 599 702 538 735 q 703 616 661 669 q 769 495 746 563 q 792 358 792 428 q 765 216 792 283 q 692 98 739 149 q 583 17 646 47 q 446 -14 519 -14 m 432 49 q 549 75 496 49 q 640 145 601 101 q 699 244 678 189 q 721 358 721 300 q 701 476 721 419 q 644 576 681 532 q 556 646 607 619 q 444 672 506 672 q 358 656 399 672 q 284 614 318 640 q 223 553 250 588 q 178 481 196 518 l 178 242 q 208 166 182 201 q 272 105 235 131 q 351 64 308 79 q 432 49 394 49 z "},"c":{"ha":757,"x_min":58,"x_max":708,"o":"m 58 364 q 85 508 58 440 q 158 626 111 576 q 271 706 206 676 q 414 735 336 735 q 588 690 513 735 q 700 567 663 646 l 632 544 q 541 638 600 604 q 411 672 482 672 q 300 649 351 672 q 210 583 249 625 q 150 485 172 542 q 128 364 128 429 q 151 241 128 299 q 212 141 174 183 q 302 74 250 99 q 413 49 354 49 q 487 60 450 49 q 555 89 524 71 q 609 131 586 107 q 640 182 632 156 l 708 163 q 666 92 694 125 q 599 36 638 60 q 513 -1 560 13 q 415 -14 465 -14 q 274 16 339 -14 q 160 98 208 46 q 85 218 113 150 q 58 364 58 286 z "},"d":{"ha":854,"x_min":58,"x_max":771,"o":"m 406 -14 q 267 17 331 -14 q 156 101 203 49 q 84 220 110 153 q 58 360 58 288 q 83 503 58 435 q 153 622 108 571 q 258 704 197 674 q 390 735 318 735 q 479 721 438 735 q 557 684 521 707 q 622 631 593 661 q 672 565 651 600 l 672 1014 l 742 1014 l 742 97 q 771 63 742 63 l 771 0 q 757 -2 763 -1 q 746 -3 751 -3 q 699 19 718 -3 q 679 64 679 40 l 679 144 q 560 29 635 72 q 406 -14 486 -14 m 418 49 q 499 64 456 49 q 578 106 542 79 q 642 168 615 133 q 672 243 668 203 l 672 481 q 628 555 657 519 q 564 616 600 590 q 486 657 528 642 q 406 672 444 672 q 292 645 343 672 q 204 574 240 618 q 149 474 168 531 q 129 358 129 418 q 151 240 129 296 q 213 142 174 185 q 305 74 253 99 q 418 49 357 49 z "},"e":{"ha":810,"x_min":58,"x_max":765,"o":"m 415 -14 q 274 16 339 -14 q 160 98 208 46 q 85 218 113 150 q 58 364 58 286 q 85 508 58 440 q 160 626 113 575 q 272 706 207 676 q 411 735 336 735 q 553 705 488 735 q 665 624 618 675 q 739 506 713 574 q 765 364 765 439 q 765 347 765 357 q 764 333 765 336 l 131 333 q 160 217 135 271 q 223 125 185 164 q 311 64 261 86 q 418 42 361 42 q 492 52 456 42 q 559 81 528 63 q 615 124 590 99 q 653 181 639 150 l 714 164 q 669 92 699 125 q 599 36 639 60 q 513 -1 560 13 q 415 -14 465 -14 m 699 389 q 670 506 694 453 q 608 597 646 558 q 519 656 569 635 q 413 678 469 678 q 306 656 356 678 q 217 597 256 635 q 156 505 179 558 q 129 389 133 451 l 699 389 z "},"f":{"ha":442,"x_min":39,"x_max":489,"o":"m 140 0 l 140 665 l 39 665 l 39 722 l 140 722 l 140 746 q 194 953 140 879 q 344 1028 249 1028 q 425 1015 386 1028 q 489 982 464 1003 l 464 932 q 416 957 444 947 q 357 967 388 967 q 248 910 286 967 q 210 747 210 854 l 210 722 l 415 722 l 415 665 l 210 665 l 210 0 l 140 0 z "},"g":{"ha":850,"x_min":58,"x_max":742,"o":"m 400 -11 q 263 20 325 -11 q 155 103 200 51 q 84 222 110 156 q 58 360 58 289 q 83 501 58 433 q 151 622 107 569 q 258 704 196 674 q 394 735 319 735 q 559 685 489 735 q 678 565 629 636 l 678 722 l 742 722 l 742 -14 q 714 -143 742 -87 q 640 -235 686 -199 q 531 -291 593 -272 q 401 -310 469 -310 q 289 -298 339 -310 q 201 -265 239 -286 q 133 -212 163 -243 q 81 -143 103 -181 l 128 -111 q 244 -219 171 -185 q 401 -253 318 -253 q 506 -237 457 -253 q 592 -192 556 -222 q 651 -118 629 -162 q 672 -14 672 -74 l 672 144 q 554 31 628 74 q 400 -11 481 -11 m 417 49 q 506 66 463 49 q 585 111 550 83 q 644 174 621 139 q 672 243 667 208 l 672 481 q 628 558 656 522 q 565 618 600 593 q 488 658 529 643 q 406 672 447 672 q 289 644 340 672 q 202 572 238 617 q 148 472 167 528 q 129 358 129 415 q 151 240 129 296 q 213 142 174 185 q 304 74 251 99 q 417 49 357 49 z "},"h":{"ha":800,"x_min":108,"x_max":699,"o":"m 699 0 l 629 0 l 629 403 q 450 671 629 671 q 363 654 406 671 q 284 607 321 638 q 219 535 247 576 q 178 447 192 494 l 178 0 l 108 0 l 108 1014 l 178 1014 l 178 550 q 301 685 222 635 q 469 735 379 735 q 572 713 529 735 q 644 649 615 690 q 685 548 672 607 q 699 415 699 489 l 699 0 z "},"i":{"ha":288,"x_min":108,"x_max":178,"o":"m 108 0 l 108 722 l 178 722 l 178 0 l 108 0 m 108 886 l 108 1014 l 178 1014 l 178 886 l 108 886 z "},"j":{"ha":297,"x_min":-165,"x_max":189,"o":"m -14 -246 q -97 -234 -58 -246 q -165 -194 -135 -222 l -128 -149 q -76 -175 -104 -168 q -21 -182 -49 -182 q 31 -172 6 -182 q 75 -142 56 -161 q 107 -98 94 -124 q 119 -42 119 -72 l 119 722 l 189 722 l 189 -39 q 172 -122 189 -85 q 125 -187 154 -160 q 60 -231 96 -215 q -14 -246 24 -246 m 119 886 l 119 1014 l 189 1014 l 189 886 l 119 886 z "},"k":{"ha":725,"x_min":108,"x_max":707,"o":"m 631 0 l 349 386 l 178 229 l 178 0 l 108 0 l 108 1014 l 178 1014 l 178 306 l 617 721 l 697 721 l 396 428 l 707 0 l 631 0 z "},"l":{"ha":360,"x_min":114,"x_max":361,"o":"m 114 1014 l 185 1014 l 185 143 q 208 79 185 103 q 271 56 231 56 q 308 59 286 56 q 347 69 329 63 l 361 14 q 303 -2 338 4 q 243 -8 268 -8 q 149 27 185 -8 q 114 122 114 63 l 114 1014 z "},"m":{"ha":1271,"x_min":108,"x_max":1169,"o":"m 1169 0 l 1100 0 l 1100 403 q 1058 606 1100 540 q 928 671 1015 671 q 843 654 883 671 q 769 608 803 638 q 712 537 736 578 q 674 446 688 496 l 674 0 l 604 0 l 604 403 q 563 606 604 542 q 433 671 521 671 q 349 655 389 671 q 276 609 310 639 q 217 538 243 579 q 178 447 192 497 l 178 0 l 108 0 l 108 722 l 174 722 l 174 550 q 290 686 218 638 q 450 735 363 735 q 599 681 542 735 q 667 539 656 626 q 950 735 769 735 q 1119 651 1068 735 q 1169 415 1169 567 l 1169 0 z "},"n":{"ha":800,"x_min":108,"x_max":699,"o":"m 699 0 l 629 0 l 629 403 q 590 607 629 543 q 464 671 550 671 q 373 654 418 671 q 289 607 328 638 q 221 535 250 576 q 178 447 192 494 l 178 0 l 108 0 l 108 722 l 174 722 l 174 550 q 228 626 196 592 q 302 684 261 660 q 389 722 343 708 q 483 735 435 735 q 650 652 601 735 q 699 415 699 569 l 699 0 z "},"o":{"ha":822,"x_min":58,"x_max":764,"o":"m 411 -14 q 270 16 335 -14 q 158 97 206 46 q 85 217 111 149 q 58 360 58 285 q 85 504 58 436 q 160 624 113 572 q 272 705 207 675 q 411 735 336 735 q 550 705 486 735 q 662 624 614 675 q 737 504 710 572 q 764 360 764 436 q 737 217 764 285 q 663 97 710 149 q 551 16 615 46 q 411 -14 486 -14 m 128 357 q 150 237 128 293 q 210 139 172 181 q 300 73 249 97 q 410 49 351 49 q 519 73 468 49 q 610 140 571 97 q 671 240 649 183 q 693 361 693 296 q 671 481 693 425 q 610 580 649 538 q 520 647 571 622 q 411 672 469 672 q 301 647 353 672 q 212 579 250 622 q 151 478 174 536 q 128 357 128 421 z "},"p":{"ha":850,"x_min":108,"x_max":792,"o":"m 461 -14 q 295 35 368 -14 q 178 156 222 85 l 178 -296 l 108 -296 l 108 722 l 172 722 l 172 578 q 290 691 217 647 q 446 735 363 735 q 585 703 521 735 q 694 619 649 671 q 766 499 740 567 q 792 360 792 431 q 768 217 792 285 q 701 97 744 149 q 596 16 657 46 q 461 -14 535 -14 m 444 49 q 558 75 507 49 q 646 145 610 101 q 701 245 682 189 q 721 360 721 301 q 699 478 721 422 q 637 578 676 535 q 544 647 597 621 q 432 672 492 672 q 352 656 394 672 q 272 613 310 640 q 208 551 235 586 q 178 478 182 517 l 178 240 q 224 165 196 200 q 286 104 251 131 q 361 63 321 78 q 444 49 401 49 z "},"q":{"ha":850,"x_min":58,"x_max":771,"o":"m 389 -14 q 253 17 314 -14 q 149 101 193 49 q 82 220 106 153 q 58 360 58 288 q 85 503 58 435 q 159 622 113 571 q 269 704 206 674 q 404 735 332 735 q 563 690 489 735 q 678 576 636 644 l 678 722 l 742 722 l 742 -196 q 771 -232 742 -231 l 771 -293 q 758 -294 764 -294 q 747 -294 753 -294 q 694 -274 715 -294 q 672 -221 672 -254 l 672 156 q 389 -14 558 -14 m 407 49 q 492 64 453 49 q 565 104 532 79 q 626 163 599 129 q 672 235 653 197 l 672 471 q 642 547 667 511 q 580 611 617 583 q 500 656 543 639 q 415 672 457 672 q 300 645 353 672 q 209 574 247 618 q 150 474 171 531 q 129 358 129 417 q 150 240 129 296 q 208 142 171 185 q 295 74 244 99 q 407 49 346 49 z "},"r":{"ha":474,"x_min":108,"x_max":450,"o":"m 450 660 q 280 602 353 657 q 178 451 207 547 l 178 0 l 108 0 l 108 722 l 175 722 l 175 544 q 274 669 213 621 q 407 724 336 717 q 432 725 421 725 q 450 725 443 725 l 450 660 z "},"s":{"ha":668,"x_min":44,"x_max":615,"o":"m 338 -14 q 178 14 254 -14 q 44 97 101 42 l 79 144 q 200 67 138 92 q 338 42 263 42 q 490 81 432 42 q 547 192 547 121 q 533 248 547 225 q 489 287 518 271 q 417 315 460 303 q 317 342 374 328 q 210 369 256 356 q 136 403 165 383 q 92 450 107 422 q 78 521 78 478 q 99 615 78 575 q 156 682 119 656 q 241 722 193 708 q 343 735 289 735 q 493 706 428 735 q 594 633 558 678 l 556 596 q 462 658 519 638 q 339 679 404 679 q 263 671 299 679 q 201 644 228 663 q 160 598 175 626 q 144 531 144 569 q 155 479 144 499 q 188 446 165 460 q 247 422 211 432 q 333 399 283 411 q 454 367 401 382 q 542 329 507 351 q 597 276 578 307 q 615 199 615 246 q 540 44 615 101 q 338 -14 464 -14 z "},"t":{"ha":444,"x_min":36,"x_max":431,"o":"m 431 35 q 412 24 425 32 q 378 10 399 17 q 333 -3 358 3 q 279 -8 308 -8 q 224 0 250 -8 q 179 25 199 8 q 149 65 160 42 q 138 121 138 89 l 138 665 l 36 665 l 36 722 l 138 722 l 138 969 l 207 969 l 207 722 l 375 722 l 375 665 l 207 665 l 207 138 q 235 77 207 97 q 297 57 263 57 q 372 72 340 57 q 410 90 403 86 l 431 35 z "},"u":{"ha":815,"x_min":101,"x_max":732,"o":"m 332 -14 q 101 306 101 -14 l 101 722 l 171 722 l 171 315 q 353 49 171 49 q 442 65 399 49 q 522 109 485 81 q 588 178 560 138 q 633 267 617 218 l 633 722 l 703 722 l 703 97 q 732 63 703 63 l 732 0 q 719 -1 725 -1 q 711 -1 714 -1 q 662 16 683 -1 q 640 63 640 33 l 640 171 q 510 35 593 83 q 332 -14 428 -14 z "},"v":{"ha":733,"x_min":29,"x_max":704,"o":"m 331 0 l 29 722 l 101 722 l 368 69 l 636 722 l 704 722 l 403 0 l 331 0 z "},"w":{"ha":1119,"x_min":26,"x_max":1093,"o":"m 1024 722 l 1093 722 l 781 0 l 722 0 l 560 382 l 397 0 l 339 0 l 26 722 l 94 722 l 371 76 l 522 432 l 400 721 l 460 721 l 560 482 l 658 721 l 719 721 l 597 432 l 749 76 l 1024 722 z "},"x":{"ha":689,"x_min":24,"x_max":665,"o":"m 100 722 l 333 424 l 344 404 l 356 424 l 588 722 l 665 722 l 385 360 l 664 0 l 588 0 l 356 297 l 344 315 l 333 297 l 101 0 l 25 0 l 304 360 l 24 722 l 100 722 z "},"y":{"ha":750,"x_min":24,"x_max":719,"o":"m 157 -244 q 178 -246 164 -246 q 203 -244 192 -246 q 226 -237 215 -243 q 242 -226 235 -233 q 261 -194 249 -218 q 293 -125 274 -171 q 346 0 313 -79 l 24 722 l 96 722 l 383 68 l 651 722 l 719 722 l 324 -228 q 274 -288 308 -267 q 182 -310 240 -310 q 170 -310 176 -310 q 157 -308 164 -310 l 157 -244 z "},"z":{"ha":681,"x_min":44,"x_max":633,"o":"m 44 50 l 556 668 l 53 668 l 53 722 l 633 722 l 633 672 l 124 54 l 631 54 l 631 0 l 44 0 l 44 50 z "},"{":{"ha":344,"x_min":82,"x_max":272,"o":"m 196 968 l 196 583 q 190 544 196 569 q 161 500 183 519 q 190 455 183 481 q 196 417 196 429 l 196 17 l 272 17 l 272 -43 l 163 -43 q 141 -34 151 -43 q 131 -1 131 -25 l 131 401 q 119 449 131 426 q 82 474 107 471 l 82 529 q 106 538 96 529 q 121 557 115 546 q 128 580 126 568 q 131 599 131 592 l 131 986 q 143 1021 131 1014 q 163 1028 156 1028 l 272 1028 l 272 968 l 196 968 z "},"|":{"ha":310,"x_min":124,"x_max":186,"o":"m 124 -181 l 124 1076 l 186 1076 l 186 -181 l 124 -181 z "},"}":{"ha":344,"x_min":72,"x_max":263,"o":"m 72 968 l 72 1028 l 182 1028 q 201 1021 188 1028 q 214 986 214 1014 l 214 599 q 216 580 214 592 q 224 557 218 568 q 238 538 229 546 q 263 529 247 529 l 263 474 q 225 449 236 471 q 214 401 214 426 l 214 -1 q 203 -34 214 -25 q 182 -43 193 -43 l 72 -43 l 72 17 l 149 17 l 149 417 q 155 455 149 429 q 183 500 161 481 q 155 544 161 519 q 149 583 149 569 l 149 968 l 72 968 z "},"~":{"ha":685,"x_min":94,"x_max":592,"o":"m 94 340 q 101 366 94 344 q 125 411 108 388 q 167 453 142 435 q 231 472 193 472 q 288 459 261 472 q 342 431 315 446 q 394 402 368 415 q 447 389 419 389 q 492 399 474 389 q 522 423 510 410 q 539 448 533 436 q 544 463 544 460 l 592 463 q 585 441 592 460 q 561 399 578 422 q 517 358 544 376 q 447 340 489 340 q 385 353 414 340 q 329 381 356 365 q 278 410 303 397 q 231 422 254 422 q 190 410 207 422 q 163 382 174 397 q 147 354 151 367 q 142 340 142 342 l 94 340 l 94 340 z "}," ":{"ha":357,"x_min":0,"x_max":0,"o":""},"¡":{"ha":336,"x_min":133,"x_max":203,"o":"m 203 692 l 203 -1 l 133 -1 l 133 692 l 203 692 m 203 994 l 203 853 l 133 853 l 133 994 l 203 994 z "},"¢":{"ha":769,"x_min":61,"x_max":713,"o":"m 383 -167 l 383 -12 q 253 27 313 -7 q 151 113 194 61 q 85 228 108 164 q 61 358 61 292 q 84 494 61 429 q 149 610 107 560 q 251 694 192 661 q 383 733 310 728 l 383 896 l 426 896 l 426 733 q 599 686 532 731 q 703 567 667 642 l 636 544 q 547 638 601 607 q 426 671 493 668 l 426 50 q 490 60 456 50 q 556 87 525 69 q 612 128 588 104 q 644 182 636 153 l 713 163 q 665 85 697 118 q 592 31 632 53 q 508 -3 551 8 q 426 -14 464 -14 l 426 -167 l 383 -167 m 132 358 q 151 249 132 301 q 203 156 169 197 q 283 87 238 114 q 383 53 329 60 l 383 668 q 277 635 324 664 q 198 563 231 607 q 149 466 165 519 q 132 358 132 413 z "},"£":{"ha":676,"x_min":69,"x_max":614,"o":"m 69 514 l 208 514 q 174 574 192 544 q 142 632 157 603 q 118 692 128 661 q 108 758 108 724 q 128 849 108 807 q 180 924 147 892 q 257 974 213 956 q 351 993 301 993 q 489 953 425 993 q 593 847 553 914 l 549 804 q 461 899 515 864 q 349 933 407 933 q 281 919 313 933 q 226 881 250 906 q 189 825 203 857 q 175 756 175 793 q 185 694 175 724 q 210 635 194 664 q 243 576 225 606 q 276 514 261 546 l 521 514 l 521 457 l 300 457 q 313 406 308 432 q 318 350 318 379 q 310 281 318 314 q 285 213 303 247 q 238 140 267 178 q 167 57 208 103 q 267 68 218 68 q 323 64 297 68 q 372 55 349 60 q 419 46 396 50 q 468 42 442 42 q 526 48 496 42 q 596 68 556 54 l 614 13 q 464 -21 540 -21 q 406 -16 433 -21 q 353 -6 379 -11 q 299 5 326 0 q 240 10 272 10 q 169 4 208 10 q 97 -10 131 -1 l 76 42 q 162 135 128 93 q 217 212 196 176 q 246 279 238 247 q 254 346 254 311 q 249 404 254 376 q 233 457 243 432 l 69 457 l 69 514 z "},"¤":{"ha":743,"x_min":79,"x_max":667,"o":"m 211 660 q 283 703 243 688 q 371 719 324 719 q 459 703 418 719 q 532 658 500 686 l 629 757 l 667 721 l 568 622 q 606 551 592 590 q 619 467 619 511 q 565 310 619 379 l 667 211 l 633 178 l 532 275 q 459 232 500 247 q 371 217 418 217 q 283 231 324 217 q 211 274 243 246 l 113 178 l 79 211 l 178 308 q 124 467 124 378 q 175 624 124 557 l 79 721 l 115 757 l 211 660 m 183 465 q 198 388 183 424 q 238 326 213 353 q 298 283 264 299 q 371 268 332 268 q 444 284 410 268 q 503 327 478 300 q 544 390 529 354 q 558 468 558 426 q 544 546 558 510 q 503 609 529 582 q 444 651 478 636 q 371 667 410 667 q 298 651 332 667 q 238 608 264 635 q 198 544 213 581 q 183 465 183 507 z "},"¥":{"ha":926,"x_min":39,"x_max":886,"o":"m 572 496 l 694 496 l 694 443 l 542 443 l 497 372 l 497 336 l 694 336 l 694 285 l 497 285 l 497 0 l 426 0 l 426 285 l 231 285 l 231 336 l 426 336 l 426 375 l 385 443 l 231 443 l 231 496 l 354 496 l 39 986 l 118 986 l 463 440 l 808 986 l 886 986 l 572 496 z "},"¦":{"ha":314,"x_min":126,"x_max":189,"o":"m 189 389 l 189 -181 l 126 -181 l 126 389 l 189 389 m 189 1076 l 189 507 l 126 507 l 126 1076 l 189 1076 z "},"§":{"ha":690,"x_min":64,"x_max":631,"o":"m 563 264 q 631 117 631 222 q 605 12 631 57 q 540 -63 579 -33 q 452 -108 500 -93 q 358 -122 404 -122 q 272 -112 311 -122 q 199 -84 232 -101 q 138 -44 165 -67 q 89 0 111 -22 l 135 43 q 241 -31 188 -7 q 357 -56 294 -56 q 429 -44 393 -56 q 494 -10 465 -32 q 542 43 524 11 q 560 115 560 75 q 542 185 560 158 q 497 227 525 213 q 435 247 469 242 q 367 254 400 253 q 261 271 310 257 q 177 312 213 285 q 121 379 142 339 q 100 474 100 419 q 112 544 100 511 q 140 597 124 578 q 85 663 107 619 q 64 763 64 706 q 88 858 64 815 q 149 931 111 900 q 234 977 186 961 q 331 993 282 993 q 485 958 429 993 q 576 871 542 922 l 521 846 q 487 887 508 871 q 440 912 465 903 q 386 925 414 921 q 333 929 358 929 q 261 918 297 929 q 197 885 225 907 q 152 833 169 864 q 135 763 135 801 q 150 690 135 719 q 192 641 165 660 q 255 614 218 622 q 335 606 292 606 q 434 594 385 606 q 522 558 483 583 q 584 493 560 533 q 608 394 608 453 q 595 319 608 354 q 563 264 582 285 m 168 467 q 185 389 168 418 q 231 343 203 360 q 294 319 258 326 q 366 308 329 313 q 437 299 403 304 q 496 285 471 294 q 529 333 517 303 q 542 394 542 363 q 522 467 542 438 q 473 514 503 496 q 407 539 443 532 q 338 546 371 546 q 206 569 261 546 q 178 524 189 553 q 168 467 168 496 z "},"¨":{"ha":408,"x_min":79,"x_max":329,"o":"m 79 889 l 79 1011 l 140 1011 l 140 889 l 79 889 m 268 889 l 268 1011 l 329 1011 l 329 889 l 268 889 z "},"©":{"ha":1151,"x_min":68,"x_max":1083,"o":"m 575 -10 q 374 28 467 -10 q 213 134 281 67 q 106 293 144 201 q 68 493 68 385 q 106 692 68 600 q 213 850 144 783 q 374 955 281 917 q 575 993 467 993 q 778 955 685 993 q 939 850 871 917 q 1045 692 1007 783 q 1083 493 1083 600 q 1045 293 1083 385 q 939 134 1007 201 q 778 28 871 67 q 575 -10 685 -10 m 575 29 q 759 63 674 29 q 907 157 844 96 q 1006 302 969 218 q 1042 489 1042 386 q 1007 674 1042 589 q 910 822 972 760 q 762 919 847 885 q 575 954 676 954 q 390 919 475 954 q 242 823 304 885 q 145 676 181 761 q 110 492 110 592 q 144 308 110 393 q 242 162 179 224 q 390 65 304 100 q 575 29 475 29 m 585 172 q 468 194 525 172 q 367 258 411 217 q 295 360 322 300 q 268 493 268 419 q 287 608 268 550 q 343 712 306 665 q 439 788 381 758 q 576 817 497 817 q 732 779 663 817 q 831 668 801 742 l 764 646 q 726 701 749 679 q 676 734 703 722 q 624 750 650 746 q 576 754 597 754 q 471 731 515 754 q 397 669 426 707 q 353 585 368 632 q 339 493 339 539 q 362 383 339 431 q 420 302 385 335 q 498 252 456 269 q 581 235 540 235 q 637 242 607 235 q 694 265 667 250 q 742 301 721 279 q 775 349 764 322 l 842 329 q 812 278 833 306 q 757 228 790 251 q 680 188 724 204 q 585 172 636 172 z "},"ª":{"ha":599,"x_min":68,"x_max":515,"o":"m 233 483 q 168 495 199 483 q 115 527 138 507 q 81 575 93 547 q 68 635 68 603 q 126 741 68 700 q 275 782 183 782 q 354 776 315 782 q 424 757 393 769 l 424 800 q 387 899 424 863 q 283 936 350 936 q 124 879 210 936 l 100 922 q 288 986 197 986 q 438 935 383 986 q 492 792 492 885 l 492 579 q 515 551 492 553 l 515 492 q 497 490 504 490 q 482 490 489 490 q 433 538 438 494 l 432 574 q 345 506 397 529 q 233 483 293 483 m 250 536 q 342 553 299 536 q 407 600 385 571 q 424 638 424 618 l 424 714 q 357 733 392 728 q 286 738 322 738 q 175 710 217 738 q 133 639 133 683 q 167 565 133 594 q 250 536 200 536 z "},"«":{"ha":767,"x_min":57,"x_max":676,"o":"m 57 379 l 396 622 l 396 560 l 115 360 l 396 161 l 396 99 l 57 338 l 57 379 m 338 379 l 676 622 l 676 560 l 396 360 l 676 161 l 676 99 l 338 338 l 338 379 z "},"¬":{"ha":797,"x_min":108,"x_max":700,"o":"m 700 492 l 700 182 l 638 182 l 638 428 l 108 428 l 108 492 l 700 492 z "},"­":{"ha":776,"x_min":93,"x_max":683,"o":"m 93 346 l 93 410 l 683 410 l 683 346 l 93 346 z "},"®":{"ha":1151,"x_min":68,"x_max":1083,"o":"m 575 -10 q 374 28 467 -10 q 213 134 281 67 q 106 293 144 201 q 68 493 68 385 q 106 692 68 600 q 213 850 144 783 q 374 955 281 917 q 575 993 467 993 q 778 955 685 993 q 939 850 871 917 q 1045 692 1007 783 q 1083 493 1083 600 q 1045 293 1083 385 q 939 134 1007 201 q 778 28 871 67 q 575 -10 685 -10 m 575 29 q 759 63 674 29 q 907 157 844 96 q 1006 303 969 218 q 1042 493 1042 389 q 1007 676 1042 592 q 910 822 972 760 q 762 919 847 883 q 575 954 676 954 q 390 919 475 954 q 242 822 304 883 q 146 676 181 760 q 111 493 111 592 q 146 308 111 393 q 242 162 181 224 q 390 65 304 100 q 575 29 475 29 m 368 807 l 632 807 q 706 790 672 807 q 763 744 739 772 q 801 681 788 717 q 815 610 815 646 q 804 543 815 575 q 774 485 793 511 q 726 442 754 460 q 665 421 699 425 l 822 174 l 760 174 l 607 414 l 424 414 l 424 174 l 368 174 l 368 807 m 633 464 q 728 507 696 464 q 761 610 761 550 q 724 713 761 672 q 628 754 686 754 l 424 754 l 424 464 l 633 464 z "},"¯":{"ha":542,"x_min":74,"x_max":469,"o":"m 74 933 l 74 985 l 469 985 l 469 933 l 74 933 z "},"°":{"ha":363,"x_min":74,"x_max":289,"o":"m 74 899 q 105 974 74 943 q 181 1006 136 1006 q 258 974 226 1006 q 289 899 289 943 q 258 820 289 851 q 181 789 226 789 q 105 821 136 789 q 74 899 74 853 m 136 943 q 118 897 118 922 q 136 853 118 871 q 156 839 144 844 q 181 833 167 833 q 206 839 194 833 q 226 853 218 844 q 244 897 244 871 q 226 943 244 922 q 181 961 210 961 q 136 943 153 961 z "},"±":{"ha":650,"x_min":107,"x_max":543,"o":"m 107 97 l 107 157 l 543 157 l 543 97 l 107 97 m 543 531 l 543 471 l 357 471 l 357 271 l 293 271 l 293 471 l 107 471 l 107 531 l 293 531 l 293 731 l 357 731 l 357 531 l 543 531 z "},"²":{"ha":529,"x_min":51,"x_max":471,"o":"m 51 574 q 63 666 51 626 q 96 735 74 706 q 151 785 118 764 q 225 822 183 806 q 291 846 257 835 q 353 873 325 857 q 399 912 381 889 q 417 968 417 935 q 381 1046 417 1013 q 269 1079 344 1079 q 205 1071 233 1079 q 154 1051 176 1063 q 117 1025 132 1039 q 92 1000 101 1011 l 58 1033 q 78 1054 63 1039 q 120 1085 93 1069 q 186 1114 147 1101 q 276 1126 225 1126 q 362 1114 325 1126 q 423 1079 399 1101 q 459 1028 447 1057 q 471 967 471 1000 q 451 894 471 924 q 401 844 431 864 q 337 810 371 824 q 274 789 303 797 q 193 751 222 772 q 149 708 164 731 q 129 663 133 686 q 125 621 125 640 l 468 621 l 468 574 l 51 574 z "},"³":{"ha":536,"x_min":51,"x_max":481,"o":"m 264 565 q 118 600 176 565 q 51 693 60 635 l 83 722 q 99 683 85 703 q 138 649 114 664 q 194 624 161 633 q 264 615 226 615 q 329 623 299 615 q 382 644 360 631 q 417 678 404 658 q 431 721 431 697 q 374 801 431 772 q 224 831 318 831 l 192 831 l 192 875 l 224 875 q 362 899 313 875 q 411 972 411 924 q 399 1017 411 997 q 365 1051 386 1036 q 316 1073 344 1065 q 256 1081 288 1081 q 155 1059 197 1081 q 93 1001 113 1038 l 58 1038 q 136 1102 82 1078 q 256 1126 190 1126 q 338 1115 300 1126 q 404 1083 376 1103 q 448 1035 432 1063 q 464 975 464 1007 q 339 854 464 879 q 442 805 404 843 q 481 714 481 767 q 463 653 481 681 q 417 606 446 625 q 348 576 388 586 q 264 565 308 565 z "},"´":{"ha":296,"x_min":68,"x_max":233,"o":"m 117 874 l 68 896 l 153 1014 l 233 1014 l 117 874 z "},"µ":{"ha":851,"x_min":118,"x_max":750,"o":"m 118 722 l 188 722 l 188 315 q 371 49 188 49 q 460 65 417 49 q 540 109 503 81 q 606 178 578 138 q 651 267 635 218 l 651 722 l 721 722 l 721 97 q 750 63 721 63 l 750 0 q 738 -1 743 -1 q 729 -1 733 -1 q 678 17 699 -1 q 658 67 658 36 l 658 171 q 607 97 638 131 q 538 38 576 63 q 457 0 500 14 q 368 -14 414 -14 q 252 20 297 -14 q 185 114 207 54 l 185 -294 l 118 -294 l 118 722 z "},"¶":{"ha":817,"x_min":46,"x_max":751,"o":"m 46 657 q 149 899 46 813 q 438 986 251 986 l 751 986 l 751 929 l 654 929 l 654 -111 l 592 -111 l 592 329 l 481 329 l 481 -111 l 418 -111 l 418 329 q 263 353 332 331 q 146 419 194 376 q 72 521 97 461 q 46 657 46 581 m 108 658 q 133 539 108 589 q 201 456 158 489 q 299 407 243 424 q 418 388 356 390 l 418 929 q 188 856 267 928 q 108 658 108 785 m 592 929 l 481 929 l 481 388 l 592 388 l 592 929 z "},"·":{"ha":246,"x_min":93,"x_max":154,"o":"m 93 344 l 93 485 l 154 485 l 154 344 l 93 344 z "},"¸":{"ha":376,"x_min":32,"x_max":296,"o":"m 51 -174 q 103 -192 71 -183 q 172 -200 136 -200 q 253 -149 253 -200 q 234 -110 253 -121 q 185 -99 215 -99 q 124 -106 156 -99 q 72 -118 92 -112 l 150 21 l 188 4 l 140 -74 q 169 -67 153 -68 q 196 -65 185 -65 q 269 -86 243 -65 q 296 -147 296 -107 q 263 -215 296 -192 q 167 -237 229 -237 q 92 -230 126 -237 q 32 -211 58 -222 l 51 -174 z "},"¹":{"ha":367,"x_min":49,"x_max":338,"o":"m 338 621 l 338 572 l 68 572 l 68 621 l 182 621 l 182 1068 q 159 1048 175 1060 q 124 1026 143 1036 q 85 1008 106 1015 q 49 1001 65 1001 l 49 1050 q 94 1061 71 1050 q 136 1086 117 1072 q 168 1113 156 1100 q 182 1126 181 1125 l 232 1126 l 232 621 l 338 621 z "},"º":{"ha":624,"x_min":64,"x_max":560,"o":"m 311 483 q 212 503 257 483 q 133 558 167 524 q 82 638 100 593 q 64 733 64 683 q 83 831 64 785 q 134 911 101 876 q 212 966 167 946 q 311 986 257 986 q 410 966 365 986 q 489 911 456 946 q 541 831 522 876 q 560 733 560 785 q 541 638 560 683 q 490 558 522 593 q 411 503 457 524 q 311 483 365 483 m 125 732 q 140 656 125 692 q 179 592 154 619 q 238 550 204 565 q 311 535 272 535 q 384 551 350 535 q 444 594 418 567 q 484 657 469 621 q 499 735 499 693 q 484 813 499 776 q 444 875 469 849 q 384 917 418 901 q 311 932 350 932 q 240 917 274 932 q 180 874 206 901 q 140 810 154 847 q 125 732 125 774 z "},"»":{"ha":767,"x_min":90,"x_max":710,"o":"m 710 338 l 371 99 l 371 161 l 651 360 l 371 560 l 371 622 l 710 379 l 710 338 m 431 338 l 90 99 l 90 161 l 372 360 l 90 560 l 90 622 l 431 379 l 431 338 z "},"¼":{"ha":1104,"x_min":64,"x_max":1056,"o":"m 928 0 l 928 147 l 608 147 l 608 192 l 942 546 l 976 546 l 976 194 l 1056 194 l 1056 147 l 976 147 l 976 0 l 928 0 m 664 194 l 928 194 l 928 475 l 664 194 m 167 29 l 554 507 l 935 990 l 974 958 l 586 479 l 204 -4 l 167 29 m 353 510 l 353 461 l 83 461 l 83 510 l 197 510 l 197 957 q 174 937 190 949 q 140 915 158 925 q 101 897 121 904 q 64 890 81 890 l 64 939 q 109 950 86 939 q 151 975 132 961 q 183 1001 171 989 q 197 1015 196 1014 l 247 1015 l 247 510 l 353 510 z "},"½":{"ha":1164,"x_min":67,"x_max":1106,"o":"m 690 0 q 735 162 690 106 q 863 250 779 218 q 926 274 893 263 q 987 300 960 285 q 1031 338 1014 315 q 1049 394 1049 361 q 1015 470 1049 439 q 906 501 981 501 q 842 493 869 501 q 794 473 815 485 q 758 447 774 461 q 733 421 743 433 l 697 460 q 717 481 701 465 q 758 512 732 496 q 824 540 785 528 q 913 553 863 553 q 1056 506 1008 553 q 1104 393 1104 460 q 1085 321 1104 350 q 1036 272 1065 292 q 974 238 1007 251 q 911 217 940 225 q 832 183 861 201 q 788 142 803 164 q 768 96 772 119 q 764 47 764 72 l 1106 47 l 1106 0 l 690 0 m 124 29 l 511 507 l 892 990 l 931 958 l 543 479 l 161 -4 l 124 29 m 356 510 l 356 461 l 86 461 l 86 510 l 200 510 l 200 957 q 177 937 193 949 q 142 915 161 925 q 103 897 124 904 q 67 890 83 890 l 67 939 q 112 950 89 939 q 154 975 135 961 q 186 1001 174 989 q 200 1015 199 1014 l 250 1015 l 250 510 l 356 510 z "},"¾":{"ha":1125,"x_min":60,"x_max":1071,"o":"m 272 454 q 126 489 185 454 q 60 582 68 524 l 92 611 q 108 572 93 592 q 146 538 122 553 q 202 513 169 522 q 272 504 235 504 q 338 512 307 504 q 390 533 368 519 q 426 567 413 547 q 439 610 439 586 q 383 690 439 661 q 232 719 326 719 l 200 719 l 200 764 l 232 764 q 370 788 321 764 q 419 861 419 813 q 407 906 419 886 q 374 940 394 925 q 324 962 353 954 q 264 969 296 969 q 163 948 206 969 q 101 890 121 926 l 67 926 q 144 991 90 967 q 264 1015 199 1015 q 347 1003 308 1015 q 413 972 385 992 q 456 924 440 951 q 472 864 472 896 q 347 743 472 768 q 451 694 413 732 q 489 603 489 656 q 472 542 489 569 q 425 494 454 514 q 356 465 396 475 q 272 454 317 454 m 943 0 l 943 147 l 624 147 l 624 192 l 957 546 l 992 546 l 992 194 l 1071 194 l 1071 147 l 992 147 l 992 0 l 943 0 m 679 194 l 943 194 l 943 475 l 679 194 m 215 29 l 603 507 l 983 990 l 1022 958 l 635 479 l 253 -4 l 215 29 z "},"¿":{"ha":647,"x_min":47,"x_max":603,"o":"m 425 435 q 417 342 425 381 q 394 274 410 303 q 357 226 379 246 q 307 189 335 206 q 243 155 278 172 q 178 113 208 138 q 129 53 149 89 q 110 -37 110 17 q 127 -125 110 -87 q 173 -187 144 -162 q 238 -224 201 -212 q 314 -236 275 -236 q 457 -194 393 -236 q 553 -86 521 -153 l 603 -117 q 553 -193 583 -160 q 484 -249 522 -226 q 402 -284 446 -272 q 314 -296 358 -296 q 215 -279 263 -296 q 129 -230 167 -262 q 69 -148 92 -197 q 47 -33 47 -99 q 65 65 47 25 q 110 133 82 106 q 175 181 139 161 q 247 218 211 201 q 298 247 276 232 q 334 285 319 261 q 356 344 349 308 q 364 435 364 381 l 425 435 m 424 703 l 424 567 l 363 567 l 363 703 l 424 703 z "},"À":{"ha":938,"x_min":19,"x_max":917,"o":"m 439 986 l 500 986 l 917 0 l 842 0 l 704 325 l 233 325 l 96 0 l 19 0 l 439 986 m 685 383 l 469 900 l 250 383 l 685 383 m 353 1275 l 432 1275 l 518 1157 l 471 1135 l 353 1275 z "},"Á":{"ha":938,"x_min":19,"x_max":917,"o":"m 439 986 l 500 986 l 917 0 l 842 0 l 704 325 l 233 325 l 96 0 l 19 0 l 439 986 m 685 383 l 469 900 l 250 383 l 685 383 m 468 1133 l 419 1156 l 504 1274 l 585 1274 l 468 1133 z "},"Â":{"ha":938,"x_min":19,"x_max":917,"o":"m 439 986 l 500 986 l 917 0 l 842 0 l 704 325 l 233 325 l 96 0 l 19 0 l 439 986 m 685 383 l 469 900 l 250 383 l 685 383 m 310 1161 l 443 1274 l 494 1274 l 629 1161 l 588 1138 l 469 1225 l 351 1138 l 310 1161 z "},"ˆ":{"ha":444,"x_min":63,"x_max":382,"o":"m 63 901 l 196 1014 l 247 1014 l 382 901 l 340 878 l 222 965 l 104 878 l 63 901 z "},"Ã":{"ha":938,"x_min":19,"x_max":917,"o":"m 439 986 l 500 986 l 917 0 l 842 0 l 704 325 l 233 325 l 96 0 l 19 0 l 439 986 m 685 383 l 469 900 l 250 383 l 685 383 m 554 1158 q 500 1167 524 1158 q 457 1185 476 1175 q 419 1205 438 1196 q 379 1214 400 1214 q 342 1204 356 1214 q 321 1183 328 1194 q 311 1160 314 1171 q 308 1147 308 1150 l 261 1147 q 265 1172 261 1153 q 283 1210 269 1190 q 319 1247 296 1231 q 379 1263 342 1263 q 428 1253 407 1263 q 469 1234 450 1244 q 509 1215 489 1224 q 556 1207 529 1207 q 599 1217 583 1207 q 623 1238 615 1226 q 633 1260 631 1250 q 635 1274 635 1271 l 682 1274 q 677 1248 682 1267 q 659 1210 672 1229 q 621 1174 646 1190 q 554 1158 596 1158 z "},"˜":{"ha":551,"x_min":65,"x_max":486,"o":"m 358 899 q 304 907 328 899 q 261 926 281 915 q 223 945 242 936 q 183 954 204 954 q 146 944 160 954 q 125 923 132 935 q 115 901 118 911 q 113 888 113 890 l 65 888 q 69 912 65 893 q 87 951 74 931 q 123 987 100 971 q 183 1003 146 1003 q 233 994 211 1003 q 274 974 254 985 q 313 956 293 964 q 360 947 333 947 q 403 957 388 947 q 427 978 419 967 q 437 1001 435 990 q 439 1014 439 1011 l 486 1014 q 481 988 486 1007 q 463 950 476 969 q 425 915 450 931 q 358 899 400 899 z "},"Ä":{"ha":938,"x_min":19,"x_max":917,"o":"m 439 986 l 500 986 l 917 0 l 842 0 l 704 325 l 233 325 l 96 0 l 19 0 l 439 986 m 685 383 l 469 900 l 250 383 l 685 383 m 344 1150 l 344 1272 l 406 1272 l 406 1150 l 344 1150 m 533 1150 l 533 1272 l 594 1272 l 594 1150 l 533 1150 z "},"Å":{"ha":938,"x_min":19,"x_max":917,"o":"m 439 986 l 500 986 l 917 0 l 842 0 l 704 325 l 233 325 l 96 0 l 19 0 l 439 986 m 685 383 l 469 900 l 250 383 l 685 383 m 374 1188 q 401 1249 374 1225 q 468 1274 428 1274 q 535 1249 508 1274 q 563 1188 563 1225 q 535 1124 563 1149 q 468 1100 508 1100 q 401 1124 428 1100 q 374 1188 374 1149 m 468 1242 q 428 1227 444 1242 q 413 1188 413 1213 q 428 1148 413 1164 q 468 1132 444 1132 q 508 1148 490 1132 q 525 1188 525 1164 q 508 1227 525 1213 q 468 1242 492 1242 z "},"˚":{"ha":339,"x_min":75,"x_max":264,"o":"m 75 928 q 102 990 75 965 q 169 1014 129 1014 q 237 990 210 1014 q 264 928 264 965 q 237 865 264 889 q 169 840 210 840 q 102 865 129 840 q 75 928 75 889 m 169 982 q 130 967 146 982 q 114 928 114 953 q 130 888 114 904 q 169 872 146 872 q 209 888 192 872 q 226 928 226 904 q 210 967 226 953 q 169 982 193 982 z "},"Æ":{"ha":1336,"x_min":-37,"x_max":1274,"o":"m 603 986 l 1261 986 l 1261 922 l 692 922 l 692 536 l 1186 536 l 1186 471 l 692 471 l 692 64 l 1274 64 l 1274 0 l 622 0 l 622 325 l 251 325 l 42 0 l -37 0 l 603 986 m 618 389 l 618 897 l 285 389 l 618 389 z "},"Ç":{"ha":954,"x_min":56,"x_max":907,"o":"m 411 -174 q 463 -192 431 -183 q 532 -200 496 -200 q 613 -149 613 -200 q 594 -110 613 -121 q 544 -99 575 -99 q 483 -106 515 -99 q 432 -118 451 -112 l 493 -7 q 315 43 396 -3 q 177 160 235 89 q 88 319 119 231 q 56 500 56 408 q 87 677 56 589 q 178 835 118 765 q 324 948 238 904 q 522 992 411 992 q 747 931 654 992 q 886 776 840 871 l 828 743 q 766 829 801 794 q 690 885 731 864 q 604 917 649 907 q 517 926 560 926 q 350 888 422 926 q 228 789 278 850 q 152 651 178 728 q 126 496 126 574 q 157 329 126 408 q 240 190 188 250 q 365 93 293 129 q 521 57 438 57 q 613 68 565 57 q 703 103 660 79 q 783 163 746 126 q 846 250 821 200 l 907 221 q 844 127 883 168 q 755 57 804 86 q 650 12 706 28 q 540 -7 594 -4 l 500 -74 q 528 -67 513 -68 q 556 -65 544 -65 q 629 -86 603 -65 q 656 -147 656 -107 q 622 -215 656 -192 q 526 -237 589 -237 q 452 -230 486 -237 q 392 -211 418 -222 l 411 -174 z "},"È":{"ha":850,"x_min":129,"x_max":786,"o":"m 786 64 l 786 0 l 129 0 l 129 986 l 774 986 l 774 922 l 200 922 l 200 535 l 701 535 l 701 474 l 200 474 l 200 64 l 786 64 m 356 1275 l 435 1275 l 521 1157 l 474 1135 l 356 1275 z "},"É":{"ha":850,"x_min":129,"x_max":786,"o":"m 471 1133 l 422 1156 l 507 1274 l 588 1274 l 471 1133 m 786 64 l 786 0 l 129 0 l 129 986 l 774 986 l 774 922 l 200 922 l 200 535 l 701 535 l 701 474 l 200 474 l 200 64 l 786 64 z "},"Ê":{"ha":850,"x_min":129,"x_max":786,"o":"m 313 1161 l 446 1274 l 497 1274 l 632 1161 l 590 1138 l 472 1225 l 354 1138 l 313 1161 m 786 64 l 786 0 l 129 0 l 129 986 l 774 986 l 774 922 l 200 922 l 200 535 l 701 535 l 701 474 l 200 474 l 200 64 l 786 64 z "},"Ë":{"ha":850,"x_min":129,"x_max":786,"o":"m 346 1150 l 346 1272 l 407 1272 l 407 1150 l 346 1150 m 535 1150 l 535 1272 l 596 1272 l 596 1150 l 535 1150 m 786 64 l 786 0 l 129 0 l 129 986 l 774 986 l 774 922 l 200 922 l 200 535 l 701 535 l 701 474 l 200 474 l 200 64 l 786 64 z "},"Ì":{"ha":329,"x_min":47,"x_max":213,"o":"m 129 0 l 129 986 l 200 986 l 200 0 l 129 0 m 47 1275 l 126 1275 l 213 1157 l 165 1135 l 47 1275 z "},"Í":{"ha":329,"x_min":114,"x_max":279,"o":"m 129 0 l 129 986 l 200 986 l 200 0 l 129 0 m 163 1133 l 114 1156 l 199 1274 l 279 1274 l 163 1133 z "},"Î":{"ha":329,"x_min":4,"x_max":324,"o":"m 129 0 l 129 986 l 200 986 l 200 0 l 129 0 m 4 1161 l 138 1274 l 189 1274 l 324 1161 l 282 1138 l 164 1225 l 46 1138 l 4 1161 z "},"Ï":{"ha":329,"x_min":39,"x_max":289,"o":"m 129 0 l 129 986 l 200 986 l 200 0 l 129 0 m 39 1150 l 39 1272 l 100 1272 l 100 1150 l 39 1150 m 228 1150 l 228 1272 l 289 1272 l 289 1150 l 228 1150 z "},"Ð":{"ha":1000,"x_min":49,"x_max":935,"o":"m 139 0 l 139 467 l 49 467 l 49 525 l 139 525 l 139 986 l 467 986 q 672 947 583 986 q 818 842 760 908 q 906 685 876 775 q 935 494 935 596 q 902 291 935 382 q 808 135 869 200 q 660 35 747 71 q 467 0 574 0 l 139 0 m 864 494 q 838 666 864 588 q 760 801 811 744 q 636 890 710 858 q 467 922 563 922 l 210 922 l 210 525 l 457 525 l 457 467 l 210 467 l 210 64 l 467 64 q 638 97 564 64 q 763 188 713 129 q 838 324 813 246 q 864 494 864 403 z "},"Ñ":{"ha":1074,"x_min":129,"x_max":946,"o":"m 200 853 l 200 0 l 129 0 l 129 986 l 183 986 l 875 118 l 875 986 l 946 986 l 946 0 l 881 0 l 200 853 m 628 1158 q 574 1167 597 1158 q 531 1185 550 1175 q 492 1205 511 1196 q 453 1214 474 1214 q 415 1204 429 1214 q 394 1183 401 1194 q 385 1160 388 1171 q 382 1147 382 1150 l 335 1147 q 339 1172 335 1153 q 356 1210 343 1190 q 392 1247 369 1231 q 453 1263 415 1263 q 502 1253 481 1263 q 543 1234 524 1244 q 583 1215 563 1224 q 629 1207 603 1207 q 673 1217 657 1207 q 697 1238 689 1226 q 706 1260 704 1250 q 708 1274 708 1271 l 756 1274 q 751 1248 756 1267 q 733 1210 746 1229 q 694 1174 719 1190 q 628 1158 669 1158 z "},"Ò":{"ha":1046,"x_min":61,"x_max":985,"o":"m 522 -7 q 335 36 419 -7 q 189 149 250 79 q 94 308 128 218 q 61 493 61 399 q 97 682 61 592 q 194 842 132 772 q 340 952 256 911 q 524 993 425 993 q 712 949 626 993 q 858 835 797 906 q 951 674 918 764 q 985 493 985 585 q 949 303 985 393 q 852 144 914 213 q 706 34 790 75 q 522 -7 621 -7 m 132 493 q 160 330 132 408 q 241 191 189 251 q 365 94 293 131 q 524 58 438 58 q 684 96 613 58 q 806 195 756 133 q 885 335 857 257 q 913 493 913 413 q 883 656 913 578 q 802 795 854 735 q 679 892 750 856 q 524 928 608 928 q 363 890 435 928 q 239 791 290 853 q 160 651 188 729 q 132 493 132 574 m 407 1275 l 486 1275 l 572 1157 l 525 1135 l 407 1275 z "},"Ó":{"ha":1046,"x_min":61,"x_max":985,"o":"m 522 1133 l 474 1156 l 558 1274 l 639 1274 l 522 1133 m 522 -7 q 335 36 419 -7 q 189 149 250 79 q 94 308 128 218 q 61 493 61 399 q 97 682 61 592 q 194 842 132 772 q 340 952 256 911 q 524 993 425 993 q 712 949 626 993 q 858 835 797 906 q 951 674 918 764 q 985 493 985 585 q 949 303 985 393 q 852 144 914 213 q 706 34 790 75 q 522 -7 621 -7 m 132 493 q 160 330 132 408 q 241 191 189 251 q 365 94 293 131 q 524 58 438 58 q 684 96 613 58 q 806 195 756 133 q 885 335 857 257 q 913 493 913 413 q 883 656 913 578 q 802 795 854 735 q 679 892 750 856 q 524 928 608 928 q 363 890 435 928 q 239 791 290 853 q 160 651 188 729 q 132 493 132 574 z "},"Ô":{"ha":1046,"x_min":61,"x_max":985,"o":"m 364 1161 l 497 1274 l 549 1274 l 683 1161 l 642 1138 l 524 1225 l 406 1138 l 364 1161 m 522 -7 q 335 36 419 -7 q 189 149 250 79 q 94 308 128 218 q 61 493 61 399 q 97 682 61 592 q 194 842 132 772 q 340 952 256 911 q 524 993 425 993 q 712 949 626 993 q 858 835 797 906 q 951 674 918 764 q 985 493 985 585 q 949 303 985 393 q 852 144 914 213 q 706 34 790 75 q 522 -7 621 -7 m 132 493 q 160 330 132 408 q 241 191 189 251 q 365 94 293 131 q 524 58 438 58 q 684 96 613 58 q 806 195 756 133 q 885 335 857 257 q 913 493 913 413 q 883 656 913 578 q 802 795 854 735 q 679 892 750 856 q 524 928 608 928 q 363 890 435 928 q 239 791 290 853 q 160 651 188 729 q 132 493 132 574 z "},"Õ":{"ha":1046,"x_min":61,"x_max":985,"o":"m 522 -7 q 335 36 419 -7 q 189 149 250 79 q 94 308 128 218 q 61 493 61 399 q 97 682 61 592 q 194 842 132 772 q 340 952 256 911 q 524 993 425 993 q 712 949 626 993 q 858 835 797 906 q 951 674 918 764 q 985 493 985 585 q 949 303 985 393 q 852 144 914 213 q 706 34 790 75 q 522 -7 621 -7 m 132 493 q 160 330 132 408 q 241 191 189 251 q 365 94 293 131 q 524 58 438 58 q 684 96 613 58 q 806 195 756 133 q 885 335 857 257 q 913 493 913 413 q 883 656 913 578 q 802 795 854 735 q 679 892 750 856 q 524 928 608 928 q 363 890 435 928 q 239 791 290 853 q 160 651 188 729 q 132 493 132 574 m 608 1158 q 554 1167 578 1158 q 511 1185 531 1175 q 473 1205 492 1196 q 433 1214 454 1214 q 396 1204 410 1214 q 375 1183 382 1194 q 365 1160 368 1171 q 363 1147 363 1150 l 315 1147 q 319 1172 315 1153 q 337 1210 324 1190 q 373 1247 350 1231 q 433 1263 396 1263 q 483 1253 461 1263 q 524 1234 504 1244 q 563 1215 543 1224 q 610 1207 583 1207 q 653 1217 638 1207 q 677 1238 669 1226 q 687 1260 685 1250 q 689 1274 689 1271 l 736 1274 q 731 1248 736 1267 q 713 1210 726 1229 q 675 1174 700 1190 q 608 1158 650 1158 z "},"Ö":{"ha":1046,"x_min":61,"x_max":985,"o":"m 399 1150 l 399 1272 l 460 1272 l 460 1150 l 399 1150 m 588 1150 l 588 1272 l 649 1272 l 649 1150 l 588 1150 m 522 -7 q 335 36 419 -7 q 189 149 250 79 q 94 308 128 218 q 61 493 61 399 q 97 682 61 592 q 194 842 132 772 q 340 952 256 911 q 524 993 425 993 q 712 949 626 993 q 858 835 797 906 q 951 674 918 764 q 985 493 985 585 q 949 303 985 393 q 852 144 914 213 q 706 34 790 75 q 522 -7 621 -7 m 132 493 q 160 330 132 408 q 241 191 189 251 q 365 94 293 131 q 524 58 438 58 q 684 96 613 58 q 806 195 756 133 q 885 335 857 257 q 913 493 913 413 q 883 656 913 578 q 802 795 854 735 q 679 892 750 856 q 524 928 608 928 q 363 890 435 928 q 239 791 290 853 q 160 651 188 729 q 132 493 132 574 z "},"×":{"ha":626,"x_min":93,"x_max":535,"o":"m 535 201 l 489 157 l 313 332 l 138 157 l 93 203 l 267 376 l 93 553 l 139 597 l 313 422 l 489 599 l 533 553 l 358 376 l 535 201 z "},"Ø":{"ha":1046,"x_min":61,"x_max":985,"o":"m 888 986 l 815 878 q 940 702 896 804 q 985 493 985 600 q 949 303 985 393 q 852 144 914 213 q 706 34 790 75 q 522 -7 621 -7 q 393 13 454 -7 q 282 67 332 32 l 239 0 l 160 0 l 229 107 q 106 281 150 179 q 61 493 61 382 q 97 682 61 592 q 194 842 132 772 q 340 952 256 911 q 524 993 425 993 q 651 974 592 993 q 763 919 711 954 l 807 986 l 888 986 m 132 493 q 167 312 132 397 q 267 164 203 226 l 726 864 q 631 911 682 894 q 524 928 581 928 q 363 890 435 928 q 239 791 290 853 q 160 651 188 729 q 132 493 132 574 m 913 493 q 876 673 913 588 q 778 821 840 758 l 318 121 q 414 75 363 92 q 524 58 465 58 q 684 96 613 58 q 806 195 756 133 q 885 335 857 257 q 913 493 913 413 z "},"Ù":{"ha":1050,"x_min":114,"x_max":936,"o":"m 525 58 q 691 96 625 58 q 795 194 757 133 q 849 333 833 256 q 865 490 865 411 l 865 986 l 936 986 l 936 490 q 915 301 936 392 q 844 142 893 211 q 718 33 796 74 q 526 -7 640 -7 q 329 35 408 -7 q 202 148 250 78 q 134 307 154 218 q 114 490 114 396 l 114 986 l 185 986 l 185 490 q 201 331 185 408 q 256 192 217 253 q 361 95 296 132 q 525 58 426 58 m 410 1275 l 489 1275 l 575 1157 l 528 1135 l 410 1275 z "},"Ú":{"ha":1050,"x_min":114,"x_max":936,"o":"m 525 1133 l 476 1156 l 561 1274 l 642 1274 l 525 1133 m 525 58 q 691 96 625 58 q 795 194 757 133 q 849 333 833 256 q 865 490 865 411 l 865 986 l 936 986 l 936 490 q 915 301 936 392 q 844 142 893 211 q 718 33 796 74 q 526 -7 640 -7 q 329 35 408 -7 q 202 148 250 78 q 134 307 154 218 q 114 490 114 396 l 114 986 l 185 986 l 185 490 q 201 331 185 408 q 256 192 217 253 q 361 95 296 132 q 525 58 426 58 z "},"Û":{"ha":1050,"x_min":114,"x_max":936,"o":"m 367 1161 l 500 1274 l 551 1274 l 686 1161 l 644 1138 l 526 1225 l 408 1138 l 367 1161 m 525 58 q 691 96 625 58 q 795 194 757 133 q 849 333 833 256 q 865 490 865 411 l 865 986 l 936 986 l 936 490 q 915 301 936 392 q 844 142 893 211 q 718 33 796 74 q 526 -7 640 -7 q 329 35 408 -7 q 202 148 250 78 q 134 307 154 218 q 114 490 114 396 l 114 986 l 185 986 l 185 490 q 201 331 185 408 q 256 192 217 253 q 361 95 296 132 q 525 58 426 58 z "},"Ü":{"ha":1050,"x_min":114,"x_max":936,"o":"m 400 1150 l 400 1272 l 461 1272 l 461 1150 l 400 1150 m 589 1150 l 589 1272 l 650 1272 l 650 1150 l 589 1150 m 525 58 q 691 96 625 58 q 795 194 757 133 q 849 333 833 256 q 865 490 865 411 l 865 986 l 936 986 l 936 490 q 915 301 936 392 q 844 142 893 211 q 718 33 796 74 q 526 -7 640 -7 q 329 35 408 -7 q 202 148 250 78 q 134 307 154 218 q 114 490 114 396 l 114 986 l 185 986 l 185 490 q 201 331 185 408 q 256 192 217 253 q 361 95 296 132 q 525 58 426 58 z "},"Ý":{"ha":899,"x_min":26,"x_max":874,"o":"m 104 986 l 449 440 l 794 986 l 874 986 l 485 372 l 485 0 l 414 0 l 414 375 l 26 986 l 104 986 m 447 1133 l 399 1156 l 483 1274 l 564 1274 l 447 1133 z "},"Þ":{"ha":835,"x_min":129,"x_max":794,"o":"m 508 786 q 624 760 571 786 q 714 690 676 733 q 773 591 751 646 q 794 479 794 536 q 774 364 794 419 q 718 266 754 308 q 631 198 682 224 q 517 172 579 172 l 200 172 l 200 0 l 129 0 l 129 986 l 200 986 l 200 786 l 508 786 m 515 238 q 603 258 564 238 q 669 313 642 279 q 710 390 696 347 q 725 479 725 433 q 708 570 725 526 q 660 647 690 614 q 591 701 631 681 q 506 721 551 721 l 200 721 l 200 238 l 515 238 z "},"ß":{"ha":763,"x_min":108,"x_max":706,"o":"m 326 56 q 552 117 469 58 q 635 289 635 175 q 616 385 635 342 q 564 459 597 428 q 484 507 531 490 q 382 524 438 524 l 358 524 l 358 589 l 381 589 q 455 601 421 589 q 514 637 489 614 q 553 691 539 660 q 567 760 567 722 q 552 830 567 799 q 511 883 538 861 q 450 917 485 906 q 376 929 415 929 q 291 912 328 929 q 228 865 254 894 q 190 793 203 835 q 176 703 176 751 l 176 0 l 108 0 l 108 713 q 128 826 108 775 q 184 915 149 878 q 269 972 219 951 q 378 992 319 992 q 479 975 432 992 q 560 929 526 958 q 614 859 594 900 q 633 771 633 818 q 622 699 633 733 q 589 635 610 664 q 540 587 568 607 q 479 560 511 567 q 647 463 588 536 q 706 285 706 390 q 604 72 706 147 q 326 -8 503 -3 l 326 56 z "},"à":{"ha":746,"x_min":49,"x_max":674,"o":"m 286 -14 q 193 3 236 -14 q 117 51 150 21 q 67 122 85 81 q 49 210 49 163 q 71 296 49 257 q 133 363 93 335 q 228 408 172 392 q 350 424 283 424 q 467 413 408 424 q 574 385 526 403 l 574 456 q 515 619 574 558 q 357 679 457 679 q 245 657 304 679 q 125 593 186 635 l 99 640 q 363 735 238 735 q 568 659 493 735 q 643 450 643 583 l 643 97 q 674 63 643 63 l 674 0 q 659 -2 667 -1 q 646 -3 651 -3 q 601 16 618 -3 q 582 61 585 35 l 582 121 q 454 21 532 56 q 286 -14 376 -14 m 300 42 q 448 72 381 42 q 551 153 515 103 q 574 208 574 182 l 574 336 q 469 365 524 356 q 357 375 415 375 q 258 363 303 375 q 182 331 214 351 q 133 280 150 310 q 115 214 115 250 q 129 146 115 178 q 168 91 143 114 q 227 55 193 68 q 300 42 261 42 m 246 1014 l 325 1014 l 411 896 l 364 874 l 246 1014 z "},"á":{"ha":746,"x_min":49,"x_max":674,"o":"m 286 -14 q 193 3 236 -14 q 117 51 150 21 q 67 122 85 81 q 49 210 49 163 q 71 296 49 257 q 133 363 93 335 q 228 408 172 392 q 350 424 283 424 q 467 413 408 424 q 574 385 526 403 l 574 456 q 515 619 574 558 q 357 679 457 679 q 245 657 304 679 q 125 593 186 635 l 99 640 q 363 735 238 735 q 568 659 493 735 q 643 450 643 583 l 643 97 q 674 63 643 63 l 674 0 q 659 -2 667 -1 q 646 -3 651 -3 q 601 16 618 -3 q 582 61 585 35 l 582 121 q 454 21 532 56 q 286 -14 376 -14 m 300 42 q 448 72 381 42 q 551 153 515 103 q 574 208 574 182 l 574 336 q 469 365 524 356 q 357 375 415 375 q 258 363 303 375 q 182 331 214 351 q 133 280 150 310 q 115 214 115 250 q 129 146 115 178 q 168 91 143 114 q 227 55 193 68 q 300 42 261 42 m 361 874 l 313 896 l 397 1014 l 478 1014 l 361 874 z "},"â":{"ha":746,"x_min":49,"x_max":674,"o":"m 286 -14 q 193 3 236 -14 q 117 51 150 21 q 67 122 85 81 q 49 210 49 163 q 71 296 49 257 q 133 363 93 335 q 228 408 172 392 q 350 424 283 424 q 467 413 408 424 q 574 385 526 403 l 574 456 q 515 619 574 558 q 357 679 457 679 q 245 657 304 679 q 125 593 186 635 l 99 640 q 363 735 238 735 q 568 659 493 735 q 643 450 643 583 l 643 97 q 674 63 643 63 l 674 0 q 659 -2 667 -1 q 646 -3 651 -3 q 601 16 618 -3 q 582 61 585 35 l 582 121 q 454 21 532 56 q 286 -14 376 -14 m 300 42 q 448 72 381 42 q 551 153 515 103 q 574 208 574 182 l 574 336 q 469 365 524 356 q 357 375 415 375 q 258 363 303 375 q 182 331 214 351 q 133 280 150 310 q 115 214 115 250 q 129 146 115 178 q 168 91 143 114 q 227 55 193 68 q 300 42 261 42 m 203 901 l 336 1014 l 388 1014 l 522 901 l 481 878 l 363 965 l 244 878 l 203 901 z "},"ã":{"ha":746,"x_min":49,"x_max":674,"o":"m 286 -14 q 193 3 236 -14 q 117 51 150 21 q 67 122 85 81 q 49 210 49 163 q 71 296 49 257 q 133 363 93 335 q 228 408 172 392 q 350 424 283 424 q 467 413 408 424 q 574 385 526 403 l 574 456 q 515 619 574 558 q 357 679 457 679 q 245 657 304 679 q 125 593 186 635 l 99 640 q 363 735 238 735 q 568 659 493 735 q 643 450 643 583 l 643 97 q 674 63 643 63 l 674 0 q 659 -2 667 -1 q 646 -3 651 -3 q 601 16 618 -3 q 582 61 585 35 l 582 121 q 454 21 532 56 q 286 -14 376 -14 m 300 42 q 448 72 381 42 q 551 153 515 103 q 574 208 574 182 l 574 336 q 469 365 524 356 q 357 375 415 375 q 258 363 303 375 q 182 331 214 351 q 133 280 150 310 q 115 214 115 250 q 129 146 115 178 q 168 91 143 114 q 227 55 193 68 q 300 42 261 42 m 447 899 q 393 907 417 899 q 350 926 369 915 q 312 945 331 936 q 272 954 293 954 q 235 944 249 954 q 214 923 221 935 q 204 901 207 911 q 201 888 201 890 l 154 888 q 158 912 154 893 q 176 951 163 931 q 212 987 189 971 q 272 1003 235 1003 q 322 994 300 1003 q 363 974 343 985 q 402 956 382 964 q 449 947 422 947 q 492 957 476 947 q 516 978 508 967 q 526 1001 524 990 q 528 1014 528 1011 l 575 1014 q 570 988 575 1007 q 552 950 565 969 q 514 915 539 931 q 447 899 489 899 z "},"ä":{"ha":746,"x_min":49,"x_max":674,"o":"m 286 -14 q 193 3 236 -14 q 117 51 150 21 q 67 122 85 81 q 49 210 49 163 q 71 296 49 257 q 133 363 93 335 q 228 408 172 392 q 350 424 283 424 q 467 413 408 424 q 574 385 526 403 l 574 456 q 515 619 574 558 q 357 679 457 679 q 245 657 304 679 q 125 593 186 635 l 99 640 q 363 735 238 735 q 568 659 493 735 q 643 450 643 583 l 643 97 q 674 63 643 63 l 674 0 q 659 -2 667 -1 q 646 -3 651 -3 q 601 16 618 -3 q 582 61 585 35 l 582 121 q 454 21 532 56 q 286 -14 376 -14 m 300 42 q 448 72 381 42 q 551 153 515 103 q 574 208 574 182 l 574 336 q 469 365 524 356 q 357 375 415 375 q 258 363 303 375 q 182 331 214 351 q 133 280 150 310 q 115 214 115 250 q 129 146 115 178 q 168 91 143 114 q 227 55 193 68 q 300 42 261 42 m 238 889 l 238 1011 l 299 1011 l 299 889 l 238 889 m 426 889 l 426 1011 l 488 1011 l 488 889 l 426 889 z "},"å":{"ha":746,"x_min":49,"x_max":674,"o":"m 286 -14 q 193 3 236 -14 q 117 51 150 21 q 67 122 85 81 q 49 210 49 163 q 71 296 49 257 q 133 363 93 335 q 228 408 172 392 q 350 424 283 424 q 467 413 408 424 q 574 385 526 403 l 574 456 q 515 619 574 558 q 357 679 457 679 q 245 657 304 679 q 125 593 186 635 l 99 640 q 363 735 238 735 q 568 659 493 735 q 643 450 643 583 l 643 97 q 674 63 643 63 l 674 0 q 659 -2 667 -1 q 646 -3 651 -3 q 601 16 618 -3 q 582 61 585 35 l 582 121 q 454 21 532 56 q 286 -14 376 -14 m 300 42 q 448 72 381 42 q 551 153 515 103 q 574 208 574 182 l 574 336 q 469 365 524 356 q 357 375 415 375 q 258 363 303 375 q 182 331 214 351 q 133 280 150 310 q 115 214 115 250 q 129 146 115 178 q 168 91 143 114 q 227 55 193 68 q 300 42 261 42 m 267 928 q 294 990 267 965 q 361 1014 321 1014 q 428 990 401 1014 q 456 928 456 965 q 428 865 456 889 q 361 840 401 840 q 294 865 321 840 q 267 928 267 889 m 361 982 q 322 967 338 982 q 306 928 306 953 q 322 888 306 904 q 361 872 338 872 q 401 888 383 872 q 418 928 418 904 q 401 967 418 953 q 361 982 385 982 z "},"æ":{"ha":1292,"x_min":49,"x_max":1249,"o":"m 286 -14 q 193 3 236 -14 q 117 51 150 21 q 67 122 85 81 q 49 210 49 163 q 71 296 49 257 q 133 363 93 335 q 227 408 172 392 q 349 424 282 424 q 447 416 397 424 q 540 396 497 408 q 549 455 543 425 q 567 513 556 485 q 497 635 551 590 q 357 679 442 679 q 245 657 304 679 q 125 593 186 635 l 97 640 q 363 735 238 735 q 517 694 454 735 q 611 581 581 654 q 729 692 656 650 q 892 735 803 735 q 1033 706 968 735 q 1147 625 1099 676 q 1222 506 1194 574 q 1249 361 1249 438 q 1248 347 1249 357 q 1247 333 1247 336 l 607 333 q 636 217 611 271 q 701 125 661 164 q 792 64 740 86 q 900 42 843 42 q 974 52 938 42 q 1042 81 1011 63 q 1098 124 1074 99 q 1136 181 1122 150 l 1197 164 q 1151 92 1181 125 q 1081 36 1121 60 q 994 -1 1042 13 q 897 -14 947 -14 q 728 31 804 -14 q 603 149 651 75 q 544 75 581 106 q 465 24 508 44 q 376 -5 422 4 q 286 -14 329 -14 m 300 42 q 449 72 381 42 q 551 153 517 101 q 574 201 572 179 q 550 272 558 233 q 540 347 542 311 q 357 375 453 375 q 182 331 249 375 q 115 214 115 286 q 129 146 115 178 q 168 91 143 114 q 227 55 193 68 q 300 42 261 42 m 1181 385 q 1153 503 1176 449 q 1090 596 1129 557 q 1001 656 1051 635 q 892 678 950 678 q 783 656 833 678 q 694 594 732 633 q 633 502 656 556 q 607 385 610 449 l 1181 385 z "},"ç":{"ha":757,"x_min":58,"x_max":708,"o":"m 308 -174 q 360 -192 328 -183 q 429 -200 393 -200 q 510 -149 510 -200 q 491 -110 510 -121 q 442 -99 472 -99 q 381 -106 413 -99 q 329 -118 349 -112 l 388 -12 q 256 24 317 -7 q 152 107 196 56 q 83 224 108 158 q 58 364 58 290 q 85 508 58 440 q 158 626 111 576 q 271 706 206 676 q 414 735 336 735 q 588 690 513 735 q 700 567 663 646 l 632 544 q 541 638 600 604 q 411 672 482 672 q 300 649 351 672 q 210 583 249 625 q 150 485 172 542 q 128 364 128 429 q 151 241 128 299 q 212 141 174 183 q 302 74 250 99 q 413 49 354 49 q 487 60 450 49 q 555 89 524 71 q 609 131 586 107 q 640 182 632 156 l 708 163 q 668 95 694 126 q 606 41 642 64 q 525 3 569 18 q 433 -12 481 -11 l 397 -74 q 426 -67 410 -68 q 453 -65 442 -65 q 526 -86 500 -65 q 553 -147 553 -107 q 519 -215 553 -192 q 424 -237 486 -237 q 349 -230 383 -237 q 289 -211 315 -222 l 308 -174 z "},"è":{"ha":810,"x_min":58,"x_max":765,"o":"m 415 -14 q 274 16 339 -14 q 160 98 208 46 q 85 218 113 150 q 58 364 58 286 q 85 508 58 440 q 160 626 113 575 q 272 706 207 676 q 411 735 336 735 q 553 705 488 735 q 665 624 618 675 q 739 506 713 574 q 765 364 765 439 q 765 347 765 357 q 764 333 765 336 l 131 333 q 160 217 135 271 q 223 125 185 164 q 311 64 261 86 q 418 42 361 42 q 492 52 456 42 q 559 81 528 63 q 615 124 590 99 q 653 181 639 150 l 714 164 q 669 92 699 125 q 599 36 639 60 q 513 -1 560 13 q 415 -14 465 -14 m 699 389 q 670 506 694 453 q 608 597 646 558 q 519 656 569 635 q 413 678 469 678 q 306 656 356 678 q 217 597 256 635 q 156 505 179 558 q 129 389 133 451 l 699 389 m 293 1014 l 372 1014 l 458 896 l 411 874 l 293 1014 z "},"é":{"ha":810,"x_min":58,"x_max":765,"o":"m 408 874 l 360 896 l 444 1014 l 525 1014 l 408 874 m 415 -14 q 274 16 339 -14 q 160 98 208 46 q 85 218 113 150 q 58 364 58 286 q 85 508 58 440 q 160 626 113 575 q 272 706 207 676 q 411 735 336 735 q 553 705 488 735 q 665 624 618 675 q 739 506 713 574 q 765 364 765 439 q 765 347 765 357 q 764 333 765 336 l 131 333 q 160 217 135 271 q 223 125 185 164 q 311 64 261 86 q 418 42 361 42 q 492 52 456 42 q 559 81 528 63 q 615 124 590 99 q 653 181 639 150 l 714 164 q 669 92 699 125 q 599 36 639 60 q 513 -1 560 13 q 415 -14 465 -14 m 699 389 q 670 506 694 453 q 608 597 646 558 q 519 656 569 635 q 413 678 469 678 q 306 656 356 678 q 217 597 256 635 q 156 505 179 558 q 129 389 133 451 l 699 389 z "},"ê":{"ha":810,"x_min":58,"x_max":765,"o":"m 250 901 l 383 1014 l 435 1014 l 569 901 l 528 878 l 410 965 l 292 878 l 250 901 m 415 -14 q 274 16 339 -14 q 160 98 208 46 q 85 218 113 150 q 58 364 58 286 q 85 508 58 440 q 160 626 113 575 q 272 706 207 676 q 411 735 336 735 q 553 705 488 735 q 665 624 618 675 q 739 506 713 574 q 765 364 765 439 q 765 347 765 357 q 764 333 765 336 l 131 333 q 160 217 135 271 q 223 125 185 164 q 311 64 261 86 q 418 42 361 42 q 492 52 456 42 q 559 81 528 63 q 615 124 590 99 q 653 181 639 150 l 714 164 q 669 92 699 125 q 599 36 639 60 q 513 -1 560 13 q 415 -14 465 -14 m 699 389 q 670 506 694 453 q 608 597 646 558 q 519 656 569 635 q 413 678 469 678 q 306 656 356 678 q 217 597 256 635 q 156 505 179 558 q 129 389 133 451 l 699 389 z "},"ë":{"ha":810,"x_min":58,"x_max":765,"o":"m 285 889 l 285 1011 l 346 1011 l 346 889 l 285 889 m 474 889 l 474 1011 l 535 1011 l 535 889 l 474 889 m 415 -14 q 274 16 339 -14 q 160 98 208 46 q 85 218 113 150 q 58 364 58 286 q 85 508 58 440 q 160 626 113 575 q 272 706 207 676 q 411 735 336 735 q 553 705 488 735 q 665 624 618 675 q 739 506 713 574 q 765 364 765 439 q 765 347 765 357 q 764 333 765 336 l 131 333 q 160 217 135 271 q 223 125 185 164 q 311 64 261 86 q 418 42 361 42 q 492 52 456 42 q 559 81 528 63 q 615 124 590 99 q 653 181 639 150 l 714 164 q 669 92 699 125 q 599 36 639 60 q 513 -1 560 13 q 415 -14 465 -14 m 699 389 q 670 506 694 453 q 608 597 646 558 q 519 656 569 635 q 413 678 469 678 q 306 656 356 678 q 217 597 256 635 q 156 505 179 558 q 129 389 133 451 l 699 389 z "},"ì":{"ha":288,"x_min":26,"x_max":192,"o":"m 108 0 l 108 722 l 178 722 l 178 0 l 108 0 m 26 1014 l 106 1014 l 192 896 l 144 874 l 26 1014 z "},"ı":{"ha":288,"x_min":108,"x_max":178,"o":"m 108 0 l 108 722 l 178 722 l 178 0 l 108 0 z "},"í":{"ha":288,"x_min":93,"x_max":258,"o":"m 142 874 l 93 896 l 178 1014 l 258 1014 l 142 874 m 108 0 l 108 722 l 178 722 l 178 0 l 108 0 z "},"î":{"ha":288,"x_min":-17,"x_max":303,"o":"m -17 901 l 117 1014 l 168 1014 l 303 901 l 261 878 l 143 965 l 25 878 l -17 901 m 108 0 l 108 722 l 178 722 l 178 0 l 108 0 z "},"ï":{"ha":288,"x_min":18,"x_max":268,"o":"m 18 889 l 18 1011 l 79 1011 l 79 889 l 18 889 m 207 889 l 207 1011 l 268 1011 l 268 889 l 207 889 m 108 0 l 108 722 l 178 722 l 178 0 l 108 0 z "},"ð":{"ha":832,"x_min":61,"x_max":768,"o":"m 675 957 l 556 882 q 661 756 619 821 q 726 627 703 692 q 759 497 750 563 q 768 368 768 432 q 740 215 768 285 q 663 94 711 146 q 549 15 614 43 q 411 -14 483 -14 q 275 13 339 -14 q 164 85 211 39 q 89 192 117 131 q 61 322 61 253 q 88 451 61 390 q 162 558 115 513 q 270 631 208 604 q 403 658 332 658 q 581 610 501 658 q 697 482 660 561 q 643 667 685 574 q 503 853 601 760 l 342 750 l 317 785 l 472 881 q 385 947 432 914 q 279 1014 338 981 l 378 1014 q 456 963 419 989 q 525 910 493 938 l 651 990 l 675 957 m 132 321 q 154 215 132 264 q 214 128 176 165 q 303 70 251 92 q 413 49 354 49 q 523 72 471 49 q 614 134 575 94 q 675 226 653 174 q 697 338 697 279 q 675 439 697 392 q 614 522 653 486 q 524 578 575 557 q 415 599 474 599 q 306 576 357 599 q 215 517 254 554 q 154 428 176 479 q 132 321 132 378 z "},"ñ":{"ha":800,"x_min":108,"x_max":699,"o":"m 699 0 l 629 0 l 629 403 q 590 607 629 543 q 464 671 550 671 q 373 654 418 671 q 289 607 328 638 q 221 535 250 576 q 178 447 192 494 l 178 0 l 108 0 l 108 722 l 174 722 l 174 550 q 228 626 196 592 q 302 684 261 660 q 389 722 343 708 q 483 735 435 735 q 650 652 601 735 q 699 415 699 569 l 699 0 m 488 899 q 433 907 457 899 q 390 926 410 915 q 352 945 371 936 q 313 954 333 954 q 275 944 289 954 q 254 923 261 935 q 244 901 247 911 q 242 888 242 890 l 194 888 q 199 912 194 893 q 216 951 203 931 q 252 987 229 971 q 313 1003 275 1003 q 362 994 340 1003 q 403 974 383 985 q 442 956 422 964 q 489 947 463 947 q 533 957 517 947 q 556 978 549 967 q 566 1001 564 990 q 568 1014 568 1011 l 615 1014 q 610 988 615 1007 q 592 950 606 969 q 554 915 579 931 q 488 899 529 899 z "},"ò":{"ha":822,"x_min":58,"x_max":764,"o":"m 411 -14 q 270 16 335 -14 q 158 97 206 46 q 85 217 111 149 q 58 360 58 285 q 85 504 58 436 q 160 624 113 572 q 272 705 207 675 q 411 735 336 735 q 550 705 486 735 q 662 624 614 675 q 737 504 710 572 q 764 360 764 436 q 737 217 764 285 q 663 97 710 149 q 551 16 615 46 q 411 -14 486 -14 m 128 357 q 150 237 128 293 q 210 139 172 181 q 300 73 249 97 q 410 49 351 49 q 519 73 468 49 q 610 140 571 97 q 671 240 649 183 q 693 361 693 296 q 671 481 693 425 q 610 580 649 538 q 520 647 571 622 q 411 672 469 672 q 301 647 353 672 q 212 579 250 622 q 151 478 174 536 q 128 357 128 421 m 294 1014 l 374 1014 l 460 896 l 413 874 l 294 1014 z "},"ó":{"ha":822,"x_min":58,"x_max":764,"o":"m 410 874 l 361 896 l 446 1014 l 526 1014 l 410 874 m 411 -14 q 270 16 335 -14 q 158 97 206 46 q 85 217 111 149 q 58 360 58 285 q 85 504 58 436 q 160 624 113 572 q 272 705 207 675 q 411 735 336 735 q 550 705 486 735 q 662 624 614 675 q 737 504 710 572 q 764 360 764 436 q 737 217 764 285 q 663 97 710 149 q 551 16 615 46 q 411 -14 486 -14 m 128 357 q 150 237 128 293 q 210 139 172 181 q 300 73 249 97 q 410 49 351 49 q 519 73 468 49 q 610 140 571 97 q 671 240 649 183 q 693 361 693 296 q 671 481 693 425 q 610 580 649 538 q 520 647 571 622 q 411 672 469 672 q 301 647 353 672 q 212 579 250 622 q 151 478 174 536 q 128 357 128 421 z "},"ô":{"ha":822,"x_min":58,"x_max":764,"o":"m 251 901 l 385 1014 l 436 1014 l 571 901 l 529 878 l 411 965 l 293 878 l 251 901 m 411 -14 q 270 16 335 -14 q 158 97 206 46 q 85 217 111 149 q 58 360 58 285 q 85 504 58 436 q 160 624 113 572 q 272 705 207 675 q 411 735 336 735 q 550 705 486 735 q 662 624 614 675 q 737 504 710 572 q 764 360 764 436 q 737 217 764 285 q 663 97 710 149 q 551 16 615 46 q 411 -14 486 -14 m 128 357 q 150 237 128 293 q 210 139 172 181 q 300 73 249 97 q 410 49 351 49 q 519 73 468 49 q 610 140 571 97 q 671 240 649 183 q 693 361 693 296 q 671 481 693 425 q 610 580 649 538 q 520 647 571 622 q 411 672 469 672 q 301 647 353 672 q 212 579 250 622 q 151 478 174 536 q 128 357 128 421 z "},"õ":{"ha":822,"x_min":58,"x_max":764,"o":"m 411 -14 q 270 16 335 -14 q 158 97 206 46 q 85 217 111 149 q 58 360 58 285 q 85 504 58 436 q 160 624 113 572 q 272 705 207 675 q 411 735 336 735 q 550 705 486 735 q 662 624 614 675 q 737 504 710 572 q 764 360 764 436 q 737 217 764 285 q 663 97 710 149 q 551 16 615 46 q 411 -14 486 -14 m 128 357 q 150 237 128 293 q 210 139 172 181 q 300 73 249 97 q 410 49 351 49 q 519 73 468 49 q 610 140 571 97 q 671 240 649 183 q 693 361 693 296 q 671 481 693 425 q 610 580 649 538 q 520 647 571 622 q 411 672 469 672 q 301 647 353 672 q 212 579 250 622 q 151 478 174 536 q 128 357 128 421 m 496 899 q 442 907 465 899 q 399 926 418 915 q 360 945 379 936 q 321 954 342 954 q 283 944 297 954 q 263 923 269 935 q 253 901 256 911 q 250 888 250 890 l 203 888 q 207 912 203 893 q 224 951 211 931 q 260 987 238 971 q 321 1003 283 1003 q 370 994 349 1003 q 411 974 392 985 q 451 956 431 964 q 497 947 471 947 q 541 957 525 947 q 565 978 557 967 q 574 1001 572 990 q 576 1014 576 1011 l 624 1014 q 619 988 624 1007 q 601 950 614 969 q 563 915 588 931 q 496 899 538 899 z "},"ö":{"ha":822,"x_min":58,"x_max":764,"o":"m 286 889 l 286 1011 l 347 1011 l 347 889 l 286 889 m 475 889 l 475 1011 l 536 1011 l 536 889 l 475 889 m 411 -14 q 270 16 335 -14 q 158 97 206 46 q 85 217 111 149 q 58 360 58 285 q 85 504 58 436 q 160 624 113 572 q 272 705 207 675 q 411 735 336 735 q 550 705 486 735 q 662 624 614 675 q 737 504 710 572 q 764 360 764 436 q 737 217 764 285 q 663 97 710 149 q 551 16 615 46 q 411 -14 486 -14 m 128 357 q 150 237 128 293 q 210 139 172 181 q 300 73 249 97 q 410 49 351 49 q 519 73 468 49 q 610 140 571 97 q 671 240 649 183 q 693 361 693 296 q 671 481 693 425 q 610 580 649 538 q 520 647 571 622 q 411 672 469 672 q 301 647 353 672 q 212 579 250 622 q 151 478 174 536 q 128 357 128 421 z "},"÷":{"ha":750,"x_min":96,"x_max":656,"o":"m 344 547 l 344 660 l 406 660 l 406 547 l 344 547 m 344 113 l 344 224 l 406 224 l 406 113 l 344 113 m 96 357 l 96 417 l 656 417 l 656 357 l 96 357 z "},"ø":{"ha":822,"x_min":58,"x_max":764,"o":"m 144 -1 l 192 65 q 94 194 129 118 q 58 360 58 271 q 85 504 58 436 q 160 624 113 572 q 272 705 207 675 q 411 735 336 735 q 507 720 461 735 q 593 681 553 706 l 624 724 l 679 724 l 629 654 q 728 525 692 601 q 764 360 764 449 q 737 217 764 285 q 663 97 710 149 q 551 16 615 46 q 411 -14 486 -14 q 313 0 358 -14 q 228 39 268 14 l 197 -1 l 144 -1 m 128 357 q 156 222 128 283 q 231 118 183 161 l 557 626 q 488 660 525 649 q 411 672 451 672 q 301 647 353 672 q 212 579 250 622 q 151 478 174 536 q 128 357 128 421 m 410 49 q 519 73 468 49 q 610 140 571 97 q 671 240 649 183 q 693 361 693 296 q 665 494 693 432 q 590 599 638 556 l 263 93 q 410 49 328 49 z "},"ù":{"ha":815,"x_min":101,"x_max":732,"o":"m 332 -14 q 101 306 101 -14 l 101 722 l 171 722 l 171 315 q 353 49 171 49 q 442 65 399 49 q 522 109 485 81 q 588 178 560 138 q 633 267 617 218 l 633 722 l 703 722 l 703 97 q 732 63 703 63 l 732 0 q 719 -1 725 -1 q 711 -1 714 -1 q 662 16 683 -1 q 640 63 640 33 l 640 171 q 510 35 593 83 q 332 -14 428 -14 m 283 1014 l 363 1014 l 449 896 l 401 874 l 283 1014 z "},"ú":{"ha":815,"x_min":101,"x_max":732,"o":"m 397 874 l 349 896 l 433 1014 l 514 1014 l 397 874 m 332 -14 q 101 306 101 -14 l 101 722 l 171 722 l 171 315 q 353 49 171 49 q 442 65 399 49 q 522 109 485 81 q 588 178 560 138 q 633 267 617 218 l 633 722 l 703 722 l 703 97 q 732 63 703 63 l 732 0 q 719 -1 725 -1 q 711 -1 714 -1 q 662 16 683 -1 q 640 63 640 33 l 640 171 q 510 35 593 83 q 332 -14 428 -14 z "},"û":{"ha":815,"x_min":101,"x_max":732,"o":"m 239 901 l 372 1014 l 424 1014 l 558 901 l 517 878 l 399 965 l 281 878 l 239 901 m 332 -14 q 101 306 101 -14 l 101 722 l 171 722 l 171 315 q 353 49 171 49 q 442 65 399 49 q 522 109 485 81 q 588 178 560 138 q 633 267 617 218 l 633 722 l 703 722 l 703 97 q 732 63 703 63 l 732 0 q 719 -1 725 -1 q 711 -1 714 -1 q 662 16 683 -1 q 640 63 640 33 l 640 171 q 510 35 593 83 q 332 -14 428 -14 z "},"ü":{"ha":815,"x_min":101,"x_max":732,"o":"m 274 889 l 274 1011 l 335 1011 l 335 889 l 274 889 m 463 889 l 463 1011 l 524 1011 l 524 889 l 463 889 m 332 -14 q 101 306 101 -14 l 101 722 l 171 722 l 171 315 q 353 49 171 49 q 442 65 399 49 q 522 109 485 81 q 588 178 560 138 q 633 267 617 218 l 633 722 l 703 722 l 703 97 q 732 63 703 63 l 732 0 q 719 -1 725 -1 q 711 -1 714 -1 q 662 16 683 -1 q 640 63 640 33 l 640 171 q 510 35 593 83 q 332 -14 428 -14 z "},"ý":{"ha":750,"x_min":24,"x_max":719,"o":"m 157 -244 q 178 -246 164 -246 q 203 -244 192 -246 q 226 -237 215 -243 q 242 -226 235 -233 q 261 -194 249 -218 q 293 -125 274 -171 q 346 0 313 -79 l 24 722 l 96 722 l 383 68 l 651 722 l 719 722 l 324 -228 q 274 -288 308 -267 q 182 -310 240 -310 q 170 -310 176 -310 q 157 -308 164 -310 l 157 -244 m 382 874 l 333 896 l 418 1014 l 499 1014 l 382 874 z "},"þ":{"ha":838,"x_min":108,"x_max":781,"o":"m 781 358 q 751 215 779 283 q 676 95 724 147 q 565 12 629 43 q 428 -19 501 -19 q 351 -8 388 -19 q 281 22 314 3 q 223 67 249 42 q 179 121 197 92 l 179 -296 l 108 -296 l 108 986 l 179 986 l 179 585 q 288 692 225 649 q 440 736 351 736 q 583 702 519 736 q 690 614 646 668 q 757 492 733 560 q 781 358 781 425 m 710 358 q 690 476 710 419 q 635 576 671 532 q 549 646 599 619 q 438 672 499 672 q 353 657 392 672 q 281 616 314 642 q 223 557 249 590 q 179 488 197 524 l 179 238 q 203 165 179 200 q 265 104 228 131 q 345 62 301 78 q 426 46 389 46 q 541 72 489 46 q 631 142 593 99 q 689 242 668 186 q 710 358 710 299 z "},"ÿ":{"ha":750,"x_min":24,"x_max":719,"o":"m 157 -244 q 178 -246 164 -246 q 203 -244 192 -246 q 226 -237 215 -243 q 242 -226 235 -233 q 261 -194 249 -218 q 293 -125 274 -171 q 346 0 313 -79 l 24 722 l 96 722 l 383 68 l 651 722 l 719 722 l 324 -228 q 274 -288 308 -267 q 182 -310 240 -310 q 170 -310 176 -310 q 157 -308 164 -310 l 157 -244 m 258 889 l 258 1011 l 319 1011 l 319 889 l 258 889 m 447 889 l 447 1011 l 508 1011 l 508 889 l 447 889 z "},"Ā":{"ha":938,"x_min":19,"x_max":917,"o":"m 439 986 l 500 986 l 917 0 l 842 0 l 704 325 l 233 325 l 96 0 l 19 0 l 439 986 m 685 383 l 469 900 l 250 383 l 685 383 m 272 1193 l 272 1244 l 668 1244 l 668 1193 l 272 1193 z "},"ā":{"ha":746,"x_min":49,"x_max":674,"o":"m 286 -14 q 193 3 236 -14 q 117 51 150 21 q 67 122 85 81 q 49 210 49 163 q 71 296 49 257 q 133 363 93 335 q 228 408 172 392 q 350 424 283 424 q 467 413 408 424 q 574 385 526 403 l 574 456 q 515 619 574 558 q 357 679 457 679 q 245 657 304 679 q 125 593 186 635 l 99 640 q 363 735 238 735 q 568 659 493 735 q 643 450 643 583 l 643 97 q 674 63 643 63 l 674 0 q 659 -2 667 -1 q 646 -3 651 -3 q 601 16 618 -3 q 582 61 585 35 l 582 121 q 454 21 532 56 q 286 -14 376 -14 m 300 42 q 448 72 381 42 q 551 153 515 103 q 574 208 574 182 l 574 336 q 469 365 524 356 q 357 375 415 375 q 258 363 303 375 q 182 331 214 351 q 133 280 150 310 q 115 214 115 250 q 129 146 115 178 q 168 91 143 114 q 227 55 193 68 q 300 42 261 42 m 165 933 l 165 985 l 561 985 l 561 933 l 165 933 z "},"Ă":{"ha":938,"x_min":19,"x_max":917,"o":"m 439 986 l 500 986 l 917 0 l 842 0 l 704 325 l 233 325 l 96 0 l 19 0 l 439 986 m 685 383 l 469 900 l 250 383 l 685 383 m 469 1185 q 520 1210 497 1185 q 547 1274 543 1236 l 593 1274 q 583 1224 593 1247 q 556 1183 574 1200 q 517 1156 539 1165 q 469 1146 494 1146 q 422 1156 444 1146 q 382 1183 399 1165 q 356 1224 365 1200 q 346 1274 346 1247 l 392 1274 q 415 1212 392 1239 q 469 1185 439 1185 z "},"˘":{"ha":374,"x_min":64,"x_max":311,"o":"m 188 925 q 238 951 215 925 q 265 1014 261 976 l 311 1014 q 301 964 311 988 q 274 923 292 940 q 235 896 257 906 q 188 886 213 886 q 140 896 163 886 q 100 923 117 906 q 74 964 83 940 q 64 1014 64 988 l 110 1014 q 133 952 110 979 q 188 925 157 925 z "},"ă":{"ha":746,"x_min":49,"x_max":674,"o":"m 286 -14 q 193 3 236 -14 q 117 51 150 21 q 67 122 85 81 q 49 210 49 163 q 71 296 49 257 q 133 363 93 335 q 228 408 172 392 q 350 424 283 424 q 467 413 408 424 q 574 385 526 403 l 574 456 q 515 619 574 558 q 357 679 457 679 q 245 657 304 679 q 125 593 186 635 l 99 640 q 363 735 238 735 q 568 659 493 735 q 643 450 643 583 l 643 97 q 674 63 643 63 l 674 0 q 659 -2 667 -1 q 646 -3 651 -3 q 601 16 618 -3 q 582 61 585 35 l 582 121 q 454 21 532 56 q 286 -14 376 -14 m 300 42 q 448 72 381 42 q 551 153 515 103 q 574 208 574 182 l 574 336 q 469 365 524 356 q 357 375 415 375 q 258 363 303 375 q 182 331 214 351 q 133 280 150 310 q 115 214 115 250 q 129 146 115 178 q 168 91 143 114 q 227 55 193 68 q 300 42 261 42 m 363 925 q 413 951 390 925 q 440 1014 436 976 l 486 1014 q 476 964 486 988 q 449 923 467 940 q 410 896 432 906 q 363 886 388 886 q 315 896 338 886 q 275 923 292 906 q 249 964 258 940 q 239 1014 239 988 l 285 1014 q 308 952 285 979 q 363 925 332 925 z "},"Ą":{"ha":936,"x_min":18,"x_max":915,"o":"m 847 -235 q 778 -200 803 -225 q 754 -140 754 -175 q 778 -72 754 -106 q 856 0 803 -37 l 840 0 l 703 325 l 232 325 l 94 0 l 18 0 l 438 986 l 499 986 l 915 0 q 827 -69 853 -40 q 801 -131 801 -99 q 869 -193 801 -183 l 847 -235 m 683 383 l 468 900 l 249 383 l 683 383 z "},"˛":{"ha":314,"x_min":72,"x_max":233,"o":"m 165 -235 q 97 -200 121 -225 q 72 -140 72 -175 q 104 -62 72 -100 q 207 22 136 -24 l 233 0 q 145 -69 171 -40 q 119 -131 119 -99 q 188 -193 119 -183 l 165 -235 l 165 -235 z "},"ą":{"ha":746,"x_min":49,"x_max":674,"o":"m 606 -235 q 537 -200 561 -225 q 513 -140 513 -175 q 538 -70 513 -104 q 618 3 563 -36 q 593 26 603 10 q 582 61 583 42 l 582 121 q 454 21 532 56 q 286 -14 376 -14 q 193 3 236 -14 q 117 51 150 21 q 67 122 85 81 q 49 210 49 163 q 71 296 49 257 q 133 363 93 335 q 228 408 172 392 q 350 424 283 424 q 467 413 408 424 q 574 385 526 403 l 574 456 q 515 619 574 558 q 357 679 457 679 q 245 657 304 679 q 125 593 186 635 l 99 640 q 363 735 238 735 q 568 659 493 735 q 643 450 643 583 l 643 97 q 674 63 643 63 l 674 0 q 585 -69 611 -40 q 560 -131 560 -99 q 628 -193 560 -183 l 606 -235 m 300 42 q 448 72 381 42 q 551 153 515 103 q 574 208 574 182 l 574 336 q 469 365 524 356 q 357 375 415 375 q 258 363 303 375 q 182 331 214 351 q 133 280 150 310 q 115 214 115 250 q 129 146 115 178 q 168 91 143 114 q 227 55 193 68 q 300 42 261 42 z "},"Ć":{"ha":958,"x_min":61,"x_max":913,"o":"m 525 1133 l 476 1156 l 561 1274 l 642 1274 l 525 1133 m 61 500 q 92 677 61 589 q 183 835 124 765 q 330 948 243 904 q 528 992 417 992 q 753 931 660 992 q 892 776 846 871 l 833 743 q 772 829 807 794 q 695 885 736 864 q 610 917 654 907 q 522 926 565 926 q 356 888 428 926 q 233 789 283 850 q 158 651 183 728 q 132 496 132 574 q 163 329 132 408 q 246 190 193 250 q 371 93 299 129 q 526 57 443 57 q 618 68 571 57 q 708 103 665 79 q 789 163 751 126 q 851 250 826 200 l 913 221 q 844 122 888 165 q 749 50 801 79 q 637 6 696 21 q 521 -8 578 -8 q 335 36 419 -8 q 190 152 251 81 q 95 315 129 224 q 61 500 61 406 z "},"ć":{"ha":757,"x_min":58,"x_max":708,"o":"m 410 874 l 361 896 l 446 1014 l 526 1014 l 410 874 m 58 364 q 85 508 58 440 q 158 626 111 576 q 271 706 206 676 q 414 735 336 735 q 588 690 513 735 q 700 567 663 646 l 632 544 q 541 638 600 604 q 411 672 482 672 q 300 649 351 672 q 210 583 249 625 q 150 485 172 542 q 128 364 128 429 q 151 241 128 299 q 212 141 174 183 q 302 74 250 99 q 413 49 354 49 q 487 60 450 49 q 555 89 524 71 q 609 131 586 107 q 640 182 632 156 l 708 163 q 666 92 694 125 q 599 36 638 60 q 513 -1 560 13 q 415 -14 465 -14 q 274 16 339 -14 q 160 98 208 46 q 85 218 113 150 q 58 364 58 286 z "},"Ĉ":{"ha":958,"x_min":61,"x_max":913,"o":"m 367 1161 l 500 1274 l 551 1274 l 686 1161 l 644 1138 l 526 1225 l 408 1138 l 367 1161 m 61 500 q 92 677 61 589 q 183 835 124 765 q 330 948 243 904 q 528 992 417 992 q 753 931 660 992 q 892 776 846 871 l 833 743 q 772 829 807 794 q 695 885 736 864 q 610 917 654 907 q 522 926 565 926 q 356 888 428 926 q 233 789 283 850 q 158 651 183 728 q 132 496 132 574 q 163 329 132 408 q 246 190 193 250 q 371 93 299 129 q 526 57 443 57 q 618 68 571 57 q 708 103 665 79 q 789 163 751 126 q 851 250 826 200 l 913 221 q 844 122 888 165 q 749 50 801 79 q 637 6 696 21 q 521 -8 578 -8 q 335 36 419 -8 q 190 152 251 81 q 95 315 129 224 q 61 500 61 406 z "},"ĉ":{"ha":757,"x_min":58,"x_max":708,"o":"m 251 901 l 385 1014 l 436 1014 l 571 901 l 529 878 l 411 965 l 293 878 l 251 901 m 58 364 q 85 508 58 440 q 158 626 111 576 q 271 706 206 676 q 414 735 336 735 q 588 690 513 735 q 700 567 663 646 l 632 544 q 541 638 600 604 q 411 672 482 672 q 300 649 351 672 q 210 583 249 625 q 150 485 172 542 q 128 364 128 429 q 151 241 128 299 q 212 141 174 183 q 302 74 250 99 q 413 49 354 49 q 487 60 450 49 q 555 89 524 71 q 609 131 586 107 q 640 182 632 156 l 708 163 q 666 92 694 125 q 599 36 638 60 q 513 -1 560 13 q 415 -14 465 -14 q 274 16 339 -14 q 160 98 208 46 q 85 218 113 150 q 58 364 58 286 z "},"Ċ":{"ha":958,"x_min":61,"x_max":913,"o":"m 61 500 q 92 677 61 589 q 183 835 124 765 q 330 948 243 904 q 528 992 417 992 q 753 931 660 992 q 892 776 846 871 l 833 743 q 772 829 807 794 q 695 885 736 864 q 610 917 654 907 q 522 926 565 926 q 356 888 428 926 q 233 789 283 850 q 158 651 183 728 q 132 496 132 574 q 163 329 132 408 q 246 190 193 250 q 371 93 299 129 q 526 57 443 57 q 618 68 571 57 q 708 103 665 79 q 789 163 751 126 q 851 250 826 200 l 913 221 q 844 122 888 165 q 749 50 801 79 q 637 6 696 21 q 521 -8 578 -8 q 335 36 419 -8 q 190 152 251 81 q 95 315 129 224 q 61 500 61 406 m 494 1149 l 494 1274 l 558 1274 l 558 1149 l 494 1149 z "},"˙":{"ha":203,"x_min":69,"x_max":133,"o":"m 69 889 l 69 1014 l 133 1014 l 133 889 l 69 889 z "},"ċ":{"ha":757,"x_min":58,"x_max":708,"o":"m 58 364 q 85 508 58 440 q 158 626 111 576 q 271 706 206 676 q 414 735 336 735 q 588 690 513 735 q 700 567 663 646 l 632 544 q 541 638 600 604 q 411 672 482 672 q 300 649 351 672 q 210 583 249 625 q 150 485 172 542 q 128 364 128 429 q 151 241 128 299 q 212 141 174 183 q 302 74 250 99 q 413 49 354 49 q 487 60 450 49 q 555 89 524 71 q 609 131 586 107 q 640 182 632 156 l 708 163 q 666 92 694 125 q 599 36 638 60 q 513 -1 560 13 q 415 -14 465 -14 q 274 16 339 -14 q 160 98 208 46 q 85 218 113 150 q 58 364 58 286 m 379 889 l 379 1014 l 443 1014 l 443 889 l 379 889 z "},"Č":{"ha":958,"x_min":61,"x_max":913,"o":"m 408 1274 l 526 1186 l 644 1274 l 686 1250 l 551 1138 l 500 1138 l 367 1250 l 408 1274 m 61 500 q 92 677 61 589 q 183 835 124 765 q 330 948 243 904 q 528 992 417 992 q 753 931 660 992 q 892 776 846 871 l 833 743 q 772 829 807 794 q 695 885 736 864 q 610 917 654 907 q 522 926 565 926 q 356 888 428 926 q 233 789 283 850 q 158 651 183 728 q 132 496 132 574 q 163 329 132 408 q 246 190 193 250 q 371 93 299 129 q 526 57 443 57 q 618 68 571 57 q 708 103 665 79 q 789 163 751 126 q 851 250 826 200 l 913 221 q 844 122 888 165 q 749 50 801 79 q 637 6 696 21 q 521 -8 578 -8 q 335 36 419 -8 q 190 152 251 81 q 95 315 129 224 q 61 500 61 406 z "},"ˇ":{"ha":444,"x_min":63,"x_max":382,"o":"m 104 1014 l 222 926 l 340 1014 l 382 990 l 247 878 l 196 878 l 63 990 l 104 1014 z "},"č":{"ha":757,"x_min":58,"x_max":708,"o":"m 293 1014 l 411 926 l 529 1014 l 571 990 l 436 878 l 385 878 l 251 990 l 293 1014 m 58 364 q 85 508 58 440 q 158 626 111 576 q 271 706 206 676 q 414 735 336 735 q 588 690 513 735 q 700 567 663 646 l 632 544 q 541 638 600 604 q 411 672 482 672 q 300 649 351 672 q 210 583 249 625 q 150 485 172 542 q 128 364 128 429 q 151 241 128 299 q 212 141 174 183 q 302 74 250 99 q 413 49 354 49 q 487 60 450 49 q 555 89 524 71 q 609 131 586 107 q 640 182 632 156 l 708 163 q 666 92 694 125 q 599 36 638 60 q 513 -1 560 13 q 415 -14 465 -14 q 274 16 339 -14 q 160 98 208 46 q 85 218 113 150 q 58 364 58 286 z "},"Ď":{"ha":990,"x_min":129,"x_max":925,"o":"m 364 1274 l 482 1186 l 600 1274 l 642 1250 l 507 1138 l 456 1138 l 322 1250 l 364 1274 m 129 0 l 129 986 l 457 986 q 662 947 574 986 q 808 842 750 908 q 896 685 867 775 q 925 494 925 596 q 892 291 925 382 q 799 135 860 200 q 651 35 738 71 q 457 0 564 0 l 129 0 m 854 494 q 828 666 854 588 q 751 801 801 744 q 626 890 700 858 q 457 922 553 922 l 200 922 l 200 64 l 457 64 q 628 97 554 64 q 753 188 703 129 q 828 324 803 246 q 854 494 854 403 z "},"ď":{"ha":854,"x_min":58,"x_max":960,"o":"m 843 874 l 794 896 l 879 1014 l 960 1014 l 843 874 m 406 -14 q 267 17 331 -14 q 156 101 203 49 q 84 220 110 153 q 58 360 58 288 q 83 503 58 435 q 153 622 108 571 q 258 704 197 674 q 390 735 318 735 q 479 721 438 735 q 557 684 521 707 q 622 631 593 661 q 672 565 651 600 l 672 1014 l 742 1014 l 742 97 q 771 63 742 63 l 771 0 q 757 -2 763 -1 q 746 -3 751 -3 q 699 19 718 -3 q 679 64 679 40 l 679 144 q 560 29 635 72 q 406 -14 486 -14 m 418 49 q 499 64 456 49 q 578 106 542 79 q 642 168 615 133 q 672 243 668 203 l 672 481 q 628 555 657 519 q 564 616 600 590 q 486 657 528 642 q 406 672 444 672 q 292 645 343 672 q 204 574 240 618 q 149 474 168 531 q 129 358 129 418 q 151 240 129 296 q 213 142 174 185 q 305 74 253 99 q 418 49 357 49 z "},"Đ":{"ha":1000,"x_min":49,"x_max":935,"o":"m 139 0 l 139 467 l 49 467 l 49 525 l 139 525 l 139 986 l 467 986 q 672 947 583 986 q 818 842 760 908 q 906 685 876 775 q 935 494 935 596 q 902 291 935 382 q 808 135 869 200 q 660 35 747 71 q 467 0 574 0 l 139 0 m 864 494 q 838 666 864 588 q 760 801 811 744 q 636 890 710 858 q 467 922 563 922 l 210 922 l 210 525 l 457 525 l 457 467 l 210 467 l 210 64 l 467 64 q 638 97 564 64 q 763 188 713 129 q 838 324 813 246 q 864 494 864 403 z "},"đ":{"ha":854,"x_min":58,"x_max":842,"o":"m 406 -14 q 267 17 331 -14 q 156 101 203 49 q 84 220 110 153 q 58 360 58 288 q 83 503 58 435 q 153 622 108 571 q 258 704 197 674 q 390 735 318 735 q 479 721 438 735 q 557 684 521 707 q 622 631 593 661 q 672 565 651 600 l 672 865 l 508 865 l 508 915 l 672 915 l 672 1014 l 742 1014 l 742 915 l 842 915 l 842 865 l 742 865 l 742 97 q 771 63 742 63 l 771 0 q 757 -2 763 -1 q 746 -3 751 -3 q 699 19 718 -3 q 679 64 679 40 l 679 144 q 560 29 635 72 q 406 -14 486 -14 m 418 49 q 499 64 456 49 q 578 106 542 79 q 642 168 615 133 q 672 243 668 203 l 672 481 q 628 555 657 519 q 564 616 600 590 q 486 657 528 642 q 406 672 444 672 q 292 645 343 672 q 204 574 240 618 q 149 474 168 531 q 129 358 129 418 q 151 240 129 296 q 213 142 174 185 q 305 74 253 99 q 418 49 357 49 z "},"Ē":{"ha":850,"x_min":129,"x_max":786,"o":"m 786 64 l 786 0 l 129 0 l 129 986 l 774 986 l 774 922 l 200 922 l 200 535 l 701 535 l 701 474 l 200 474 l 200 64 l 786 64 m 275 1193 l 275 1244 l 671 1244 l 671 1193 l 275 1193 z "},"ē":{"ha":810,"x_min":58,"x_max":765,"o":"m 415 -14 q 274 16 339 -14 q 160 98 208 46 q 85 218 113 150 q 58 364 58 286 q 85 508 58 440 q 160 626 113 575 q 272 706 207 676 q 411 735 336 735 q 553 705 488 735 q 665 624 618 675 q 739 506 713 574 q 765 364 765 439 q 765 347 765 357 q 764 333 765 336 l 131 333 q 160 217 135 271 q 223 125 185 164 q 311 64 261 86 q 418 42 361 42 q 492 52 456 42 q 559 81 528 63 q 615 124 590 99 q 653 181 639 150 l 714 164 q 669 92 699 125 q 599 36 639 60 q 513 -1 560 13 q 415 -14 465 -14 m 699 389 q 670 506 694 453 q 608 597 646 558 q 519 656 569 635 q 413 678 469 678 q 306 656 356 678 q 217 597 256 635 q 156 505 179 558 q 129 389 133 451 l 699 389 m 213 933 l 213 985 l 608 985 l 608 933 l 213 933 z "},"Ĕ":{"ha":850,"x_min":129,"x_max":786,"o":"m 786 64 l 786 0 l 129 0 l 129 986 l 774 986 l 774 922 l 200 922 l 200 535 l 701 535 l 701 474 l 200 474 l 200 64 l 786 64 m 472 1185 q 523 1210 500 1185 q 550 1274 546 1236 l 596 1274 q 586 1224 596 1247 q 559 1183 576 1200 q 519 1156 542 1165 q 472 1146 497 1146 q 424 1156 447 1146 q 385 1183 401 1165 q 358 1224 368 1200 q 349 1274 349 1247 l 394 1274 q 418 1212 394 1239 q 472 1185 442 1185 z "},"ĕ":{"ha":810,"x_min":58,"x_max":765,"o":"m 415 -14 q 274 16 339 -14 q 160 98 208 46 q 85 218 113 150 q 58 364 58 286 q 85 508 58 440 q 160 626 113 575 q 272 706 207 676 q 411 735 336 735 q 553 705 488 735 q 665 624 618 675 q 739 506 713 574 q 765 364 765 439 q 765 347 765 357 q 764 333 765 336 l 131 333 q 160 217 135 271 q 223 125 185 164 q 311 64 261 86 q 418 42 361 42 q 492 52 456 42 q 559 81 528 63 q 615 124 590 99 q 653 181 639 150 l 714 164 q 669 92 699 125 q 599 36 639 60 q 513 -1 560 13 q 415 -14 465 -14 m 699 389 q 670 506 694 453 q 608 597 646 558 q 519 656 569 635 q 413 678 469 678 q 306 656 356 678 q 217 597 256 635 q 156 505 179 558 q 129 389 133 451 l 699 389 m 410 925 q 460 951 438 925 q 488 1014 483 976 l 533 1014 q 524 964 533 988 q 497 923 514 940 q 457 896 479 906 q 410 886 435 886 q 362 896 385 886 q 322 923 339 906 q 296 964 306 940 q 286 1014 286 988 l 332 1014 q 356 952 332 979 q 410 925 379 925 z "},"Ė":{"ha":850,"x_min":129,"x_max":786,"o":"m 786 64 l 786 0 l 129 0 l 129 986 l 774 986 l 774 922 l 200 922 l 200 535 l 701 535 l 701 474 l 200 474 l 200 64 l 786 64 m 439 1149 l 439 1274 l 503 1274 l 503 1149 l 439 1149 z "},"ė":{"ha":810,"x_min":58,"x_max":765,"o":"m 415 -14 q 274 16 339 -14 q 160 98 208 46 q 85 218 113 150 q 58 364 58 286 q 85 508 58 440 q 160 626 113 575 q 272 706 207 676 q 411 735 336 735 q 553 705 488 735 q 665 624 618 675 q 739 506 713 574 q 765 364 765 439 q 765 347 765 357 q 764 333 765 336 l 131 333 q 160 217 135 271 q 223 125 185 164 q 311 64 261 86 q 418 42 361 42 q 492 52 456 42 q 559 81 528 63 q 615 124 590 99 q 653 181 639 150 l 714 164 q 669 92 699 125 q 599 36 639 60 q 513 -1 560 13 q 415 -14 465 -14 m 699 389 q 670 506 694 453 q 608 597 646 558 q 519 656 569 635 q 413 678 469 678 q 306 656 356 678 q 217 597 256 635 q 156 505 179 558 q 129 389 133 451 l 699 389 m 378 889 l 378 1014 l 442 1014 l 442 889 l 378 889 z "},"Ę":{"ha":850,"x_min":129,"x_max":786,"o":"m 786 64 l 786 0 q 698 -69 724 -40 q 672 -131 672 -99 q 740 -193 672 -183 l 718 -235 q 649 -200 674 -225 q 625 -140 625 -175 q 649 -72 625 -106 q 726 0 674 -37 l 129 0 l 129 986 l 774 986 l 774 922 l 200 922 l 200 535 l 701 535 l 701 474 l 200 474 l 200 64 l 786 64 z "},"ę":{"ha":810,"x_min":58,"x_max":765,"o":"m 392 -244 q 323 -210 347 -235 q 299 -150 299 -185 q 322 -83 299 -115 q 394 -12 344 -50 q 260 23 322 -8 q 154 106 199 54 q 84 223 110 157 q 58 364 58 289 q 85 508 58 440 q 160 626 113 575 q 272 706 207 676 q 411 735 336 735 q 553 705 488 735 q 665 624 618 675 q 739 506 713 574 q 765 364 765 439 q 765 347 765 357 q 764 333 765 336 l 131 333 q 160 217 135 271 q 223 125 185 164 q 311 64 261 86 q 418 42 361 42 q 492 52 456 42 q 559 81 528 63 q 615 124 590 99 q 653 181 639 150 l 714 164 q 674 99 700 129 q 615 47 649 69 q 541 8 582 24 q 457 -11 500 -7 q 370 -80 394 -51 q 346 -140 346 -108 q 414 -203 346 -193 l 392 -244 m 699 389 q 670 506 694 453 q 608 597 646 558 q 519 656 569 635 q 413 678 469 678 q 306 656 356 678 q 217 597 256 635 q 156 505 179 558 q 129 389 133 451 l 699 389 z "},"Ě":{"ha":850,"x_min":129,"x_max":786,"o":"m 354 1274 l 472 1186 l 590 1274 l 632 1250 l 497 1138 l 446 1138 l 313 1250 l 354 1274 m 786 64 l 786 0 l 129 0 l 129 986 l 774 986 l 774 922 l 200 922 l 200 535 l 701 535 l 701 474 l 200 474 l 200 64 l 786 64 z "},"ě":{"ha":810,"x_min":58,"x_max":765,"o":"m 292 1014 l 410 926 l 528 1014 l 569 990 l 435 878 l 383 878 l 250 990 l 292 1014 m 415 -14 q 274 16 339 -14 q 160 98 208 46 q 85 218 113 150 q 58 364 58 286 q 85 508 58 440 q 160 626 113 575 q 272 706 207 676 q 411 735 336 735 q 553 705 488 735 q 665 624 618 675 q 739 506 713 574 q 765 364 765 439 q 765 347 765 357 q 764 333 765 336 l 131 333 q 160 217 135 271 q 223 125 185 164 q 311 64 261 86 q 418 42 361 42 q 492 52 456 42 q 559 81 528 63 q 615 124 590 99 q 653 181 639 150 l 714 164 q 669 92 699 125 q 599 36 639 60 q 513 -1 560 13 q 415 -14 465 -14 m 699 389 q 670 506 694 453 q 608 597 646 558 q 519 656 569 635 q 413 678 469 678 q 306 656 356 678 q 217 597 256 635 q 156 505 179 558 q 129 389 133 451 l 699 389 z "},"Ĝ":{"ha":996,"x_min":61,"x_max":917,"o":"m 354 1161 l 488 1274 l 539 1274 l 674 1161 l 632 1138 l 514 1225 l 396 1138 l 354 1161 m 856 154 q 524 -7 713 -7 q 338 36 424 -7 q 192 150 253 79 q 96 311 131 221 q 61 494 61 401 q 95 682 61 592 q 190 842 129 772 q 333 952 250 911 q 515 993 417 993 q 648 977 589 993 q 753 933 707 961 q 834 865 800 904 q 892 778 868 825 l 833 743 q 701 884 783 840 q 514 928 618 928 q 356 890 426 928 q 235 792 285 853 q 158 653 185 731 q 132 493 132 575 q 163 327 132 406 q 247 189 193 249 q 372 94 300 129 q 528 58 444 58 q 699 100 618 58 q 856 232 781 142 l 856 422 l 632 422 l 632 479 l 917 479 l 917 0 l 856 0 l 856 154 z "},"ĝ":{"ha":850,"x_min":58,"x_max":742,"o":"m 286 901 l 419 1014 l 471 1014 l 606 901 l 564 878 l 446 965 l 328 878 l 286 901 m 400 -11 q 263 20 325 -11 q 155 103 200 51 q 84 222 110 156 q 58 360 58 289 q 83 501 58 433 q 151 622 107 569 q 258 704 196 674 q 394 735 319 735 q 559 685 489 735 q 678 565 629 636 l 678 722 l 742 722 l 742 -14 q 714 -143 742 -87 q 640 -235 686 -199 q 531 -291 593 -272 q 401 -310 469 -310 q 289 -298 339 -310 q 201 -265 239 -286 q 133 -212 163 -243 q 81 -143 103 -181 l 128 -111 q 244 -219 171 -185 q 401 -253 318 -253 q 506 -237 457 -253 q 592 -192 556 -222 q 651 -118 629 -162 q 672 -14 672 -74 l 672 144 q 554 31 628 74 q 400 -11 481 -11 m 417 49 q 506 66 463 49 q 585 111 550 83 q 644 174 621 139 q 672 243 667 208 l 672 481 q 628 558 656 522 q 565 618 600 593 q 488 658 529 643 q 406 672 447 672 q 289 644 340 672 q 202 572 238 617 q 148 472 167 528 q 129 358 129 415 q 151 240 129 296 q 213 142 174 185 q 304 74 251 99 q 417 49 357 49 z "},"Ğ":{"ha":996,"x_min":61,"x_max":917,"o":"m 856 154 q 524 -7 713 -7 q 338 36 424 -7 q 192 150 253 79 q 96 311 131 221 q 61 494 61 401 q 95 682 61 592 q 190 842 129 772 q 333 952 250 911 q 515 993 417 993 q 648 977 589 993 q 753 933 707 961 q 834 865 800 904 q 892 778 868 825 l 833 743 q 701 884 783 840 q 514 928 618 928 q 356 890 426 928 q 235 792 285 853 q 158 653 185 731 q 132 493 132 575 q 163 327 132 406 q 247 189 193 249 q 372 94 300 129 q 528 58 444 58 q 699 100 618 58 q 856 232 781 142 l 856 422 l 632 422 l 632 479 l 917 479 l 917 0 l 856 0 l 856 154 m 514 1185 q 565 1210 542 1185 q 592 1274 588 1236 l 638 1274 q 628 1224 638 1247 q 601 1183 618 1200 q 561 1156 583 1165 q 514 1146 539 1146 q 466 1156 489 1146 q 426 1183 443 1165 q 400 1224 410 1200 q 390 1274 390 1247 l 436 1274 q 460 1212 436 1239 q 514 1185 483 1185 z "},"ğ":{"ha":850,"x_min":58,"x_max":742,"o":"m 400 -11 q 263 20 325 -11 q 155 103 200 51 q 84 222 110 156 q 58 360 58 289 q 83 501 58 433 q 151 622 107 569 q 258 704 196 674 q 394 735 319 735 q 559 685 489 735 q 678 565 629 636 l 678 722 l 742 722 l 742 -14 q 714 -143 742 -87 q 640 -235 686 -199 q 531 -291 593 -272 q 401 -310 469 -310 q 289 -298 339 -310 q 201 -265 239 -286 q 133 -212 163 -243 q 81 -143 103 -181 l 128 -111 q 244 -219 171 -185 q 401 -253 318 -253 q 506 -237 457 -253 q 592 -192 556 -222 q 651 -118 629 -162 q 672 -14 672 -74 l 672 144 q 554 31 628 74 q 400 -11 481 -11 m 417 49 q 506 66 463 49 q 585 111 550 83 q 644 174 621 139 q 672 243 667 208 l 672 481 q 628 558 656 522 q 565 618 600 593 q 488 658 529 643 q 406 672 447 672 q 289 644 340 672 q 202 572 238 617 q 148 472 167 528 q 129 358 129 415 q 151 240 129 296 q 213 142 174 185 q 304 74 251 99 q 417 49 357 49 m 446 925 q 497 951 474 925 q 524 1014 519 976 l 569 1014 q 560 964 569 988 q 533 923 550 940 q 493 896 515 906 q 446 886 471 886 q 398 896 421 886 q 358 923 375 906 q 332 964 342 940 q 322 1014 322 988 l 368 1014 q 392 952 368 979 q 446 925 415 925 z "},"Ġ":{"ha":996,"x_min":61,"x_max":917,"o":"m 856 154 q 524 -7 713 -7 q 338 36 424 -7 q 192 150 253 79 q 96 311 131 221 q 61 494 61 401 q 95 682 61 592 q 190 842 129 772 q 333 952 250 911 q 515 993 417 993 q 648 977 589 993 q 753 933 707 961 q 834 865 800 904 q 892 778 868 825 l 833 743 q 701 884 783 840 q 514 928 618 928 q 356 890 426 928 q 235 792 285 853 q 158 653 185 731 q 132 493 132 575 q 163 327 132 406 q 247 189 193 249 q 372 94 300 129 q 528 58 444 58 q 699 100 618 58 q 856 232 781 142 l 856 422 l 632 422 l 632 479 l 917 479 l 917 0 l 856 0 l 856 154 m 481 1149 l 481 1274 l 544 1274 l 544 1149 l 481 1149 z "},"ġ":{"ha":850,"x_min":58,"x_max":742,"o":"m 400 -11 q 263 20 325 -11 q 155 103 200 51 q 84 222 110 156 q 58 360 58 289 q 83 501 58 433 q 151 622 107 569 q 258 704 196 674 q 394 735 319 735 q 559 685 489 735 q 678 565 629 636 l 678 722 l 742 722 l 742 -14 q 714 -143 742 -87 q 640 -235 686 -199 q 531 -291 593 -272 q 401 -310 469 -310 q 289 -298 339 -310 q 201 -265 239 -286 q 133 -212 163 -243 q 81 -143 103 -181 l 128 -111 q 244 -219 171 -185 q 401 -253 318 -253 q 506 -237 457 -253 q 592 -192 556 -222 q 651 -118 629 -162 q 672 -14 672 -74 l 672 144 q 554 31 628 74 q 400 -11 481 -11 m 417 49 q 506 66 463 49 q 585 111 550 83 q 644 174 621 139 q 672 243 667 208 l 672 481 q 628 558 656 522 q 565 618 600 593 q 488 658 529 643 q 406 672 447 672 q 289 644 340 672 q 202 572 238 617 q 148 472 167 528 q 129 358 129 415 q 151 240 129 296 q 213 142 174 185 q 304 74 251 99 q 417 49 357 49 m 414 889 l 414 1014 l 478 1014 l 478 889 l 414 889 z "},"Ģ":{"ha":996,"x_min":61,"x_max":917,"o":"m 489 -260 l 510 -165 l 488 -165 l 488 -68 l 556 -68 l 556 -165 l 526 -260 l 489 -260 m 856 154 q 524 -7 713 -7 q 338 36 424 -7 q 192 150 253 79 q 96 311 131 221 q 61 494 61 401 q 95 682 61 592 q 190 842 129 772 q 333 952 250 911 q 515 993 417 993 q 648 977 589 993 q 753 933 707 961 q 834 865 800 904 q 892 778 868 825 l 833 743 q 701 884 783 840 q 514 928 618 928 q 356 890 426 928 q 235 792 285 853 q 158 653 185 731 q 132 493 132 575 q 163 327 132 406 q 247 189 193 249 q 372 94 300 129 q 528 58 444 58 q 699 100 618 58 q 856 232 781 142 l 856 422 l 632 422 l 632 479 l 917 479 l 917 0 l 856 0 l 856 154 z "},"":{"ha":196,"x_min":78,"x_max":146,"o":"m 79 -260 l 100 -165 l 78 -165 l 78 -68 l 146 -68 l 146 -165 l 117 -260 l 79 -260 z "},"ģ":{"ha":850,"x_min":58,"x_max":742,"o":"m 449 1022 l 428 928 l 450 928 l 450 831 l 382 831 l 382 928 l 411 1022 l 449 1022 m 400 -11 q 263 20 325 -11 q 155 103 200 51 q 84 222 110 156 q 58 360 58 289 q 83 501 58 433 q 151 622 107 569 q 258 704 196 674 q 394 735 319 735 q 559 685 489 735 q 678 565 629 636 l 678 722 l 742 722 l 742 -14 q 714 -143 742 -87 q 640 -235 686 -199 q 531 -291 593 -272 q 401 -310 469 -310 q 289 -298 339 -310 q 201 -265 239 -286 q 133 -212 163 -243 q 81 -143 103 -181 l 128 -111 q 244 -219 171 -185 q 401 -253 318 -253 q 506 -237 457 -253 q 592 -192 556 -222 q 651 -118 629 -162 q 672 -14 672 -74 l 672 144 q 554 31 628 74 q 400 -11 481 -11 m 417 49 q 506 66 463 49 q 585 111 550 83 q 644 174 621 139 q 672 243 667 208 l 672 481 q 628 558 656 522 q 565 618 600 593 q 488 658 529 643 q 406 672 447 672 q 289 644 340 672 q 202 572 238 617 q 148 472 167 528 q 129 358 129 415 q 151 240 129 296 q 213 142 174 185 q 304 74 251 99 q 417 49 357 49 z "},"Ĥ":{"ha":1021,"x_min":129,"x_max":893,"o":"m 354 1161 l 488 1274 l 539 1274 l 674 1161 l 632 1138 l 514 1225 l 396 1138 l 354 1161 m 893 986 l 893 0 l 822 0 l 822 472 l 200 472 l 200 0 l 129 0 l 129 986 l 200 986 l 200 536 l 822 536 l 822 986 l 893 986 z "},"ĥ":{"ha":800,"x_min":108,"x_max":699,"o":"m 296 900 l 424 1013 l 474 1013 l 604 900 l 564 876 l 450 964 l 336 876 l 296 900 m 699 0 l 629 0 l 629 403 q 450 671 629 671 q 363 654 406 671 q 284 607 321 638 q 219 535 247 576 q 178 447 192 494 l 178 0 l 108 0 l 108 1014 l 178 1014 l 178 550 q 301 685 222 635 q 469 735 379 735 q 572 713 529 735 q 644 649 615 690 q 685 548 672 607 q 699 415 699 489 l 699 0 z "},"Ħ":{"ha":1035,"x_min":67,"x_max":969,"o":"m 900 986 l 900 810 l 969 810 l 969 765 l 900 765 l 900 0 l 829 0 l 829 472 l 207 472 l 207 0 l 136 0 l 136 765 l 67 765 l 67 810 l 136 810 l 136 986 l 207 986 l 207 810 l 829 810 l 829 986 l 900 986 m 829 536 l 829 765 l 207 765 l 207 536 l 829 536 z "},"ħ":{"ha":800,"x_min":17,"x_max":699,"o":"m 699 0 l 629 0 l 629 403 q 450 671 629 671 q 363 654 406 671 q 284 607 321 638 q 219 535 247 576 q 178 447 192 494 l 178 0 l 108 0 l 108 865 l 17 865 l 17 915 l 108 915 l 108 1014 l 178 1014 l 178 915 l 351 915 l 351 865 l 178 865 l 178 550 q 301 685 222 635 q 469 735 379 735 q 572 713 529 735 q 644 649 615 690 q 685 548 672 607 q 699 415 699 489 l 699 0 z "},"Ĩ":{"ha":329,"x_min":-44,"x_max":376,"o":"m 129 0 l 129 986 l 200 986 l 200 0 l 129 0 m 249 1158 q 194 1167 218 1158 q 151 1185 171 1175 q 113 1205 132 1196 q 74 1214 94 1214 q 36 1204 50 1214 q 15 1183 22 1194 q 6 1160 8 1171 q 3 1147 3 1150 l -44 1147 q -40 1172 -44 1153 q -23 1210 -36 1190 q 13 1247 -10 1231 q 74 1263 36 1263 q 123 1253 101 1263 q 164 1234 144 1244 q 203 1215 183 1224 q 250 1207 224 1207 q 294 1217 278 1207 q 317 1238 310 1226 q 327 1260 325 1250 q 329 1274 329 1271 l 376 1274 q 372 1248 376 1267 q 353 1210 367 1229 q 315 1174 340 1190 q 249 1158 290 1158 z "},"ĩ":{"ha":288,"x_min":-65,"x_max":356,"o":"m 108 0 l 108 722 l 178 722 l 178 0 l 108 0 m 228 899 q 174 907 197 899 q 131 926 150 915 q 92 945 111 936 q 53 954 74 954 q 15 944 29 954 q -6 923 1 935 q -15 901 -12 911 q -18 888 -18 890 l -65 888 q -61 912 -65 893 q -44 951 -57 931 q -8 987 -31 971 q 53 1003 15 1003 q 102 994 81 1003 q 143 974 124 985 q 183 956 163 964 q 229 947 203 947 q 273 957 257 947 q 297 978 289 967 q 306 1001 304 990 q 308 1014 308 1011 l 356 1014 q 351 988 356 1007 q 333 950 346 969 q 294 915 319 931 q 228 899 269 899 z "},"Ī":{"ha":329,"x_min":-33,"x_max":363,"o":"m 129 0 l 129 986 l 200 986 l 200 0 l 129 0 m -33 1193 l -33 1244 l 363 1244 l 363 1193 l -33 1193 z "},"ī":{"ha":288,"x_min":-54,"x_max":342,"o":"m 108 0 l 108 722 l 178 722 l 178 0 l 108 0 m -54 933 l -54 985 l 342 985 l 342 933 l -54 933 z "},"Ĭ":{"ha":329,"x_min":42,"x_max":289,"o":"m 129 0 l 129 986 l 200 986 l 200 0 l 129 0 m 165 1185 q 216 1210 193 1185 q 243 1274 239 1236 l 289 1274 q 279 1224 289 1247 q 252 1183 269 1200 q 213 1156 235 1165 q 165 1146 190 1146 q 117 1156 140 1146 q 78 1183 94 1165 q 51 1224 61 1200 q 42 1274 42 1247 l 88 1274 q 111 1212 88 1239 q 165 1185 135 1185 z "},"ĭ":{"ha":288,"x_min":21,"x_max":268,"o":"m 108 0 l 108 722 l 178 722 l 178 0 l 108 0 m 144 925 q 195 951 172 925 q 222 1014 218 976 l 268 1014 q 258 964 268 988 q 231 923 249 940 q 192 896 214 906 q 144 886 169 886 q 97 896 119 886 q 57 923 74 906 q 31 964 40 940 q 21 1014 21 988 l 67 1014 q 90 952 67 979 q 144 925 114 925 z "},"Į":{"ha":329,"x_min":39,"x_max":200,"o":"m 132 -235 q 63 -200 88 -225 q 39 -140 39 -175 q 63 -72 39 -106 q 140 0 88 -37 l 129 0 l 129 986 l 200 986 l 200 0 q 112 -69 138 -40 q 86 -131 86 -99 q 154 -193 86 -183 l 132 -235 l 132 -235 z "},"į":{"ha":288,"x_min":18,"x_max":179,"o":"m 111 -235 q 42 -200 67 -225 q 18 -140 18 -175 q 42 -72 18 -106 q 119 0 67 -37 l 110 0 l 110 722 l 179 722 l 179 0 q 91 -69 117 -40 q 65 -131 65 -99 q 133 -193 65 -183 l 111 -235 m 110 886 l 110 1014 l 179 1014 l 179 886 l 110 886 z "},"İ":{"ha":329,"x_min":129,"x_max":200,"o":"m 129 0 l 129 986 l 200 986 l 200 0 l 129 0 m 132 1149 l 132 1274 l 196 1274 l 196 1149 l 132 1149 z "},"Ĳ":{"ha":993,"x_min":129,"x_max":876,"o":"m 129 0 l 129 986 l 200 986 l 200 0 l 129 0 m 374 103 q 457 65 408 79 q 565 50 506 50 q 693 79 646 50 q 765 164 740 108 q 798 301 790 219 q 806 485 806 382 l 806 986 l 876 986 l 876 485 q 867 280 876 372 q 824 122 857 188 q 731 21 792 57 q 565 -15 669 -15 q 351 46 440 -15 l 374 103 z "},"ĳ":{"ha":585,"x_min":108,"x_max":476,"o":"m 108 0 l 108 722 l 178 722 l 178 0 l 108 0 m 108 886 l 108 1014 l 178 1014 l 178 886 l 108 886 m 274 -246 q 191 -234 229 -246 q 122 -194 153 -222 l 160 -149 q 211 -175 183 -168 q 267 -182 239 -182 q 318 -172 293 -182 q 363 -142 343 -161 q 394 -98 382 -124 q 407 -42 407 -72 l 407 722 l 476 722 l 476 -39 q 459 -122 476 -85 q 413 -187 442 -160 q 347 -231 383 -215 q 274 -246 311 -246 m 407 886 l 407 1014 l 476 1014 l 476 886 l 407 886 z "},"Ĵ":{"ha":664,"x_min":22,"x_max":672,"o":"m 353 1161 l 486 1274 l 538 1274 l 672 1161 l 631 1138 l 513 1225 l 394 1138 l 353 1161 m 44 103 q 128 65 79 79 q 236 50 176 50 q 364 79 317 50 q 436 164 411 108 q 469 301 461 219 q 476 485 476 382 l 476 986 l 547 986 l 547 485 q 538 280 547 372 q 495 122 528 188 q 401 21 463 57 q 236 -15 340 -15 q 22 46 111 -15 l 44 103 z "},"ĵ":{"ha":288,"x_min":-175,"x_max":303,"o":"m -25 -246 q -108 -234 -69 -246 q -175 -194 -146 -222 l -137 -149 q -87 -175 -115 -168 q -31 -182 -58 -182 q 19 -172 -6 -182 q 65 -142 44 -161 q 97 -98 85 -124 q 108 -42 108 -72 l 108 722 l 178 722 l 178 -39 q 160 -122 178 -85 q 115 -187 143 -160 q 49 -231 86 -215 q -25 -246 13 -246 m -17 901 l 117 1014 l 168 1014 l 303 901 l 261 878 l 143 965 l 25 878 l -17 901 z "},"ȷ":{"ha":288,"x_min":-175,"x_max":178,"o":"m -25 -246 q -108 -234 -69 -246 q -175 -194 -146 -222 l -137 -149 q -87 -175 -115 -168 q -31 -182 -58 -182 q 19 -172 -6 -182 q 65 -142 44 -161 q 97 -98 85 -124 q 108 -42 108 -72 l 108 722 l 178 722 l 178 -39 q 160 -122 178 -85 q 115 -187 143 -160 q 49 -231 86 -215 q -25 -246 13 -246 z "},"Ķ":{"ha":882,"x_min":129,"x_max":878,"o":"m 414 -260 l 435 -165 l 413 -165 l 413 -68 l 481 -68 l 481 -165 l 451 -260 l 414 -260 m 129 0 l 129 986 l 200 986 l 200 388 l 775 986 l 857 986 l 447 554 l 878 0 l 797 0 l 401 511 l 200 304 l 200 0 l 129 0 z "},"ķ":{"ha":725,"x_min":108,"x_max":707,"o":"m 340 -260 l 361 -165 l 339 -165 l 339 -68 l 407 -68 l 407 -165 l 378 -260 l 340 -260 m 631 0 l 349 386 l 178 229 l 178 0 l 108 0 l 108 1014 l 178 1014 l 178 306 l 617 721 l 697 721 l 396 428 l 707 0 l 631 0 z "},"ĸ":{"ha":725,"x_min":108,"x_max":707,"o":"m 631 0 l 349 386 l 178 229 l 178 0 l 108 0 l 108 722 l 178 722 l 178 306 l 617 721 l 697 721 l 396 428 l 707 0 l 631 0 z "},"Ĺ":{"ha":807,"x_min":129,"x_max":789,"o":"m 469 1133 l 421 1156 l 506 1274 l 586 1274 l 469 1133 m 129 0 l 129 986 l 200 986 l 200 64 l 789 64 l 789 0 l 129 0 z "},"ĺ":{"ha":360,"x_min":88,"x_max":361,"o":"m 136 1076 l 88 1099 l 172 1217 l 253 1217 l 136 1076 m 114 1014 l 185 1014 l 185 143 q 208 79 185 103 q 271 56 231 56 q 308 59 286 56 q 347 69 329 63 l 361 14 q 303 -2 338 4 q 243 -8 268 -8 q 149 27 185 -8 q 114 122 114 63 l 114 1014 z "},"Ļ":{"ha":807,"x_min":129,"x_max":789,"o":"m 425 -260 l 446 -165 l 424 -165 l 424 -68 l 492 -68 l 492 -165 l 463 -260 l 425 -260 m 129 0 l 129 986 l 200 986 l 200 64 l 789 64 l 789 0 l 129 0 z "},"ļ":{"ha":360,"x_min":114,"x_max":361,"o":"m 199 -260 l 219 -165 l 197 -165 l 197 -68 l 265 -68 l 265 -165 l 236 -260 l 199 -260 m 114 1014 l 185 1014 l 185 143 q 208 79 185 103 q 271 56 231 56 q 308 59 286 56 q 347 69 329 63 l 361 14 q 303 -2 338 4 q 243 -8 268 -8 q 149 27 185 -8 q 114 122 114 63 l 114 1014 z "},"Ľ":{"ha":807,"x_min":129,"x_max":789,"o":"m 517 874 l 468 896 l 553 1014 l 633 1014 l 517 874 m 129 0 l 129 986 l 200 986 l 200 64 l 789 64 l 789 0 l 129 0 z "},"ľ":{"ha":360,"x_min":114,"x_max":415,"o":"m 299 874 l 250 896 l 335 1014 l 415 1014 l 299 874 m 114 1014 l 185 1014 l 185 143 q 208 79 185 103 q 271 56 231 56 q 308 59 286 56 q 347 69 329 63 l 361 14 q 303 -2 338 4 q 243 -8 268 -8 q 149 27 185 -8 q 114 122 114 63 l 114 1014 z "},"Ŀ":{"ha":807,"x_min":129,"x_max":789,"o":"m 129 0 l 129 986 l 200 986 l 200 64 l 789 64 l 789 0 l 129 0 m 508 490 l 508 631 l 569 631 l 569 490 l 508 490 z "},"ŀ":{"ha":406,"x_min":114,"x_max":382,"o":"m 114 1014 l 185 1014 l 185 143 q 208 79 185 103 q 271 56 231 56 q 308 59 286 56 q 347 69 329 63 l 361 14 q 303 -2 338 4 q 243 -8 268 -8 q 149 27 185 -8 q 114 122 114 63 l 114 1014 m 321 360 l 321 500 l 382 500 l 382 360 l 321 360 z "},"Ł":{"ha":817,"x_min":29,"x_max":799,"o":"m 139 0 l 139 388 l 56 314 l 29 357 l 139 454 l 139 986 l 210 986 l 210 518 l 442 725 l 468 683 l 210 451 l 210 64 l 799 64 l 799 0 l 139 0 z "},"ł":{"ha":385,"x_min":17,"x_max":385,"o":"m 138 489 l 44 410 l 17 450 l 138 554 l 138 1014 l 208 1014 l 208 615 l 333 722 l 361 681 l 208 550 l 208 143 q 231 79 208 103 q 294 56 254 56 q 331 59 310 56 q 371 69 353 63 l 385 14 q 326 -2 361 4 q 267 -8 292 -8 q 173 27 208 -8 q 138 122 138 63 l 138 489 z "},"Ń":{"ha":1074,"x_min":129,"x_max":946,"o":"m 540 1133 l 492 1156 l 576 1274 l 657 1274 l 540 1133 m 200 853 l 200 0 l 129 0 l 129 986 l 183 986 l 875 118 l 875 986 l 946 986 l 946 0 l 881 0 l 200 853 z "},"ń":{"ha":800,"x_min":108,"x_max":699,"o":"m 401 874 l 353 896 l 438 1014 l 518 1014 l 401 874 m 699 0 l 629 0 l 629 403 q 590 607 629 543 q 464 671 550 671 q 373 654 418 671 q 289 607 328 638 q 221 535 250 576 q 178 447 192 494 l 178 0 l 108 0 l 108 722 l 174 722 l 174 550 q 228 626 196 592 q 302 684 261 660 q 389 722 343 708 q 483 735 435 735 q 650 652 601 735 q 699 415 699 569 l 699 0 z "},"Ņ":{"ha":1074,"x_min":129,"x_max":946,"o":"m 507 -260 l 528 -165 l 506 -165 l 506 -68 l 574 -68 l 574 -165 l 544 -260 l 507 -260 m 200 853 l 200 0 l 129 0 l 129 986 l 183 986 l 875 118 l 875 986 l 946 986 l 946 0 l 881 0 l 200 853 z "},"ņ":{"ha":800,"x_min":108,"x_max":699,"o":"m 360 -260 l 381 -165 l 358 -165 l 358 -68 l 426 -68 l 426 -165 l 397 -260 l 360 -260 m 699 0 l 629 0 l 629 403 q 590 607 629 543 q 464 671 550 671 q 373 654 418 671 q 289 607 328 638 q 221 535 250 576 q 178 447 192 494 l 178 0 l 108 0 l 108 722 l 174 722 l 174 550 q 228 626 196 592 q 302 684 261 660 q 389 722 343 708 q 483 735 435 735 q 650 652 601 735 q 699 415 699 569 l 699 0 z "},"Ň":{"ha":1074,"x_min":129,"x_max":946,"o":"m 425 1274 l 543 1186 l 661 1274 l 703 1250 l 568 1138 l 517 1138 l 383 1250 l 425 1274 m 200 853 l 200 0 l 129 0 l 129 986 l 183 986 l 875 118 l 875 986 l 946 986 l 946 0 l 881 0 l 200 853 z "},"ň":{"ha":800,"x_min":108,"x_max":699,"o":"m 285 1014 l 403 926 l 521 1014 l 563 990 l 428 878 l 376 878 l 243 990 l 285 1014 m 699 0 l 629 0 l 629 403 q 590 607 629 543 q 464 671 550 671 q 373 654 418 671 q 289 607 328 638 q 221 535 250 576 q 178 447 192 494 l 178 0 l 108 0 l 108 722 l 174 722 l 174 550 q 228 626 196 592 q 302 684 261 660 q 389 722 343 708 q 483 735 435 735 q 650 652 601 735 q 699 415 699 569 l 699 0 z "},"ŉ":{"ha":800,"x_min":3,"x_max":699,"o":"m 50 874 l 3 896 l 57 971 l 57 1014 l 168 1014 l 50 874 m 699 0 l 629 0 l 629 403 q 590 607 629 543 q 464 671 550 671 q 373 654 418 671 q 289 607 328 638 q 221 535 250 576 q 178 447 192 494 l 178 0 l 108 0 l 108 722 l 174 722 l 174 550 q 228 626 196 592 q 302 684 261 660 q 389 722 343 708 q 483 735 435 735 q 650 652 601 735 q 699 415 699 569 l 699 0 z "},"ʼ":{"ha":758,"x_min":310,"x_max":475,"o":"m 357 874 l 310 896 l 364 971 l 364 1014 l 475 1014 l 357 874 z "},"Ŋ":{"ha":1069,"x_min":129,"x_max":940,"o":"m 200 851 l 200 0 l 129 0 l 129 986 l 183 986 l 869 121 l 869 985 l 940 985 l 940 -40 q 922 -124 940 -86 q 876 -188 904 -161 q 811 -231 847 -215 q 738 -246 775 -246 q 655 -234 693 -246 q 586 -194 617 -222 l 624 -149 q 675 -175 647 -168 q 731 -182 703 -182 q 781 -172 756 -182 q 826 -142 807 -161 q 858 -98 846 -124 q 871 -42 871 -72 l 871 6 l 200 851 z "},"ŋ":{"ha":800,"x_min":108,"x_max":699,"o":"m 497 -246 q 414 -234 453 -246 q 346 -194 375 -222 l 383 -149 q 435 -175 407 -168 q 490 -182 463 -182 q 540 -172 515 -182 q 585 -142 565 -161 q 617 -98 606 -124 q 629 -42 629 -72 l 629 403 q 590 607 629 543 q 464 671 550 671 q 373 654 418 671 q 289 607 328 638 q 221 535 250 576 q 178 447 192 494 l 178 0 l 108 0 l 108 722 l 174 722 l 174 550 q 228 626 196 592 q 302 684 261 660 q 389 722 343 708 q 483 735 435 735 q 650 652 601 735 q 699 415 699 569 l 699 -39 q 681 -122 699 -85 q 635 -187 664 -160 q 571 -231 607 -215 q 497 -246 535 -246 z "},"Ō":{"ha":1046,"x_min":61,"x_max":985,"o":"m 326 1193 l 326 1244 l 722 1244 l 722 1193 l 326 1193 m 522 -7 q 335 36 419 -7 q 189 149 250 79 q 94 308 128 218 q 61 493 61 399 q 97 682 61 592 q 194 842 132 772 q 340 952 256 911 q 524 993 425 993 q 712 949 626 993 q 858 835 797 906 q 951 674 918 764 q 985 493 985 585 q 949 303 985 393 q 852 144 914 213 q 706 34 790 75 q 522 -7 621 -7 m 132 493 q 160 330 132 408 q 241 191 189 251 q 365 94 293 131 q 524 58 438 58 q 684 96 613 58 q 806 195 756 133 q 885 335 857 257 q 913 493 913 413 q 883 656 913 578 q 802 795 854 735 q 679 892 750 856 q 524 928 608 928 q 363 890 435 928 q 239 791 290 853 q 160 651 188 729 q 132 493 132 574 z "},"ō":{"ha":822,"x_min":58,"x_max":764,"o":"m 214 933 l 214 985 l 610 985 l 610 933 l 214 933 m 411 -14 q 270 16 335 -14 q 158 97 206 46 q 85 217 111 149 q 58 360 58 285 q 85 504 58 436 q 160 624 113 572 q 272 705 207 675 q 411 735 336 735 q 550 705 486 735 q 662 624 614 675 q 737 504 710 572 q 764 360 764 436 q 737 217 764 285 q 663 97 710 149 q 551 16 615 46 q 411 -14 486 -14 m 128 357 q 150 237 128 293 q 210 139 172 181 q 300 73 249 97 q 410 49 351 49 q 519 73 468 49 q 610 140 571 97 q 671 240 649 183 q 693 361 693 296 q 671 481 693 425 q 610 580 649 538 q 520 647 571 622 q 411 672 469 672 q 301 647 353 672 q 212 579 250 622 q 151 478 174 536 q 128 357 128 421 z "},"Ŏ":{"ha":1046,"x_min":61,"x_max":985,"o":"m 522 -7 q 335 36 419 -7 q 189 149 250 79 q 94 308 128 218 q 61 493 61 399 q 97 682 61 592 q 194 842 132 772 q 340 952 256 911 q 524 993 425 993 q 712 949 626 993 q 858 835 797 906 q 951 674 918 764 q 985 493 985 585 q 949 303 985 393 q 852 144 914 213 q 706 34 790 75 q 522 -7 621 -7 m 132 493 q 160 330 132 408 q 241 191 189 251 q 365 94 293 131 q 524 58 438 58 q 684 96 613 58 q 806 195 756 133 q 885 335 857 257 q 913 493 913 413 q 883 656 913 578 q 802 795 854 735 q 679 892 750 856 q 524 928 608 928 q 363 890 435 928 q 239 791 290 853 q 160 651 188 729 q 132 493 132 574 m 525 1185 q 576 1210 553 1185 q 603 1274 599 1236 l 649 1274 q 639 1224 649 1247 q 612 1183 629 1200 q 572 1156 594 1165 q 525 1146 550 1146 q 477 1156 500 1146 q 438 1183 454 1165 q 411 1224 421 1200 q 401 1274 401 1247 l 447 1274 q 471 1212 447 1239 q 525 1185 494 1185 z "},"ŏ":{"ha":822,"x_min":58,"x_max":764,"o":"m 411 -14 q 270 16 335 -14 q 158 97 206 46 q 85 217 111 149 q 58 360 58 285 q 85 504 58 436 q 160 624 113 572 q 272 705 207 675 q 411 735 336 735 q 550 705 486 735 q 662 624 614 675 q 737 504 710 572 q 764 360 764 436 q 737 217 764 285 q 663 97 710 149 q 551 16 615 46 q 411 -14 486 -14 m 128 357 q 150 237 128 293 q 210 139 172 181 q 300 73 249 97 q 410 49 351 49 q 519 73 468 49 q 610 140 571 97 q 671 240 649 183 q 693 361 693 296 q 671 481 693 425 q 610 580 649 538 q 520 647 571 622 q 411 672 469 672 q 301 647 353 672 q 212 579 250 622 q 151 478 174 536 q 128 357 128 421 m 411 925 q 462 951 439 925 q 489 1014 485 976 l 535 1014 q 525 964 535 988 q 498 923 515 940 q 458 896 481 906 q 411 886 436 886 q 363 896 386 886 q 324 923 340 906 q 297 964 307 940 q 288 1014 288 988 l 333 1014 q 357 952 333 979 q 411 925 381 925 z "},"Ő":{"ha":1046,"x_min":61,"x_max":985,"o":"m 436 1135 l 396 1157 l 478 1275 l 551 1275 l 436 1135 m 597 1135 l 556 1157 l 639 1275 l 713 1275 l 597 1135 m 522 -7 q 335 36 419 -7 q 189 149 250 79 q 94 308 128 218 q 61 493 61 399 q 97 682 61 592 q 194 842 132 772 q 340 952 256 911 q 524 993 425 993 q 712 949 626 993 q 858 835 797 906 q 951 674 918 764 q 985 493 985 585 q 949 303 985 393 q 852 144 914 213 q 706 34 790 75 q 522 -7 621 -7 m 132 493 q 160 330 132 408 q 241 191 189 251 q 365 94 293 131 q 524 58 438 58 q 684 96 613 58 q 806 195 756 133 q 885 335 857 257 q 913 493 913 413 q 883 656 913 578 q 802 795 854 735 q 679 892 750 856 q 524 928 608 928 q 363 890 435 928 q 239 791 290 853 q 160 651 188 729 q 132 493 132 574 z "},"˝":{"ha":439,"x_min":64,"x_max":381,"o":"m 104 874 l 64 896 l 146 1014 l 219 1014 l 104 874 m 265 874 l 224 896 l 307 1014 l 381 1014 l 265 874 z "},"ő":{"ha":822,"x_min":58,"x_max":764,"o":"m 322 874 l 282 896 l 364 1014 l 438 1014 l 322 874 m 483 874 l 442 896 l 525 1014 l 599 1014 l 483 874 m 411 -14 q 270 16 335 -14 q 158 97 206 46 q 85 217 111 149 q 58 360 58 285 q 85 504 58 436 q 160 624 113 572 q 272 705 207 675 q 411 735 336 735 q 550 705 486 735 q 662 624 614 675 q 737 504 710 572 q 764 360 764 436 q 737 217 764 285 q 663 97 710 149 q 551 16 615 46 q 411 -14 486 -14 m 128 357 q 150 237 128 293 q 210 139 172 181 q 300 73 249 97 q 410 49 351 49 q 519 73 468 49 q 610 140 571 97 q 671 240 649 183 q 693 361 693 296 q 671 481 693 425 q 610 580 649 538 q 520 647 571 622 q 411 672 469 672 q 301 647 353 672 q 212 579 250 622 q 151 478 174 536 q 128 357 128 421 z "},"Œ":{"ha":1629,"x_min":61,"x_max":1567,"o":"m 1567 64 l 1567 0 l 915 0 l 915 278 q 853 166 892 218 q 763 76 814 114 q 652 15 713 38 q 525 -7 592 -7 q 337 35 422 -7 q 190 148 251 78 q 95 308 129 218 q 61 493 61 399 q 97 682 61 592 q 194 842 132 772 q 340 952 256 911 q 524 993 425 993 q 655 970 593 993 q 767 908 717 947 q 854 817 817 869 q 915 707 892 765 l 915 986 l 1554 986 l 1554 922 l 985 922 l 985 536 l 1479 536 l 1479 471 l 985 471 l 985 64 l 1567 64 m 524 58 q 684 96 613 58 q 806 195 756 133 q 885 335 857 257 q 913 494 913 413 q 883 657 913 579 q 802 795 854 735 q 679 892 750 856 q 524 928 608 928 q 363 890 435 928 q 239 791 290 853 q 160 651 188 729 q 132 493 132 574 q 160 330 132 408 q 241 191 189 251 q 365 94 293 131 q 524 58 438 58 z "},"œ":{"ha":1444,"x_min":58,"x_max":1400,"o":"m 408 -14 q 271 15 335 -14 q 160 94 207 44 q 85 213 113 144 q 58 358 58 281 q 85 506 58 438 q 160 625 113 574 q 273 706 208 676 q 413 735 338 735 q 516 717 467 735 q 606 668 565 700 q 678 591 647 636 q 726 490 710 546 q 847 670 763 606 q 1047 735 931 735 q 1187 706 1122 735 q 1299 625 1251 678 q 1373 499 1346 572 q 1400 333 1400 425 l 765 333 q 796 219 771 272 q 861 127 821 167 q 954 65 901 88 q 1065 42 1007 42 q 1142 52 1104 42 q 1210 81 1179 63 q 1265 124 1242 99 q 1301 181 1289 150 l 1361 164 q 1314 91 1344 124 q 1244 35 1283 58 q 1157 -1 1204 13 q 1061 -14 1110 -14 q 956 3 1007 -14 q 860 53 904 21 q 783 131 817 86 q 729 229 750 175 q 676 128 708 174 q 602 52 643 83 q 512 3 561 21 q 408 -14 463 -14 m 410 49 q 521 73 469 49 q 610 139 572 97 q 671 238 649 181 q 693 360 693 294 q 671 482 693 425 q 611 581 649 539 q 522 648 574 624 q 413 672 471 672 q 302 647 354 672 q 211 579 250 622 q 150 478 172 536 q 128 356 128 421 q 150 235 128 290 q 210 138 172 179 q 300 72 249 96 q 410 49 351 49 m 1332 385 q 1304 503 1328 449 q 1242 596 1281 557 q 1153 656 1204 635 q 1046 678 1103 678 q 939 656 989 678 q 851 594 889 633 q 791 502 814 556 q 765 385 768 449 l 1332 385 z "},"Ŕ":{"ha":901,"x_min":129,"x_max":840,"o":"m 439 1138 l 390 1160 l 475 1278 l 556 1278 l 439 1138 m 129 0 l 129 986 l 539 986 q 654 960 601 986 q 745 890 707 933 q 805 791 783 846 q 826 681 826 736 q 810 576 826 626 q 763 485 793 525 q 689 418 732 444 q 594 383 646 392 l 840 0 l 758 0 l 519 372 l 200 372 l 200 0 l 129 0 m 200 438 l 546 438 q 632 458 593 438 q 699 513 671 479 q 741 591 726 547 q 756 681 756 635 q 738 772 756 728 q 691 849 721 815 q 622 902 661 882 q 536 922 582 922 l 200 922 l 200 438 z "},"ŕ":{"ha":474,"x_min":108,"x_max":450,"o":"m 265 874 l 217 896 l 301 1014 l 382 1014 l 265 874 m 450 660 q 280 602 353 657 q 178 451 207 547 l 178 0 l 108 0 l 108 722 l 175 722 l 175 544 q 274 669 213 621 q 407 724 336 717 q 432 725 421 725 q 450 725 443 725 l 450 660 z "},"Ŗ":{"ha":901,"x_min":129,"x_max":840,"o":"m 413 -260 l 433 -165 l 411 -165 l 411 -68 l 479 -68 l 479 -165 l 450 -260 l 413 -260 m 129 0 l 129 986 l 539 986 q 654 960 601 986 q 745 890 707 933 q 805 791 783 846 q 826 681 826 736 q 810 576 826 626 q 763 485 793 525 q 689 418 732 444 q 594 383 646 392 l 840 0 l 758 0 l 519 372 l 200 372 l 200 0 l 129 0 m 200 438 l 546 438 q 632 458 593 438 q 699 513 671 479 q 741 591 726 547 q 756 681 756 635 q 738 772 756 728 q 691 849 721 815 q 622 902 661 882 q 536 922 582 922 l 200 922 l 200 438 z "},"ŗ":{"ha":474,"x_min":104,"x_max":450,"o":"m 106 -260 l 126 -165 l 104 -165 l 104 -68 l 172 -68 l 172 -165 l 143 -260 l 106 -260 m 450 660 q 280 602 353 657 q 178 451 207 547 l 178 0 l 108 0 l 108 722 l 175 722 l 175 544 q 274 669 213 621 q 407 724 336 717 q 432 725 421 725 q 450 725 443 725 l 450 660 z "},"Ř":{"ha":901,"x_min":129,"x_max":840,"o":"m 322 1278 l 440 1190 l 558 1278 l 600 1254 l 465 1142 l 414 1142 l 281 1254 l 322 1278 m 129 0 l 129 986 l 539 986 q 654 960 601 986 q 745 890 707 933 q 805 791 783 846 q 826 681 826 736 q 810 576 826 626 q 763 485 793 525 q 689 418 732 444 q 594 383 646 392 l 840 0 l 758 0 l 519 372 l 200 372 l 200 0 l 129 0 m 200 438 l 546 438 q 632 458 593 438 q 699 513 671 479 q 741 591 726 547 q 756 681 756 635 q 738 772 756 728 q 691 849 721 815 q 622 902 661 882 q 536 922 582 922 l 200 922 l 200 438 z "},"ř":{"ha":474,"x_min":107,"x_max":450,"o":"m 149 1014 l 267 926 l 385 1014 l 426 990 l 292 878 l 240 878 l 107 990 l 149 1014 m 450 660 q 280 602 353 657 q 178 451 207 547 l 178 0 l 108 0 l 108 722 l 175 722 l 175 544 q 274 669 213 621 q 407 724 336 717 q 432 725 421 725 q 450 725 443 725 l 450 660 z "},"Ś":{"ha":840,"x_min":49,"x_max":792,"o":"m 432 1160 l 383 1182 l 468 1300 l 549 1300 l 432 1160 m 703 822 q 432 929 607 929 q 222 874 288 929 q 156 726 156 819 q 172 648 156 679 q 224 594 189 617 q 314 557 260 572 q 444 525 368 542 q 588 488 524 508 q 698 438 653 468 q 767 363 743 407 q 792 253 792 318 q 766 139 792 188 q 694 58 740 90 q 583 8 647 25 q 439 -8 518 -8 q 49 139 208 -8 l 86 196 q 239 92 149 131 q 442 54 329 54 q 644 101 571 54 q 717 244 717 149 q 697 327 717 293 q 640 386 678 361 q 543 429 601 411 q 407 464 485 447 q 267 499 328 481 q 166 547 207 518 q 104 615 125 575 q 83 717 83 656 q 109 835 83 783 q 181 922 135 886 q 290 975 226 957 q 432 993 354 993 q 603 965 528 993 q 739 878 678 936 l 703 822 z "},"ś":{"ha":668,"x_min":44,"x_max":615,"o":"m 338 874 l 289 896 l 374 1014 l 454 1014 l 338 874 m 338 -14 q 178 14 254 -14 q 44 97 101 42 l 79 144 q 200 67 138 92 q 338 42 263 42 q 490 81 432 42 q 547 192 547 121 q 533 248 547 225 q 489 287 518 271 q 417 315 460 303 q 317 342 374 328 q 210 369 256 356 q 136 403 165 383 q 92 450 107 422 q 78 521 78 478 q 99 615 78 575 q 156 682 119 656 q 241 722 193 708 q 343 735 289 735 q 493 706 428 735 q 594 633 558 678 l 556 596 q 462 658 519 638 q 339 679 404 679 q 263 671 299 679 q 201 644 228 663 q 160 598 175 626 q 144 531 144 569 q 155 479 144 499 q 188 446 165 460 q 247 422 211 432 q 333 399 283 411 q 454 367 401 382 q 542 329 507 351 q 597 276 578 307 q 615 199 615 246 q 540 44 615 101 q 338 -14 464 -14 z "},"Ŝ":{"ha":840,"x_min":49,"x_max":792,"o":"m 274 1188 l 407 1300 l 458 1300 l 593 1188 l 551 1164 l 433 1251 l 315 1164 l 274 1188 m 703 822 q 432 929 607 929 q 222 874 288 929 q 156 726 156 819 q 172 648 156 679 q 224 594 189 617 q 314 557 260 572 q 444 525 368 542 q 588 488 524 508 q 698 438 653 468 q 767 363 743 407 q 792 253 792 318 q 766 139 792 188 q 694 58 740 90 q 583 8 647 25 q 439 -8 518 -8 q 49 139 208 -8 l 86 196 q 239 92 149 131 q 442 54 329 54 q 644 101 571 54 q 717 244 717 149 q 697 327 717 293 q 640 386 678 361 q 543 429 601 411 q 407 464 485 447 q 267 499 328 481 q 166 547 207 518 q 104 615 125 575 q 83 717 83 656 q 109 835 83 783 q 181 922 135 886 q 290 975 226 957 q 432 993 354 993 q 603 965 528 993 q 739 878 678 936 l 703 822 z "},"ŝ":{"ha":668,"x_min":44,"x_max":615,"o":"m 179 901 l 313 1014 l 364 1014 l 499 901 l 457 878 l 339 965 l 221 878 l 179 901 m 338 -14 q 178 14 254 -14 q 44 97 101 42 l 79 144 q 200 67 138 92 q 338 42 263 42 q 490 81 432 42 q 547 192 547 121 q 533 248 547 225 q 489 287 518 271 q 417 315 460 303 q 317 342 374 328 q 210 369 256 356 q 136 403 165 383 q 92 450 107 422 q 78 521 78 478 q 99 615 78 575 q 156 682 119 656 q 241 722 193 708 q 343 735 289 735 q 493 706 428 735 q 594 633 558 678 l 556 596 q 462 658 519 638 q 339 679 404 679 q 263 671 299 679 q 201 644 228 663 q 160 598 175 626 q 144 531 144 569 q 155 479 144 499 q 188 446 165 460 q 247 422 211 432 q 333 399 283 411 q 454 367 401 382 q 542 329 507 351 q 597 276 578 307 q 615 199 615 246 q 540 44 615 101 q 338 -14 464 -14 z "},"Ş":{"ha":842,"x_min":50,"x_max":793,"o":"m 342 -174 q 394 -192 361 -183 q 463 -200 426 -200 q 543 -149 543 -200 q 524 -110 543 -121 q 475 -99 506 -99 q 414 -106 446 -99 q 363 -118 382 -112 l 424 -8 q 220 31 313 -6 q 50 139 128 67 l 88 196 q 240 92 150 131 q 443 54 331 54 q 645 101 572 54 q 718 244 718 149 q 699 327 718 293 q 641 386 679 361 q 544 429 603 411 q 408 464 486 447 q 269 499 329 481 q 167 547 208 518 q 106 615 126 575 q 85 717 85 656 q 110 835 85 783 q 182 922 136 886 q 292 975 228 957 q 433 993 356 993 q 604 965 529 993 q 740 878 679 936 l 704 822 q 433 929 608 929 q 223 874 289 929 q 157 726 157 819 q 174 648 157 679 q 226 594 190 617 q 315 557 261 572 q 446 525 369 542 q 590 488 525 508 q 699 438 654 468 q 769 363 744 407 q 793 253 793 318 q 770 143 793 190 q 705 63 747 96 q 603 13 663 31 q 471 -7 543 -4 l 431 -74 q 459 -67 443 -68 q 486 -65 475 -65 q 560 -86 533 -65 q 586 -147 586 -107 q 553 -215 586 -192 q 457 -237 519 -237 q 383 -230 417 -237 q 322 -211 349 -222 l 342 -174 z "},"ş":{"ha":669,"x_min":44,"x_max":615,"o":"m 232 -174 q 284 -192 251 -183 q 353 -200 317 -200 q 433 -149 433 -200 q 415 -110 433 -121 q 365 -99 396 -99 q 304 -106 336 -99 q 253 -118 272 -112 l 311 -12 q 166 19 235 -8 q 44 97 97 46 l 79 144 q 200 67 138 92 q 338 42 263 42 q 490 81 432 42 q 547 192 547 121 q 533 248 547 225 q 489 287 518 271 q 417 315 460 303 q 317 342 374 328 q 210 369 256 356 q 136 403 165 383 q 92 450 107 422 q 78 521 78 478 q 99 615 78 575 q 156 682 119 656 q 241 722 193 708 q 343 735 289 735 q 493 706 428 735 q 594 633 558 678 l 556 596 q 462 658 519 638 q 339 679 404 679 q 263 671 299 679 q 201 644 228 663 q 160 598 175 626 q 144 531 144 569 q 155 479 144 499 q 188 446 165 460 q 247 422 211 432 q 333 399 283 411 q 454 367 401 382 q 542 329 507 351 q 597 276 578 307 q 615 199 615 246 q 545 48 615 104 q 357 -12 475 -8 l 321 -74 q 349 -67 333 -68 q 376 -65 365 -65 q 450 -86 424 -65 q 476 -147 476 -107 q 443 -215 476 -192 q 347 -237 410 -237 q 273 -230 307 -237 q 213 -211 239 -222 l 232 -174 z "},"Š":{"ha":840,"x_min":49,"x_max":792,"o":"m 315 1300 l 433 1213 l 551 1300 l 593 1276 l 458 1164 l 407 1164 l 274 1276 l 315 1300 m 703 822 q 432 929 607 929 q 222 874 288 929 q 156 726 156 819 q 172 648 156 679 q 224 594 189 617 q 314 557 260 572 q 444 525 368 542 q 588 488 524 508 q 698 438 653 468 q 767 363 743 407 q 792 253 792 318 q 766 139 792 188 q 694 58 740 90 q 583 8 647 25 q 439 -8 518 -8 q 49 139 208 -8 l 86 196 q 239 92 149 131 q 442 54 329 54 q 644 101 571 54 q 717 244 717 149 q 697 327 717 293 q 640 386 678 361 q 543 429 601 411 q 407 464 485 447 q 267 499 328 481 q 166 547 207 518 q 104 615 125 575 q 83 717 83 656 q 109 835 83 783 q 181 922 135 886 q 290 975 226 957 q 432 993 354 993 q 603 965 528 993 q 739 878 678 936 l 703 822 z "},"š":{"ha":668,"x_min":44,"x_max":615,"o":"m 221 1014 l 339 926 l 457 1014 l 499 990 l 364 878 l 313 878 l 179 990 l 221 1014 m 338 -14 q 178 14 254 -14 q 44 97 101 42 l 79 144 q 200 67 138 92 q 338 42 263 42 q 490 81 432 42 q 547 192 547 121 q 533 248 547 225 q 489 287 518 271 q 417 315 460 303 q 317 342 374 328 q 210 369 256 356 q 136 403 165 383 q 92 450 107 422 q 78 521 78 478 q 99 615 78 575 q 156 682 119 656 q 241 722 193 708 q 343 735 289 735 q 493 706 428 735 q 594 633 558 678 l 556 596 q 462 658 519 638 q 339 679 404 679 q 263 671 299 679 q 201 644 228 663 q 160 598 175 626 q 144 531 144 569 q 155 479 144 499 q 188 446 165 460 q 247 422 211 432 q 333 399 283 411 q 454 367 401 382 q 542 329 507 351 q 597 276 578 307 q 615 199 615 246 q 540 44 615 101 q 338 -14 464 -14 z "},"Ţ":{"ha":840,"x_min":24,"x_max":817,"o":"m 313 -174 q 365 -192 332 -183 q 433 -200 397 -200 q 514 -149 514 -200 q 495 -110 514 -121 q 446 -99 476 -99 q 385 -106 417 -99 q 333 -118 353 -112 l 399 0 l 385 0 l 385 922 l 24 922 l 24 986 l 817 986 l 817 922 l 456 922 l 456 0 l 446 0 l 401 -74 q 430 -67 414 -68 q 457 -65 446 -65 q 531 -86 504 -65 q 557 -147 557 -107 q 524 -215 557 -192 q 428 -237 490 -237 q 353 -230 388 -237 q 293 -211 319 -222 l 313 -174 z "},"ţ":{"ha":444,"x_min":36,"x_max":431,"o":"m 172 -174 q 224 -192 192 -183 q 293 -200 257 -200 q 374 -149 374 -200 q 355 -110 374 -121 q 306 -99 336 -99 q 244 -106 276 -99 q 193 -118 213 -112 l 256 -7 q 172 32 206 0 q 138 121 138 64 l 138 665 l 36 665 l 36 722 l 138 722 l 138 969 l 207 969 l 207 722 l 375 722 l 375 665 l 207 665 l 207 138 q 235 77 207 97 q 297 57 263 57 q 372 72 340 57 q 410 90 403 86 l 431 35 q 386 13 421 28 q 301 -7 351 -3 l 261 -74 q 290 -67 274 -68 q 317 -65 306 -65 q 390 -86 364 -65 q 417 -147 417 -107 q 383 -215 417 -192 q 288 -237 350 -237 q 213 -230 247 -237 q 153 -211 179 -222 l 172 -174 z "},"Ť":{"ha":842,"x_min":25,"x_max":818,"o":"m 306 1274 l 424 1186 l 542 1274 l 583 1250 l 449 1138 l 397 1138 l 264 1250 l 306 1274 m 818 922 l 457 922 l 457 0 l 386 0 l 386 922 l 25 922 l 25 986 l 818 986 l 818 922 z "},"ť":{"ha":444,"x_min":36,"x_max":469,"o":"m 353 874 l 304 896 l 389 1014 l 469 1014 l 353 874 m 431 35 q 412 24 425 32 q 378 10 399 17 q 333 -3 358 3 q 279 -8 308 -8 q 224 0 250 -8 q 179 25 199 8 q 149 65 160 42 q 138 121 138 89 l 138 665 l 36 665 l 36 722 l 138 722 l 138 969 l 207 969 l 207 722 l 375 722 l 375 665 l 207 665 l 207 138 q 235 77 207 97 q 297 57 263 57 q 372 72 340 57 q 410 90 403 86 l 431 35 z "},"Ŧ":{"ha":890,"x_min":49,"x_max":842,"o":"m 842 922 l 481 922 l 481 572 l 797 572 l 797 528 l 481 528 l 481 0 l 410 0 l 410 528 l 93 528 l 93 572 l 410 572 l 410 922 l 49 922 l 49 986 l 842 986 l 842 922 z "},"ŧ":{"ha":447,"x_min":38,"x_max":432,"o":"m 432 35 q 413 24 426 32 q 380 10 400 17 q 335 -3 360 3 q 281 -8 310 -8 q 226 0 251 -8 q 181 25 200 8 q 150 65 161 42 q 139 121 139 89 l 139 443 l 38 443 l 38 493 l 139 493 l 139 665 l 38 665 l 38 722 l 139 722 l 139 969 l 208 969 l 208 722 l 376 722 l 376 665 l 208 665 l 208 493 l 376 493 l 376 443 l 208 443 l 208 138 q 236 77 208 97 q 299 57 264 57 q 373 72 342 57 q 411 90 404 86 l 432 35 z "},"Ũ":{"ha":1050,"x_min":114,"x_max":936,"o":"m 525 58 q 691 96 625 58 q 795 194 757 133 q 849 333 833 256 q 865 490 865 411 l 865 986 l 936 986 l 936 490 q 915 301 936 392 q 844 142 893 211 q 718 33 796 74 q 526 -7 640 -7 q 329 35 408 -7 q 202 148 250 78 q 134 307 154 218 q 114 490 114 396 l 114 986 l 185 986 l 185 490 q 201 331 185 408 q 256 192 217 253 q 361 95 296 132 q 525 58 426 58 m 611 1158 q 557 1167 581 1158 q 514 1185 533 1175 q 476 1205 494 1196 q 436 1214 457 1214 q 399 1204 413 1214 q 378 1183 385 1194 q 368 1160 371 1171 q 365 1147 365 1150 l 318 1147 q 322 1172 318 1153 q 340 1210 326 1190 q 376 1247 353 1231 q 436 1263 399 1263 q 485 1253 464 1263 q 526 1234 507 1244 q 566 1215 546 1224 q 613 1207 586 1207 q 656 1217 640 1207 q 680 1238 672 1226 q 690 1260 688 1250 q 692 1274 692 1271 l 739 1274 q 734 1248 739 1267 q 716 1210 729 1229 q 678 1174 703 1190 q 611 1158 653 1158 z "},"ũ":{"ha":815,"x_min":101,"x_max":732,"o":"m 332 -14 q 101 306 101 -14 l 101 722 l 171 722 l 171 315 q 353 49 171 49 q 442 65 399 49 q 522 109 485 81 q 588 178 560 138 q 633 267 617 218 l 633 722 l 703 722 l 703 97 q 732 63 703 63 l 732 0 q 719 -1 725 -1 q 711 -1 714 -1 q 662 16 683 -1 q 640 63 640 33 l 640 171 q 510 35 593 83 q 332 -14 428 -14 m 485 899 q 431 907 454 899 q 388 926 407 915 q 349 945 368 936 q 310 954 331 954 q 272 944 286 954 q 251 923 258 935 q 242 901 244 911 q 239 888 239 890 l 192 888 q 196 912 192 893 q 213 951 200 931 q 249 987 226 971 q 310 1003 272 1003 q 359 994 338 1003 q 400 974 381 985 q 440 956 419 964 q 486 947 460 947 q 530 957 514 947 q 553 978 546 967 q 563 1001 561 990 q 565 1014 565 1011 l 613 1014 q 608 988 613 1007 q 590 950 603 969 q 551 915 576 931 q 485 899 526 899 z "},"Ū":{"ha":1050,"x_min":114,"x_max":936,"o":"m 525 58 q 691 96 625 58 q 795 194 757 133 q 849 333 833 256 q 865 490 865 411 l 865 986 l 936 986 l 936 490 q 915 301 936 392 q 844 142 893 211 q 718 33 796 74 q 526 -7 640 -7 q 329 35 408 -7 q 202 148 250 78 q 134 307 154 218 q 114 490 114 396 l 114 986 l 185 986 l 185 490 q 201 331 185 408 q 256 192 217 253 q 361 95 296 132 q 525 58 426 58 m 328 1193 l 328 1244 l 724 1244 l 724 1193 l 328 1193 z "},"ū":{"ha":815,"x_min":101,"x_max":732,"o":"m 332 -14 q 101 306 101 -14 l 101 722 l 171 722 l 171 315 q 353 49 171 49 q 442 65 399 49 q 522 109 485 81 q 588 178 560 138 q 633 267 617 218 l 633 722 l 703 722 l 703 97 q 732 63 703 63 l 732 0 q 719 -1 725 -1 q 711 -1 714 -1 q 662 16 683 -1 q 640 63 640 33 l 640 171 q 510 35 593 83 q 332 -14 428 -14 m 201 933 l 201 985 l 597 985 l 597 933 l 201 933 z "},"Ŭ":{"ha":1050,"x_min":114,"x_max":936,"o":"m 525 58 q 691 96 625 58 q 795 194 757 133 q 849 333 833 256 q 865 490 865 411 l 865 986 l 936 986 l 936 490 q 915 301 936 392 q 844 142 893 211 q 718 33 796 74 q 526 -7 640 -7 q 329 35 408 -7 q 202 148 250 78 q 134 307 154 218 q 114 490 114 396 l 114 986 l 185 986 l 185 490 q 201 331 185 408 q 256 192 217 253 q 361 95 296 132 q 525 58 426 58 m 526 1185 q 577 1210 554 1185 q 604 1274 600 1236 l 650 1274 q 640 1224 650 1247 q 613 1183 631 1200 q 574 1156 596 1165 q 526 1146 551 1146 q 478 1156 501 1146 q 439 1183 456 1165 q 413 1224 422 1200 q 403 1274 403 1247 l 449 1274 q 472 1212 449 1239 q 526 1185 496 1185 z "},"ŭ":{"ha":815,"x_min":101,"x_max":732,"o":"m 332 -14 q 101 306 101 -14 l 101 722 l 171 722 l 171 315 q 353 49 171 49 q 442 65 399 49 q 522 109 485 81 q 588 178 560 138 q 633 267 617 218 l 633 722 l 703 722 l 703 97 q 732 63 703 63 l 732 0 q 719 -1 725 -1 q 711 -1 714 -1 q 662 16 683 -1 q 640 63 640 33 l 640 171 q 510 35 593 83 q 332 -14 428 -14 m 400 925 q 451 951 428 925 q 478 1014 474 976 l 524 1014 q 514 964 524 988 q 487 923 504 940 q 447 896 469 906 q 400 886 425 886 q 352 896 375 886 q 313 923 329 906 q 286 964 296 940 q 276 1014 276 988 l 322 1014 q 346 952 322 979 q 400 925 369 925 z "},"Ů":{"ha":1050,"x_min":114,"x_max":936,"o":"m 431 1188 q 458 1249 431 1225 q 525 1274 485 1274 q 592 1249 565 1274 q 619 1188 619 1225 q 592 1124 619 1149 q 525 1100 565 1100 q 458 1124 485 1100 q 431 1188 431 1149 m 525 1242 q 485 1227 501 1242 q 469 1188 469 1213 q 485 1148 469 1164 q 525 1132 501 1132 q 565 1148 547 1132 q 582 1188 582 1164 q 565 1227 582 1213 q 525 1242 549 1242 m 525 58 q 691 96 625 58 q 795 194 757 133 q 849 333 833 256 q 865 490 865 411 l 865 986 l 936 986 l 936 490 q 915 301 936 392 q 844 142 893 211 q 718 33 796 74 q 526 -7 640 -7 q 329 35 408 -7 q 202 148 250 78 q 134 307 154 218 q 114 490 114 396 l 114 986 l 185 986 l 185 490 q 201 331 185 408 q 256 192 217 253 q 361 95 296 132 q 525 58 426 58 z "},"ů":{"ha":815,"x_min":101,"x_max":732,"o":"m 304 928 q 331 990 304 965 q 399 1014 358 1014 q 466 990 439 1014 q 493 928 493 965 q 466 865 493 889 q 399 840 439 840 q 331 865 358 840 q 304 928 304 889 m 399 982 q 359 967 375 982 q 343 928 343 953 q 359 888 343 904 q 399 872 375 872 q 438 888 421 872 q 456 928 456 904 q 439 967 456 953 q 399 982 422 982 m 332 -14 q 101 306 101 -14 l 101 722 l 171 722 l 171 315 q 353 49 171 49 q 442 65 399 49 q 522 109 485 81 q 588 178 560 138 q 633 267 617 218 l 633 722 l 703 722 l 703 97 q 732 63 703 63 l 732 0 q 719 -1 725 -1 q 711 -1 714 -1 q 662 16 683 -1 q 640 63 640 33 l 640 171 q 510 35 593 83 q 332 -14 428 -14 z "},"Ű":{"ha":1050,"x_min":114,"x_max":936,"o":"m 525 58 q 691 96 625 58 q 795 194 757 133 q 849 333 833 256 q 865 490 865 411 l 865 986 l 936 986 l 936 490 q 915 301 936 392 q 844 142 893 211 q 718 33 796 74 q 526 -7 640 -7 q 329 35 408 -7 q 202 148 250 78 q 134 307 154 218 q 114 490 114 396 l 114 986 l 185 986 l 185 490 q 201 331 185 408 q 256 192 217 253 q 361 95 296 132 q 525 58 426 58 m 438 1135 l 397 1157 l 479 1275 l 553 1275 l 438 1135 m 599 1135 l 557 1157 l 640 1275 l 714 1275 l 599 1135 z "},"ű":{"ha":815,"x_min":101,"x_max":732,"o":"m 332 -14 q 101 306 101 -14 l 101 722 l 171 722 l 171 315 q 353 49 171 49 q 442 65 399 49 q 522 109 485 81 q 588 178 560 138 q 633 267 617 218 l 633 722 l 703 722 l 703 97 q 732 63 703 63 l 732 0 q 719 -1 725 -1 q 711 -1 714 -1 q 662 16 683 -1 q 640 63 640 33 l 640 171 q 510 35 593 83 q 332 -14 428 -14 m 311 874 l 271 896 l 353 1014 l 426 1014 l 311 874 m 472 874 l 431 896 l 514 1014 l 588 1014 l 472 874 z "},"Ų":{"ha":1050,"x_min":114,"x_max":936,"o":"m 525 58 q 691 96 625 58 q 795 194 757 133 q 849 333 833 256 q 865 490 865 411 l 865 986 l 936 986 l 936 490 q 915 305 936 393 q 849 149 894 217 q 728 40 803 82 q 547 -6 654 -1 q 462 -74 486 -46 q 438 -135 438 -103 q 506 -197 438 -187 l 483 -239 q 415 -204 439 -229 q 390 -144 390 -179 q 414 -76 390 -110 q 490 -6 438 -43 q 311 46 383 1 q 195 159 239 90 q 133 314 151 228 q 114 490 114 400 l 114 986 l 185 986 l 185 490 q 201 331 185 408 q 256 192 217 253 q 361 95 296 132 q 525 58 426 58 z "},"ų":{"ha":815,"x_min":101,"x_max":732,"o":"m 332 -14 q 101 306 101 -14 l 101 722 l 171 722 l 171 315 q 353 49 171 49 q 442 65 399 49 q 522 109 485 81 q 588 178 560 138 q 633 267 617 218 l 633 722 l 703 722 l 703 97 q 732 63 703 63 l 732 0 q 644 -69 669 -40 q 618 -131 618 -99 q 686 -193 618 -183 l 664 -235 q 595 -200 619 -225 q 571 -140 571 -175 q 597 -69 571 -104 q 679 4 622 -35 q 651 26 663 11 q 640 63 640 42 l 640 171 q 510 35 593 83 q 332 -14 428 -14 z "},"Ŵ":{"ha":1449,"x_min":21,"x_max":1429,"o":"m 564 1161 l 697 1274 l 749 1274 l 883 1161 l 842 1138 l 724 1225 l 606 1138 l 564 1161 m 507 979 l 576 979 l 724 621 l 871 979 l 940 979 l 767 564 l 974 83 l 1351 986 l 1429 986 l 1007 0 l 942 0 l 725 507 l 507 0 l 442 0 l 21 986 l 97 986 l 476 83 l 681 564 l 507 979 z "},"ŵ":{"ha":1119,"x_min":26,"x_max":1093,"o":"m 400 901 l 533 1014 l 585 1014 l 719 901 l 678 878 l 560 965 l 442 878 l 400 901 m 1024 722 l 1093 722 l 781 0 l 722 0 l 560 382 l 397 0 l 339 0 l 26 722 l 94 722 l 371 76 l 522 432 l 400 721 l 460 721 l 560 482 l 658 721 l 719 721 l 597 432 l 749 76 l 1024 722 z "},"Ŷ":{"ha":899,"x_min":26,"x_max":874,"o":"m 104 986 l 449 440 l 794 986 l 874 986 l 485 372 l 485 0 l 414 0 l 414 375 l 26 986 l 104 986 m 289 1161 l 422 1274 l 474 1274 l 608 1161 l 567 1138 l 449 1225 l 331 1138 l 289 1161 z "},"ŷ":{"ha":750,"x_min":24,"x_max":719,"o":"m 157 -244 q 178 -246 164 -246 q 203 -244 192 -246 q 226 -237 215 -243 q 242 -226 235 -233 q 261 -194 249 -218 q 293 -125 274 -171 q 346 0 313 -79 l 24 722 l 96 722 l 383 68 l 651 722 l 719 722 l 324 -228 q 274 -288 308 -267 q 182 -310 240 -310 q 170 -310 176 -310 q 157 -308 164 -310 l 157 -244 m 224 901 l 357 1014 l 408 1014 l 543 901 l 501 878 l 383 965 l 265 878 l 224 901 z "},"Ÿ":{"ha":899,"x_min":26,"x_max":874,"o":"m 104 986 l 449 440 l 794 986 l 874 986 l 485 372 l 485 0 l 414 0 l 414 375 l 26 986 l 104 986 m 324 1150 l 324 1272 l 385 1272 l 385 1150 l 324 1150 m 513 1150 l 513 1272 l 574 1272 l 574 1150 l 513 1150 z "},"Ź":{"ha":871,"x_min":42,"x_max":826,"o":"m 458 1133 l 410 1156 l 494 1274 l 575 1274 l 458 1133 m 42 58 l 743 922 l 51 922 l 51 986 l 826 986 l 826 928 l 131 64 l 824 64 l 824 0 l 42 0 l 42 58 z "},"ź":{"ha":681,"x_min":44,"x_max":633,"o":"m 356 874 l 307 896 l 392 1014 l 472 1014 l 356 874 m 44 50 l 556 668 l 53 668 l 53 722 l 633 722 l 633 672 l 124 54 l 631 54 l 631 0 l 44 0 l 44 50 z "},"Ż":{"ha":871,"x_min":42,"x_max":826,"o":"m 42 58 l 743 922 l 51 922 l 51 986 l 826 986 l 826 928 l 131 64 l 824 64 l 824 0 l 42 0 l 42 58 m 426 1149 l 426 1274 l 490 1274 l 490 1149 l 426 1149 z "},"ż":{"ha":681,"x_min":44,"x_max":633,"o":"m 44 50 l 556 668 l 53 668 l 53 722 l 633 722 l 633 672 l 124 54 l 631 54 l 631 0 l 44 0 l 44 50 m 325 889 l 325 1014 l 389 1014 l 389 889 l 325 889 z "},"Ž":{"ha":871,"x_min":42,"x_max":826,"o":"m 342 1274 l 460 1186 l 578 1274 l 619 1250 l 485 1138 l 433 1138 l 300 1250 l 342 1274 m 42 58 l 743 922 l 51 922 l 51 986 l 826 986 l 826 928 l 131 64 l 824 64 l 824 0 l 42 0 l 42 58 z "},"ž":{"ha":681,"x_min":44,"x_max":633,"o":"m 239 1014 l 357 926 l 475 1014 l 517 990 l 382 878 l 331 878 l 197 990 l 239 1014 m 44 50 l 556 668 l 53 668 l 53 722 l 633 722 l 633 672 l 124 54 l 631 54 l 631 0 l 44 0 l 44 50 z "},"Ə":{"ha":1025,"x_min":42,"x_max":963,"o":"m 507 -11 q 324 28 408 -11 q 176 135 239 67 q 78 293 114 203 q 42 488 42 383 q 42 506 42 494 q 44 521 43 518 l 885 521 q 844 683 878 608 q 759 811 811 757 q 640 896 707 865 q 497 926 572 926 q 395 912 444 926 q 303 870 346 897 q 228 806 260 843 q 179 724 196 769 l 111 756 q 174 851 133 807 q 267 926 215 894 q 381 975 319 957 q 504 993 442 993 q 682 953 599 993 q 828 844 765 913 q 926 683 890 775 q 963 485 963 590 q 927 290 963 381 q 830 133 892 200 q 685 28 768 67 q 507 -11 603 -11 m 507 56 q 651 86 583 56 q 769 170 718 117 q 851 297 819 224 q 886 457 882 371 l 119 457 q 157 297 125 371 q 241 170 189 224 q 361 86 293 117 q 507 56 429 56 z "},"ƒ":{"ha":721,"x_min":42,"x_max":675,"o":"m 193 -246 q 110 -234 149 -246 q 42 -194 72 -222 l 79 -149 q 131 -175 103 -168 q 186 -182 158 -182 q 238 -172 213 -182 q 282 -142 263 -161 q 314 -98 301 -124 q 326 -42 326 -72 l 326 581 l 224 581 l 224 638 l 326 638 l 326 746 q 381 953 326 879 q 531 1028 435 1028 q 610 1015 571 1028 q 675 982 649 1003 l 649 932 q 601 957 631 947 q 542 967 572 967 q 433 910 471 967 q 396 747 396 854 l 396 638 l 601 638 l 601 581 l 396 581 l 396 -40 q 378 -124 396 -86 q 332 -188 361 -161 q 267 -231 303 -215 q 193 -246 231 -246 z "},"Ǆ":{"ha":1861,"x_min":129,"x_max":1817,"o":"m 1332 1274 l 1450 1186 l 1568 1274 l 1610 1250 l 1475 1138 l 1424 1138 l 1290 1250 l 1332 1274 m 1032 58 l 1733 922 l 1042 922 l 1042 986 l 1817 986 l 1817 928 l 1121 64 l 1814 64 l 1814 0 l 1032 0 l 1032 58 m 129 0 l 129 986 l 457 986 q 662 947 574 986 q 808 842 750 908 q 896 685 867 775 q 925 494 925 596 q 892 291 925 382 q 799 135 860 200 q 651 35 738 71 q 457 0 564 0 l 129 0 m 854 494 q 828 666 854 588 q 751 801 801 744 q 626 890 700 858 q 457 922 553 922 l 200 922 l 200 64 l 457 64 q 628 97 554 64 q 753 188 703 129 q 828 324 803 246 q 854 494 854 403 z "},"ǅ":{"ha":1671,"x_min":129,"x_max":1624,"o":"m 1229 1014 l 1347 926 l 1465 1014 l 1507 990 l 1372 878 l 1321 878 l 1188 990 l 1229 1014 m 1035 50 l 1546 668 l 1043 668 l 1043 722 l 1624 722 l 1624 672 l 1114 54 l 1621 54 l 1621 0 l 1035 0 l 1035 50 m 129 0 l 129 986 l 457 986 q 662 947 574 986 q 808 842 750 908 q 896 685 867 775 q 925 494 925 596 q 892 291 925 382 q 799 135 860 200 q 651 35 738 71 q 457 0 564 0 l 129 0 m 854 494 q 828 666 854 588 q 751 801 801 744 q 626 890 700 858 q 457 922 553 922 l 200 922 l 200 64 l 457 64 q 628 97 554 64 q 753 188 703 129 q 828 324 803 246 q 854 494 854 403 z "},"ǆ":{"ha":1535,"x_min":58,"x_max":1488,"o":"m 1093 1014 l 1211 926 l 1329 1014 l 1371 990 l 1236 878 l 1185 878 l 1051 990 l 1093 1014 m 899 50 l 1410 668 l 907 668 l 907 722 l 1488 722 l 1488 672 l 978 54 l 1485 54 l 1485 0 l 899 0 l 899 50 m 406 -14 q 267 17 331 -14 q 156 101 203 49 q 84 220 110 153 q 58 360 58 288 q 83 503 58 435 q 153 622 108 571 q 258 704 197 674 q 390 735 318 735 q 479 721 438 735 q 557 684 521 707 q 622 631 593 661 q 672 565 651 600 l 672 1014 l 742 1014 l 742 97 q 771 63 742 63 l 771 0 q 757 -2 763 -1 q 746 -3 751 -3 q 699 19 718 -3 q 679 64 679 40 l 679 144 q 560 29 635 72 q 406 -14 486 -14 m 418 49 q 499 64 456 49 q 578 106 542 79 q 642 168 615 133 q 672 243 668 203 l 672 481 q 628 555 657 519 q 564 616 600 590 q 486 657 528 642 q 406 672 444 672 q 292 645 343 672 q 204 574 240 618 q 149 474 168 531 q 129 358 129 418 q 151 240 129 296 q 213 142 174 185 q 305 74 253 99 q 418 49 357 49 z "},"Ǉ":{"ha":1472,"x_min":129,"x_max":1354,"o":"m 851 103 q 935 65 886 79 q 1043 50 983 50 q 1171 79 1124 50 q 1243 164 1218 108 q 1276 301 1268 219 q 1283 485 1283 382 l 1283 986 l 1354 986 l 1354 485 q 1344 280 1354 372 q 1302 122 1335 188 q 1208 21 1269 57 q 1043 -15 1147 -15 q 829 46 918 -15 l 851 103 m 129 0 l 129 986 l 200 986 l 200 64 l 789 64 l 789 0 l 129 0 z "},"ǈ":{"ha":1104,"x_min":129,"x_max":996,"o":"m 793 -246 q 710 -234 749 -246 q 642 -194 672 -222 l 679 -149 q 731 -175 703 -168 q 786 -182 758 -182 q 838 -172 813 -182 q 882 -142 863 -161 q 914 -98 901 -124 q 926 -42 926 -72 l 926 722 l 996 722 l 996 -39 q 978 -122 996 -85 q 932 -187 961 -160 q 867 -231 903 -215 q 793 -246 831 -246 m 926 886 l 926 1014 l 996 1014 l 996 886 l 926 886 m 129 0 l 129 986 l 200 986 l 200 64 l 789 64 l 789 0 l 129 0 z "},"ǉ":{"ha":657,"x_min":114,"x_max":549,"o":"m 346 -246 q 263 -234 301 -246 q 194 -194 225 -222 l 232 -149 q 283 -175 256 -168 q 339 -182 311 -182 q 390 -172 365 -182 q 435 -142 415 -161 q 467 -98 454 -124 q 479 -42 479 -72 l 479 722 l 549 722 l 549 -39 q 531 -122 549 -85 q 485 -187 514 -160 q 419 -231 456 -215 q 346 -246 383 -246 m 479 886 l 479 1014 l 549 1014 l 549 886 l 479 886 m 114 1014 l 185 1014 l 185 143 q 208 79 185 103 q 271 56 231 56 q 308 59 286 56 q 347 69 329 63 l 361 14 q 303 -2 338 4 q 243 -8 268 -8 q 149 27 185 -8 q 114 122 114 63 l 114 1014 z "},"Ǌ":{"ha":1739,"x_min":129,"x_max":1621,"o":"m 1118 103 q 1201 65 1153 79 q 1310 50 1250 50 q 1438 79 1390 50 q 1510 164 1485 108 q 1542 301 1535 219 q 1550 485 1550 382 l 1550 986 l 1621 986 l 1621 485 q 1611 280 1621 372 q 1569 122 1601 188 q 1475 21 1536 57 q 1310 -15 1414 -15 q 1096 46 1185 -15 l 1118 103 m 200 853 l 200 0 l 129 0 l 129 986 l 183 986 l 875 118 l 875 986 l 946 986 l 946 0 l 881 0 l 200 853 z "},"ǋ":{"ha":1371,"x_min":129,"x_max":1263,"o":"m 1060 -246 q 977 -234 1015 -246 q 908 -194 939 -222 l 946 -149 q 997 -175 969 -168 q 1053 -182 1025 -182 q 1104 -172 1079 -182 q 1149 -142 1129 -161 q 1181 -98 1168 -124 q 1193 -42 1193 -72 l 1193 722 l 1263 722 l 1263 -39 q 1245 -122 1263 -85 q 1199 -187 1228 -160 q 1133 -231 1169 -215 q 1060 -246 1097 -246 m 1193 886 l 1193 1014 l 1263 1014 l 1263 886 l 1193 886 m 200 853 l 200 0 l 129 0 l 129 986 l 183 986 l 875 118 l 875 986 l 946 986 l 946 0 l 881 0 l 200 853 z "},"ǌ":{"ha":1097,"x_min":108,"x_max":989,"o":"m 786 -246 q 703 -234 742 -246 q 635 -194 665 -222 l 672 -149 q 724 -175 696 -168 q 779 -182 751 -182 q 831 -172 806 -182 q 875 -142 856 -161 q 907 -98 894 -124 q 919 -42 919 -72 l 919 722 l 989 722 l 989 -39 q 972 -122 989 -85 q 925 -187 954 -160 q 860 -231 896 -215 q 786 -246 824 -246 m 919 886 l 919 1014 l 989 1014 l 989 886 l 919 886 m 699 0 l 629 0 l 629 403 q 590 607 629 543 q 464 671 550 671 q 373 654 418 671 q 289 607 328 638 q 221 535 250 576 q 178 447 192 494 l 178 0 l 108 0 l 108 722 l 174 722 l 174 550 q 228 626 196 592 q 302 684 261 660 q 389 722 343 708 q 483 735 435 735 q 650 652 601 735 q 699 415 699 569 l 699 0 z "},"Ǫ":{"ha":1046,"x_min":61,"x_max":985,"o":"m 482 -239 q 413 -204 438 -229 q 389 -144 389 -179 q 413 -76 389 -110 q 489 -6 436 -43 q 314 47 393 1 q 178 160 235 92 q 92 315 122 229 q 61 493 61 401 q 97 682 61 592 q 194 842 132 772 q 340 952 256 911 q 524 993 425 993 q 712 949 626 993 q 858 835 797 906 q 951 674 918 764 q 985 493 985 585 q 951 309 985 397 q 860 153 918 221 q 721 42 801 85 q 547 -6 640 0 q 460 -74 485 -46 q 436 -135 436 -103 q 504 -197 436 -187 l 482 -239 m 132 493 q 160 330 132 408 q 241 191 189 251 q 365 94 293 131 q 524 58 438 58 q 684 96 613 58 q 806 195 756 133 q 885 335 857 257 q 913 493 913 413 q 883 656 913 578 q 802 795 854 735 q 679 892 750 856 q 524 928 608 928 q 363 890 435 928 q 239 791 290 853 q 160 651 188 729 q 132 493 132 574 z "},"ǫ":{"ha":822,"x_min":58,"x_max":764,"o":"m 389 -244 q 320 -210 344 -235 q 296 -150 296 -185 q 319 -83 296 -115 q 392 -12 342 -50 q 258 22 319 -8 q 153 103 197 53 q 83 220 108 154 q 58 360 58 286 q 85 504 58 436 q 160 624 113 572 q 272 705 207 675 q 411 735 336 735 q 550 705 486 735 q 662 624 614 675 q 737 504 710 572 q 764 360 764 436 q 741 226 764 289 q 676 113 718 163 q 578 30 635 63 q 454 -11 521 -3 q 367 -80 392 -51 q 343 -140 343 -108 q 411 -203 343 -193 l 389 -244 m 128 357 q 150 237 128 293 q 210 139 172 181 q 300 73 249 97 q 410 49 351 49 q 519 73 468 49 q 610 140 571 97 q 671 240 649 183 q 693 361 693 296 q 671 481 693 425 q 610 580 649 538 q 520 647 571 622 q 411 672 469 672 q 301 647 353 672 q 212 579 250 622 q 151 478 174 536 q 128 357 128 421 z "},"Ǳ":{"ha":1840,"x_min":129,"x_max":1794,"o":"m 1010 58 l 1711 922 l 1019 922 l 1019 986 l 1794 986 l 1794 928 l 1099 64 l 1792 64 l 1792 0 l 1010 0 l 1010 58 m 129 0 l 129 986 l 457 986 q 662 947 574 986 q 808 842 750 908 q 896 685 867 775 q 925 494 925 596 q 892 291 925 382 q 799 135 860 200 q 651 35 738 71 q 457 0 564 0 l 129 0 m 854 494 q 828 666 854 588 q 751 801 801 744 q 626 890 700 858 q 457 922 553 922 l 200 922 l 200 64 l 457 64 q 628 97 554 64 q 753 188 703 129 q 828 324 803 246 q 854 494 854 403 z "},"ǲ":{"ha":1671,"x_min":129,"x_max":1624,"o":"m 1035 50 l 1546 668 l 1043 668 l 1043 722 l 1624 722 l 1624 672 l 1114 54 l 1621 54 l 1621 0 l 1035 0 l 1035 50 m 129 0 l 129 986 l 457 986 q 662 947 574 986 q 808 842 750 908 q 896 685 867 775 q 925 494 925 596 q 892 291 925 382 q 799 135 860 200 q 651 35 738 71 q 457 0 564 0 l 129 0 m 854 494 q 828 666 854 588 q 751 801 801 744 q 626 890 700 858 q 457 922 553 922 l 200 922 l 200 64 l 457 64 q 628 97 554 64 q 753 188 703 129 q 828 324 803 246 q 854 494 854 403 z "},"ǳ":{"ha":1535,"x_min":58,"x_max":1488,"o":"m 899 50 l 1410 668 l 907 668 l 907 722 l 1488 722 l 1488 672 l 978 54 l 1485 54 l 1485 0 l 899 0 l 899 50 m 406 -14 q 267 17 331 -14 q 156 101 203 49 q 84 220 110 153 q 58 360 58 288 q 83 503 58 435 q 153 622 108 571 q 258 704 197 674 q 390 735 318 735 q 479 721 438 735 q 557 684 521 707 q 622 631 593 661 q 672 565 651 600 l 672 1014 l 742 1014 l 742 97 q 771 63 742 63 l 771 0 q 757 -2 763 -1 q 746 -3 751 -3 q 699 19 718 -3 q 679 64 679 40 l 679 144 q 560 29 635 72 q 406 -14 486 -14 m 418 49 q 499 64 456 49 q 578 106 542 79 q 642 168 615 133 q 672 243 668 203 l 672 481 q 628 555 657 519 q 564 616 600 590 q 486 657 528 642 q 406 672 444 672 q 292 645 343 672 q 204 574 240 618 q 149 474 168 531 q 129 358 129 418 q 151 240 129 296 q 213 142 174 185 q 305 74 253 99 q 418 49 357 49 z "},"Ǵ":{"ha":996,"x_min":61,"x_max":917,"o":"m 515 1133 l 467 1156 l 551 1274 l 632 1274 l 515 1133 m 856 154 q 524 -7 713 -7 q 338 36 424 -7 q 192 150 253 79 q 96 311 131 221 q 61 494 61 401 q 95 682 61 592 q 190 842 129 772 q 333 952 250 911 q 515 993 417 993 q 648 977 589 993 q 753 933 707 961 q 834 865 800 904 q 892 778 868 825 l 833 743 q 701 884 783 840 q 514 928 618 928 q 356 890 426 928 q 235 792 285 853 q 158 653 185 731 q 132 493 132 575 q 163 327 132 406 q 247 189 193 249 q 372 94 300 129 q 528 58 444 58 q 699 100 618 58 q 856 232 781 142 l 856 422 l 632 422 l 632 479 l 917 479 l 917 0 l 856 0 l 856 154 z "},"ǵ":{"ha":850,"x_min":58,"x_max":742,"o":"m 417 874 l 368 896 l 453 1014 l 533 1014 l 417 874 m 400 -11 q 263 20 325 -11 q 155 103 200 51 q 84 222 110 156 q 58 360 58 289 q 83 501 58 433 q 151 622 107 569 q 258 704 196 674 q 394 735 319 735 q 559 685 489 735 q 678 565 629 636 l 678 722 l 742 722 l 742 -14 q 714 -143 742 -87 q 640 -235 686 -199 q 531 -291 593 -272 q 401 -310 469 -310 q 289 -298 339 -310 q 201 -265 239 -286 q 133 -212 163 -243 q 81 -143 103 -181 l 128 -111 q 244 -219 171 -185 q 401 -253 318 -253 q 506 -237 457 -253 q 592 -192 556 -222 q 651 -118 629 -162 q 672 -14 672 -74 l 672 144 q 554 31 628 74 q 400 -11 481 -11 m 417 49 q 506 66 463 49 q 585 111 550 83 q 644 174 621 139 q 672 243 667 208 l 672 481 q 628 558 656 522 q 565 618 600 593 q 488 658 529 643 q 406 672 447 672 q 289 644 340 672 q 202 572 238 617 q 148 472 167 528 q 129 358 129 415 q 151 240 129 296 q 213 142 174 185 q 304 74 251 99 q 417 49 357 49 z "},"Ǻ":{"ha":938,"x_min":19,"x_max":917,"o":"m 374 1042 q 401 1103 374 1079 q 468 1128 428 1128 q 535 1103 508 1128 q 563 1042 563 1079 q 548 993 563 1014 q 510 963 533 972 l 917 0 l 842 0 l 704 325 l 233 325 l 96 0 l 19 0 l 428 961 q 388 992 403 971 q 374 1042 374 1014 m 685 383 l 469 900 l 250 383 l 685 383 m 468 1096 q 428 1081 444 1096 q 413 1042 413 1067 q 428 1002 413 1018 q 468 986 444 986 q 508 1002 490 986 q 525 1042 525 1018 q 508 1081 525 1067 q 468 1096 492 1096 m 472 1138 l 424 1160 l 508 1275 l 589 1275 l 472 1138 z "},"ǻ":{"ha":746,"x_min":49,"x_max":674,"o":"m 286 -14 q 193 3 236 -14 q 117 51 150 21 q 67 122 85 81 q 49 210 49 163 q 71 296 49 257 q 133 363 93 335 q 228 408 172 392 q 350 424 283 424 q 467 413 408 424 q 574 385 526 403 l 574 456 q 515 619 574 558 q 357 679 457 679 q 245 657 304 679 q 125 593 186 635 l 99 640 q 363 735 238 735 q 568 659 493 735 q 643 450 643 583 l 643 97 q 674 63 643 63 l 674 0 q 659 -2 667 -1 q 646 -3 651 -3 q 601 16 618 -3 q 582 61 585 35 l 582 121 q 454 21 532 56 q 286 -14 376 -14 m 300 42 q 448 72 381 42 q 551 153 515 103 q 574 208 574 182 l 574 336 q 469 365 524 356 q 357 375 415 375 q 258 363 303 375 q 182 331 214 351 q 133 280 150 310 q 115 214 115 250 q 129 146 115 178 q 168 91 143 114 q 227 55 193 68 q 300 42 261 42 m 361 1074 l 313 1096 l 397 1214 l 478 1214 l 361 1074 m 267 928 q 294 990 267 965 q 361 1014 321 1014 q 428 990 401 1014 q 456 928 456 965 q 428 865 456 889 q 361 840 401 840 q 294 865 321 840 q 267 928 267 889 m 361 982 q 322 967 338 982 q 306 928 306 953 q 322 888 306 904 q 361 872 338 872 q 401 888 383 872 q 418 928 418 904 q 401 967 418 953 q 361 982 385 982 z "},"Ǽ":{"ha":1336,"x_min":-37,"x_max":1274,"o":"m 685 1133 l 636 1156 l 721 1274 l 801 1274 l 685 1133 m 603 986 l 1261 986 l 1261 922 l 692 922 l 692 536 l 1186 536 l 1186 471 l 692 471 l 692 64 l 1274 64 l 1274 0 l 622 0 l 622 325 l 251 325 l 42 0 l -37 0 l 603 986 m 618 389 l 618 897 l 285 389 l 618 389 z "},"ǽ":{"ha":1292,"x_min":49,"x_max":1249,"o":"m 610 874 l 561 896 l 646 1014 l 726 1014 l 610 874 m 286 -14 q 193 3 236 -14 q 117 51 150 21 q 67 122 85 81 q 49 210 49 163 q 71 296 49 257 q 133 363 93 335 q 227 408 172 392 q 349 424 282 424 q 447 416 397 424 q 540 396 497 408 q 549 455 543 425 q 567 513 556 485 q 497 635 551 590 q 357 679 442 679 q 245 657 304 679 q 125 593 186 635 l 97 640 q 363 735 238 735 q 517 694 454 735 q 611 581 581 654 q 729 692 656 650 q 892 735 803 735 q 1033 706 968 735 q 1147 625 1099 676 q 1222 506 1194 574 q 1249 361 1249 438 q 1248 347 1249 357 q 1247 333 1247 336 l 607 333 q 636 217 611 271 q 701 125 661 164 q 792 64 740 86 q 900 42 843 42 q 974 52 938 42 q 1042 81 1011 63 q 1098 124 1074 99 q 1136 181 1122 150 l 1197 164 q 1151 92 1181 125 q 1081 36 1121 60 q 994 -1 1042 13 q 897 -14 947 -14 q 728 31 804 -14 q 603 149 651 75 q 544 75 581 106 q 465 24 508 44 q 376 -5 422 4 q 286 -14 329 -14 m 300 42 q 449 72 381 42 q 551 153 517 101 q 574 201 572 179 q 550 272 558 233 q 540 347 542 311 q 357 375 453 375 q 182 331 249 375 q 115 214 115 286 q 129 146 115 178 q 168 91 143 114 q 227 55 193 68 q 300 42 261 42 m 1181 385 q 1153 503 1176 449 q 1090 596 1129 557 q 1001 656 1051 635 q 892 678 950 678 q 783 656 833 678 q 694 594 732 633 q 633 502 656 556 q 607 385 610 449 l 1181 385 z "},"Ǿ":{"ha":1046,"x_min":61,"x_max":985,"o":"m 888 986 l 815 878 q 940 702 896 804 q 985 493 985 600 q 949 303 985 393 q 852 144 914 213 q 706 34 790 75 q 522 -7 621 -7 q 393 13 454 -7 q 282 67 332 32 l 239 0 l 160 0 l 229 107 q 106 281 150 179 q 61 493 61 382 q 97 682 61 592 q 194 842 132 772 q 340 952 256 911 q 524 993 425 993 q 651 974 592 993 q 763 919 711 954 l 807 986 l 888 986 m 132 493 q 167 312 132 397 q 267 164 203 226 l 726 864 q 631 911 682 894 q 524 928 581 928 q 363 890 435 928 q 239 791 290 853 q 160 651 188 729 q 132 493 132 574 m 913 493 q 876 673 913 588 q 778 821 840 758 l 318 121 q 414 75 363 92 q 524 58 465 58 q 684 96 613 58 q 806 195 756 133 q 885 335 857 257 q 913 493 913 413 m 522 1133 l 474 1156 l 558 1274 l 639 1274 l 522 1133 z "},"ǿ":{"ha":822,"x_min":58,"x_max":764,"o":"m 144 -1 l 192 65 q 94 194 129 118 q 58 360 58 271 q 85 504 58 436 q 160 624 113 572 q 272 705 207 675 q 411 735 336 735 q 507 720 461 735 q 593 681 553 706 l 624 724 l 679 724 l 629 654 q 728 525 692 601 q 764 360 764 449 q 737 217 764 285 q 663 97 710 149 q 551 16 615 46 q 411 -14 486 -14 q 313 0 358 -14 q 228 39 268 14 l 197 -1 l 144 -1 m 128 357 q 156 222 128 283 q 231 118 183 161 l 557 626 q 488 660 525 649 q 411 672 451 672 q 301 647 353 672 q 212 579 250 622 q 151 478 174 536 q 128 357 128 421 m 410 49 q 519 73 468 49 q 610 140 571 97 q 671 240 649 183 q 693 361 693 296 q 665 494 693 432 q 590 599 638 556 l 263 93 q 410 49 328 49 m 410 874 l 361 896 l 446 1014 l 526 1014 l 410 874 z "},"Ȁ":{"ha":938,"x_min":19,"x_max":917,"o":"m 439 986 l 500 986 l 917 0 l 842 0 l 704 325 l 233 325 l 96 0 l 19 0 l 439 986 m 685 383 l 469 900 l 250 383 l 685 383 m 422 1275 l 494 1275 l 578 1157 l 538 1135 l 422 1275 m 261 1275 l 335 1275 l 417 1157 l 376 1135 l 261 1275 z "},"̏":{"ha":439,"x_min":58,"x_max":375,"o":"m 219 1014 l 292 1014 l 375 896 l 335 874 l 219 1014 m 58 1014 l 132 1014 l 214 896 l 174 874 l 58 1014 z "},"ȁ":{"ha":746,"x_min":49,"x_max":674,"o":"m 286 -14 q 193 3 236 -14 q 117 51 150 21 q 67 122 85 81 q 49 210 49 163 q 71 296 49 257 q 133 363 93 335 q 228 408 172 392 q 350 424 283 424 q 467 413 408 424 q 574 385 526 403 l 574 456 q 515 619 574 558 q 357 679 457 679 q 245 657 304 679 q 125 593 186 635 l 99 640 q 363 735 238 735 q 568 659 493 735 q 643 450 643 583 l 643 97 q 674 63 643 63 l 674 0 q 659 -2 667 -1 q 646 -3 651 -3 q 601 16 618 -3 q 582 61 585 35 l 582 121 q 454 21 532 56 q 286 -14 376 -14 m 300 42 q 448 72 381 42 q 551 153 515 103 q 574 208 574 182 l 574 336 q 469 365 524 356 q 357 375 415 375 q 258 363 303 375 q 182 331 214 351 q 133 280 150 310 q 115 214 115 250 q 129 146 115 178 q 168 91 143 114 q 227 55 193 68 q 300 42 261 42 m 333 1014 l 406 1014 l 489 896 l 449 874 l 333 1014 m 172 1014 l 246 1014 l 328 896 l 288 874 l 172 1014 z "},"Ȃ":{"ha":938,"x_min":19,"x_max":917,"o":"m 439 986 l 500 986 l 917 0 l 842 0 l 704 325 l 233 325 l 96 0 l 19 0 l 439 986 m 685 383 l 469 900 l 250 383 l 685 383 m 469 1235 q 415 1208 439 1235 q 392 1146 392 1181 l 346 1146 q 356 1196 346 1172 q 382 1237 365 1219 q 422 1264 399 1254 q 469 1274 444 1274 q 517 1264 494 1274 q 556 1237 539 1254 q 583 1196 574 1219 q 593 1146 593 1172 l 547 1146 q 520 1209 543 1183 q 469 1235 497 1235 z "},"̑":{"ha":374,"x_min":64,"x_max":311,"o":"m 188 975 q 133 948 157 975 q 110 886 110 921 l 64 886 q 74 936 64 913 q 100 977 83 960 q 140 1004 117 994 q 188 1014 163 1014 q 235 1004 213 1014 q 274 977 257 994 q 301 936 292 960 q 311 886 311 913 l 265 886 q 238 949 261 924 q 188 975 215 975 z "},"ȃ":{"ha":746,"x_min":49,"x_max":674,"o":"m 286 -14 q 193 3 236 -14 q 117 51 150 21 q 67 122 85 81 q 49 210 49 163 q 71 296 49 257 q 133 363 93 335 q 228 408 172 392 q 350 424 283 424 q 467 413 408 424 q 574 385 526 403 l 574 456 q 515 619 574 558 q 357 679 457 679 q 245 657 304 679 q 125 593 186 635 l 99 640 q 363 735 238 735 q 568 659 493 735 q 643 450 643 583 l 643 97 q 674 63 643 63 l 674 0 q 659 -2 667 -1 q 646 -3 651 -3 q 601 16 618 -3 q 582 61 585 35 l 582 121 q 454 21 532 56 q 286 -14 376 -14 m 300 42 q 448 72 381 42 q 551 153 515 103 q 574 208 574 182 l 574 336 q 469 365 524 356 q 357 375 415 375 q 258 363 303 375 q 182 331 214 351 q 133 280 150 310 q 115 214 115 250 q 129 146 115 178 q 168 91 143 114 q 227 55 193 68 q 300 42 261 42 m 365 975 q 311 948 335 975 q 288 886 288 921 l 242 886 q 251 936 242 913 q 278 977 261 960 q 317 1004 294 994 q 365 1014 340 1014 q 413 1004 390 1014 q 452 977 435 994 q 479 936 469 960 q 489 886 489 913 l 443 886 q 416 949 439 924 q 365 975 393 975 z "},"Ȅ":{"ha":850,"x_min":129,"x_max":786,"o":"m 424 1275 l 496 1275 l 579 1157 l 539 1135 l 424 1275 m 263 1275 l 336 1275 l 418 1157 l 378 1135 l 263 1275 m 786 64 l 786 0 l 129 0 l 129 986 l 774 986 l 774 922 l 200 922 l 200 535 l 701 535 l 701 474 l 200 474 l 200 64 l 786 64 z "},"ȅ":{"ha":810,"x_min":58,"x_max":765,"o":"m 372 1014 l 444 1014 l 528 896 l 488 874 l 372 1014 m 211 1014 l 285 1014 l 367 896 l 326 874 l 211 1014 m 415 -14 q 274 16 339 -14 q 160 98 208 46 q 85 218 113 150 q 58 364 58 286 q 85 508 58 440 q 160 626 113 575 q 272 706 207 676 q 411 735 336 735 q 553 705 488 735 q 665 624 618 675 q 739 506 713 574 q 765 364 765 439 q 765 347 765 357 q 764 333 765 336 l 131 333 q 160 217 135 271 q 223 125 185 164 q 311 64 261 86 q 418 42 361 42 q 492 52 456 42 q 559 81 528 63 q 615 124 590 99 q 653 181 639 150 l 714 164 q 669 92 699 125 q 599 36 639 60 q 513 -1 560 13 q 415 -14 465 -14 m 699 389 q 670 506 694 453 q 608 597 646 558 q 519 656 569 635 q 413 678 469 678 q 306 656 356 678 q 217 597 256 635 q 156 505 179 558 q 129 389 133 451 l 699 389 z "},"Ȇ":{"ha":850,"x_min":129,"x_max":786,"o":"m 460 1235 q 406 1208 429 1235 q 382 1146 382 1181 l 336 1146 q 346 1196 336 1172 q 372 1237 356 1219 q 412 1264 389 1254 q 460 1274 435 1274 q 507 1264 485 1274 q 547 1237 529 1254 q 574 1196 564 1219 q 583 1146 583 1172 l 538 1146 q 510 1209 533 1183 q 460 1235 488 1235 m 786 64 l 786 0 l 129 0 l 129 986 l 774 986 l 774 922 l 200 922 l 200 535 l 701 535 l 701 474 l 200 474 l 200 64 l 786 64 z "},"ȇ":{"ha":810,"x_min":58,"x_max":765,"o":"m 411 975 q 357 948 381 975 q 333 886 333 921 l 288 886 q 297 936 288 913 q 324 977 307 960 q 363 1004 340 994 q 411 1014 386 1014 q 458 1004 436 1014 q 498 977 481 994 q 525 936 515 960 q 535 886 535 913 l 489 886 q 462 949 485 924 q 411 975 439 975 m 415 -14 q 274 16 339 -14 q 160 98 208 46 q 85 218 113 150 q 58 364 58 286 q 85 508 58 440 q 160 626 113 575 q 272 706 207 676 q 411 735 336 735 q 553 705 488 735 q 665 624 618 675 q 739 506 713 574 q 765 364 765 439 q 765 347 765 357 q 764 333 765 336 l 131 333 q 160 217 135 271 q 223 125 185 164 q 311 64 261 86 q 418 42 361 42 q 492 52 456 42 q 559 81 528 63 q 615 124 590 99 q 653 181 639 150 l 714 164 q 669 92 699 125 q 599 36 639 60 q 513 -1 560 13 q 415 -14 465 -14 m 699 389 q 670 506 694 453 q 608 597 646 558 q 519 656 569 635 q 413 678 469 678 q 306 656 356 678 q 217 597 256 635 q 156 505 179 558 q 129 389 133 451 l 699 389 z "},"Ȉ":{"ha":329,"x_min":-29,"x_max":288,"o":"m 129 0 l 129 986 l 200 986 l 200 0 l 129 0 m 132 1275 l 204 1275 l 288 1157 l 247 1135 l 132 1275 m -29 1275 l 44 1275 l 126 1157 l 86 1135 l -29 1275 z "},"ȉ":{"ha":288,"x_min":-49,"x_max":268,"o":"m 113 1014 l 185 1014 l 268 896 l 228 874 l 113 1014 m -49 1014 l 25 1014 l 107 896 l 67 874 l -49 1014 m 108 0 l 108 722 l 178 722 l 178 0 l 108 0 z "},"Ȋ":{"ha":329,"x_min":39,"x_max":286,"o":"m 129 0 l 129 986 l 200 986 l 200 0 l 129 0 m 163 1235 q 108 1208 132 1235 q 85 1146 85 1181 l 39 1146 q 49 1196 39 1172 q 75 1237 58 1219 q 115 1264 92 1254 q 163 1274 138 1274 q 210 1264 188 1274 q 249 1237 232 1254 q 276 1196 267 1219 q 286 1146 286 1172 l 240 1146 q 213 1209 236 1183 q 163 1235 190 1235 z "},"ȋ":{"ha":288,"x_min":21,"x_max":268,"o":"m 144 975 q 90 948 114 975 q 67 886 67 921 l 21 886 q 31 936 21 913 q 57 977 40 960 q 97 1004 74 994 q 144 1014 119 1014 q 192 1004 169 1014 q 231 977 214 994 q 258 936 249 960 q 268 886 268 913 l 222 886 q 195 949 218 924 q 144 975 172 975 m 108 0 l 108 722 l 178 722 l 178 0 l 108 0 z "},"Ȍ":{"ha":1046,"x_min":61,"x_max":985,"o":"m 483 1275 l 556 1275 l 639 1157 l 599 1135 l 483 1275 m 322 1275 l 396 1275 l 478 1157 l 438 1135 l 322 1275 m 522 -7 q 335 36 419 -7 q 189 149 250 79 q 94 308 128 218 q 61 493 61 399 q 97 682 61 592 q 194 842 132 772 q 340 952 256 911 q 524 993 425 993 q 712 949 626 993 q 858 835 797 906 q 951 674 918 764 q 985 493 985 585 q 949 303 985 393 q 852 144 914 213 q 706 34 790 75 q 522 -7 621 -7 m 132 493 q 160 330 132 408 q 241 191 189 251 q 365 94 293 131 q 524 58 438 58 q 684 96 613 58 q 806 195 756 133 q 885 335 857 257 q 913 493 913 413 q 883 656 913 578 q 802 795 854 735 q 679 892 750 856 q 524 928 608 928 q 363 890 435 928 q 239 791 290 853 q 160 651 188 729 q 132 493 132 574 z "},"ȍ":{"ha":822,"x_min":58,"x_max":764,"o":"m 375 1014 l 447 1014 l 531 896 l 490 874 l 375 1014 m 214 1014 l 288 1014 l 369 896 l 329 874 l 214 1014 m 411 -14 q 270 16 335 -14 q 158 97 206 46 q 85 217 111 149 q 58 360 58 285 q 85 504 58 436 q 160 624 113 572 q 272 705 207 675 q 411 735 336 735 q 550 705 486 735 q 662 624 614 675 q 737 504 710 572 q 764 360 764 436 q 737 217 764 285 q 663 97 710 149 q 551 16 615 46 q 411 -14 486 -14 m 128 357 q 150 237 128 293 q 210 139 172 181 q 300 73 249 97 q 410 49 351 49 q 519 73 468 49 q 610 140 571 97 q 671 240 649 183 q 693 361 693 296 q 671 481 693 425 q 610 580 649 538 q 520 647 571 622 q 411 672 469 672 q 301 647 353 672 q 212 579 250 622 q 151 478 174 536 q 128 357 128 421 z "},"Ȏ":{"ha":1046,"x_min":61,"x_max":985,"o":"m 522 1235 q 468 1208 492 1235 q 444 1146 444 1181 l 399 1146 q 408 1196 399 1172 q 435 1237 418 1219 q 474 1264 451 1254 q 522 1274 497 1274 q 569 1264 547 1274 q 609 1237 592 1254 q 636 1196 626 1219 q 646 1146 646 1172 l 600 1146 q 573 1209 596 1183 q 522 1235 550 1235 m 522 -7 q 335 36 419 -7 q 189 149 250 79 q 94 308 128 218 q 61 493 61 399 q 97 682 61 592 q 194 842 132 772 q 340 952 256 911 q 524 993 425 993 q 712 949 626 993 q 858 835 797 906 q 951 674 918 764 q 985 493 985 585 q 949 303 985 393 q 852 144 914 213 q 706 34 790 75 q 522 -7 621 -7 m 132 493 q 160 330 132 408 q 241 191 189 251 q 365 94 293 131 q 524 58 438 58 q 684 96 613 58 q 806 195 756 133 q 885 335 857 257 q 913 493 913 413 q 883 656 913 578 q 802 795 854 735 q 679 892 750 856 q 524 928 608 928 q 363 890 435 928 q 239 791 290 853 q 160 651 188 729 q 132 493 132 574 z "},"ȏ":{"ha":822,"x_min":58,"x_max":764,"o":"m 408 975 q 354 948 378 975 q 331 886 331 921 l 285 886 q 294 936 285 913 q 321 977 304 960 q 360 1004 338 994 q 408 1014 383 1014 q 456 1004 433 1014 q 495 977 478 994 q 522 936 513 960 q 532 886 532 913 l 486 886 q 459 949 482 924 q 408 975 436 975 m 411 -14 q 270 16 335 -14 q 158 97 206 46 q 85 217 111 149 q 58 360 58 285 q 85 504 58 436 q 160 624 113 572 q 272 705 207 675 q 411 735 336 735 q 550 705 486 735 q 662 624 614 675 q 737 504 710 572 q 764 360 764 436 q 737 217 764 285 q 663 97 710 149 q 551 16 615 46 q 411 -14 486 -14 m 128 357 q 150 237 128 293 q 210 139 172 181 q 300 73 249 97 q 410 49 351 49 q 519 73 468 49 q 610 140 571 97 q 671 240 649 183 q 693 361 693 296 q 671 481 693 425 q 610 580 649 538 q 520 647 571 622 q 411 672 469 672 q 301 647 353 672 q 212 579 250 622 q 151 478 174 536 q 128 357 128 421 z "},"Ȑ":{"ha":901,"x_min":129,"x_max":840,"o":"m 411 1275 l 483 1275 l 567 1157 l 526 1135 l 411 1275 m 250 1275 l 324 1275 l 406 1157 l 365 1135 l 250 1275 m 129 0 l 129 986 l 539 986 q 654 960 601 986 q 745 890 707 933 q 805 791 783 846 q 826 681 826 736 q 810 576 826 626 q 763 485 793 525 q 689 418 732 444 q 594 383 646 392 l 840 0 l 758 0 l 519 372 l 200 372 l 200 0 l 129 0 m 200 438 l 546 438 q 632 458 593 438 q 699 513 671 479 q 741 591 726 547 q 756 681 756 635 q 738 772 756 728 q 691 849 721 815 q 622 902 661 882 q 536 922 582 922 l 200 922 l 200 438 z "},"ȑ":{"ha":474,"x_min":79,"x_max":450,"o":"m 240 1014 l 313 1014 l 396 896 l 356 874 l 240 1014 m 79 1014 l 153 1014 l 235 896 l 194 874 l 79 1014 m 450 660 q 280 602 353 657 q 178 451 207 547 l 178 0 l 108 0 l 108 722 l 175 722 l 175 544 q 274 669 213 621 q 407 724 336 717 q 432 725 421 725 q 450 725 443 725 l 450 660 z "},"Ȓ":{"ha":901,"x_min":129,"x_max":840,"o":"m 447 1235 q 393 1208 417 1235 q 369 1146 369 1181 l 324 1146 q 333 1196 324 1172 q 360 1237 343 1219 q 399 1264 376 1254 q 447 1274 422 1274 q 494 1264 472 1274 q 534 1237 517 1254 q 561 1196 551 1219 q 571 1146 571 1172 l 525 1146 q 498 1209 521 1183 q 447 1235 475 1235 m 129 0 l 129 986 l 539 986 q 654 960 601 986 q 745 890 707 933 q 805 791 783 846 q 826 681 826 736 q 810 576 826 626 q 763 485 793 525 q 689 418 732 444 q 594 383 646 392 l 840 0 l 758 0 l 519 372 l 200 372 l 200 0 l 129 0 m 200 438 l 546 438 q 632 458 593 438 q 699 513 671 479 q 741 591 726 547 q 756 681 756 635 q 738 772 756 728 q 691 849 721 815 q 622 902 661 882 q 536 922 582 922 l 200 922 l 200 438 z "},"ȓ":{"ha":474,"x_min":108,"x_max":450,"o":"m 272 975 q 218 948 242 975 q 194 886 194 921 l 149 886 q 158 936 149 913 q 185 977 168 960 q 224 1004 201 994 q 272 1014 247 1014 q 319 1004 297 1014 q 359 977 342 994 q 386 936 376 960 q 396 886 396 913 l 350 886 q 323 949 346 924 q 272 975 300 975 m 450 660 q 280 602 353 657 q 178 451 207 547 l 178 0 l 108 0 l 108 722 l 175 722 l 175 544 q 274 669 213 621 q 407 724 336 717 q 432 725 421 725 q 450 725 443 725 l 450 660 z "},"Ȕ":{"ha":1050,"x_min":114,"x_max":936,"o":"m 493 1275 l 565 1275 l 649 1157 l 608 1135 l 493 1275 m 332 1275 l 406 1275 l 488 1157 l 447 1135 l 332 1275 m 525 58 q 691 96 625 58 q 795 194 757 133 q 849 333 833 256 q 865 490 865 411 l 865 986 l 936 986 l 936 490 q 915 301 936 392 q 844 142 893 211 q 718 33 796 74 q 526 -7 640 -7 q 329 35 408 -7 q 202 148 250 78 q 134 307 154 218 q 114 490 114 396 l 114 986 l 185 986 l 185 490 q 201 331 185 408 q 256 192 217 253 q 361 95 296 132 q 525 58 426 58 z "},"ȕ":{"ha":815,"x_min":101,"x_max":732,"o":"m 361 1014 l 433 1014 l 517 896 l 476 874 l 361 1014 m 200 1014 l 274 1014 l 356 896 l 315 874 l 200 1014 m 332 -14 q 101 306 101 -14 l 101 722 l 171 722 l 171 315 q 353 49 171 49 q 442 65 399 49 q 522 109 485 81 q 588 178 560 138 q 633 267 617 218 l 633 722 l 703 722 l 703 97 q 732 63 703 63 l 732 0 q 719 -1 725 -1 q 711 -1 714 -1 q 662 16 683 -1 q 640 63 640 33 l 640 171 q 510 35 593 83 q 332 -14 428 -14 z "},"Ȗ":{"ha":1050,"x_min":114,"x_max":936,"o":"m 525 1235 q 471 1208 494 1235 q 447 1146 447 1181 l 401 1146 q 411 1196 401 1172 q 438 1237 421 1219 q 477 1264 454 1254 q 525 1274 500 1274 q 572 1264 550 1274 q 612 1237 594 1254 q 639 1196 629 1219 q 649 1146 649 1172 l 603 1146 q 576 1209 599 1183 q 525 1235 553 1235 m 525 58 q 691 96 625 58 q 795 194 757 133 q 849 333 833 256 q 865 490 865 411 l 865 986 l 936 986 l 936 490 q 915 301 936 392 q 844 142 893 211 q 718 33 796 74 q 526 -7 640 -7 q 329 35 408 -7 q 202 148 250 78 q 134 307 154 218 q 114 490 114 396 l 114 986 l 185 986 l 185 490 q 201 331 185 408 q 256 192 217 253 q 361 95 296 132 q 525 58 426 58 z "},"ȗ":{"ha":815,"x_min":101,"x_max":732,"o":"m 397 975 q 343 948 367 975 q 319 886 319 921 l 274 886 q 283 936 274 913 q 310 977 293 960 q 349 1004 326 994 q 397 1014 372 1014 q 444 1004 422 1014 q 484 977 467 994 q 511 936 501 960 q 521 886 521 913 l 475 886 q 448 949 471 924 q 397 975 425 975 m 332 -14 q 101 306 101 -14 l 101 722 l 171 722 l 171 315 q 353 49 171 49 q 442 65 399 49 q 522 109 485 81 q 588 178 560 138 q 633 267 617 218 l 633 722 l 703 722 l 703 97 q 732 63 703 63 l 732 0 q 719 -1 725 -1 q 711 -1 714 -1 q 662 16 683 -1 q 640 63 640 33 l 640 171 q 510 35 593 83 q 332 -14 428 -14 z "},"Ș":{"ha":840,"x_min":49,"x_max":792,"o":"m 406 -260 l 426 -165 l 404 -165 l 404 -68 l 472 -68 l 472 -165 l 443 -260 l 406 -260 m 703 822 q 432 929 607 929 q 222 874 288 929 q 156 726 156 819 q 172 648 156 679 q 224 594 189 617 q 314 557 260 572 q 444 525 368 542 q 588 488 524 508 q 698 438 653 468 q 767 363 743 407 q 792 253 792 318 q 766 139 792 188 q 694 58 740 90 q 583 8 647 25 q 439 -8 518 -8 q 49 139 208 -8 l 86 196 q 239 92 149 131 q 442 54 329 54 q 644 101 571 54 q 717 244 717 149 q 697 327 717 293 q 640 386 678 361 q 543 429 601 411 q 407 464 485 447 q 267 499 328 481 q 166 547 207 518 q 104 615 125 575 q 83 717 83 656 q 109 835 83 783 q 181 922 135 886 q 290 975 226 957 q 432 993 354 993 q 603 965 528 993 q 739 878 678 936 l 703 822 z "},"ș":{"ha":668,"x_min":44,"x_max":615,"o":"m 301 -260 l 322 -165 l 300 -165 l 300 -68 l 368 -68 l 368 -165 l 339 -260 l 301 -260 m 338 -14 q 178 14 254 -14 q 44 97 101 42 l 79 144 q 200 67 138 92 q 338 42 263 42 q 490 81 432 42 q 547 192 547 121 q 533 248 547 225 q 489 287 518 271 q 417 315 460 303 q 317 342 374 328 q 210 369 256 356 q 136 403 165 383 q 92 450 107 422 q 78 521 78 478 q 99 615 78 575 q 156 682 119 656 q 241 722 193 708 q 343 735 289 735 q 493 706 428 735 q 594 633 558 678 l 556 596 q 462 658 519 638 q 339 679 404 679 q 263 671 299 679 q 201 644 228 663 q 160 598 175 626 q 144 531 144 569 q 155 479 144 499 q 188 446 165 460 q 247 422 211 432 q 333 399 283 411 q 454 367 401 382 q 542 329 507 351 q 597 276 578 307 q 615 199 615 246 q 540 44 615 101 q 338 -14 464 -14 z "},"Ț":{"ha":842,"x_min":25,"x_max":818,"o":"m 386 -260 l 407 -165 l 385 -165 l 385 -68 l 453 -68 l 453 -165 l 424 -260 l 386 -260 m 818 922 l 457 922 l 457 0 l 386 0 l 386 922 l 25 922 l 25 986 l 818 986 l 818 922 z "},"ț":{"ha":444,"x_min":36,"x_max":431,"o":"m 242 -260 l 263 -165 l 240 -165 l 240 -68 l 308 -68 l 308 -165 l 279 -260 l 242 -260 m 431 35 q 412 24 425 32 q 378 10 399 17 q 333 -3 358 3 q 279 -8 308 -8 q 224 0 250 -8 q 179 25 199 8 q 149 65 160 42 q 138 121 138 89 l 138 665 l 36 665 l 36 722 l 138 722 l 138 969 l 207 969 l 207 722 l 375 722 l 375 665 l 207 665 l 207 138 q 235 77 207 97 q 297 57 263 57 q 372 72 340 57 q 410 90 403 86 l 431 35 z "},"ə":{"ha":810,"x_min":43,"x_max":751,"o":"m 400 -14 q 259 15 324 -14 q 147 96 194 44 q 71 215 99 147 q 43 360 43 282 q 44 373 43 363 q 44 386 44 383 l 679 386 q 650 502 675 449 q 587 594 625 556 q 498 656 549 633 q 392 678 447 678 q 317 667 354 678 q 249 639 281 657 q 194 596 218 621 q 156 540 169 571 l 94 557 q 141 627 111 594 q 210 684 171 660 q 297 722 250 708 q 394 735 344 735 q 536 705 471 735 q 649 623 601 675 q 724 502 697 571 q 751 356 751 433 q 725 212 751 279 q 651 94 699 144 q 540 15 604 44 q 400 -14 475 -14 m 400 42 q 507 64 457 42 q 594 125 557 86 q 654 218 632 164 q 681 335 676 272 l 113 335 q 140 217 117 271 q 203 124 164 163 q 292 63 242 85 q 400 42 343 42 z "},"ˉ":{"ha":542,"x_min":74,"x_max":469,"o":"m 74 933 l 74 985 l 469 985 l 469 933 l 74 933 z "},"Δ":{"ha":899,"x_min":32,"x_max":865,"o":"m 865 57 l 865 0 l 32 0 l 32 57 l 421 986 l 479 986 l 865 57 m 788 64 l 450 900 l 111 64 l 788 64 z "},"Ω":{"ha":1064,"x_min":65,"x_max":999,"o":"m 65 65 l 344 65 q 147 246 218 128 q 75 507 75 364 q 110 691 75 603 q 206 846 144 779 q 350 953 267 913 q 532 993 433 993 q 714 953 631 993 q 858 846 797 913 q 954 691 919 779 q 989 507 989 603 q 970 369 989 436 q 917 246 951 303 q 831 142 882 189 q 718 65 781 96 l 999 65 l 999 0 l 597 0 l 597 65 q 733 128 674 83 q 833 235 793 174 q 895 367 874 296 q 917 507 917 438 q 890 660 917 585 q 814 795 864 736 q 692 890 764 854 q 532 926 621 926 q 372 890 443 926 q 250 795 300 854 q 174 660 200 736 q 147 507 147 585 q 169 367 147 438 q 231 235 190 296 q 331 128 271 174 q 467 65 390 83 l 467 0 l 65 0 l 65 65 z "},"μ":{"ha":824,"x_min":110,"x_max":742,"o":"m 110 722 l 179 722 l 179 315 q 363 49 179 49 q 451 65 408 49 q 532 109 494 81 q 598 178 569 138 q 643 267 626 218 l 643 722 l 713 722 l 713 97 q 742 63 713 63 l 742 0 q 730 -1 735 -1 q 721 -1 725 -1 q 670 17 690 -1 q 650 67 650 36 l 650 171 q 599 97 629 131 q 530 38 568 63 q 449 0 492 14 q 360 -14 406 -14 q 244 20 289 -14 q 176 114 199 54 l 176 -294 l 110 -294 l 110 722 z "},"π":{"ha":793,"x_min":35,"x_max":760,"o":"m 214 658 l 214 0 l 146 0 l 146 658 l 35 658 l 35 722 l 736 722 l 736 658 l 583 658 l 583 143 q 607 79 583 103 q 671 56 631 56 q 707 59 686 56 q 746 69 728 63 l 760 14 q 701 -2 736 4 q 642 -8 667 -8 q 549 27 583 -8 q 515 122 515 63 l 515 658 l 214 658 z "},"Ḍ":{"ha":990,"x_min":129,"x_max":925,"o":"m 438 -210 l 438 -85 l 501 -85 l 501 -210 l 438 -210 m 129 0 l 129 986 l 457 986 q 662 947 574 986 q 808 842 750 908 q 896 685 867 775 q 925 494 925 596 q 892 291 925 382 q 799 135 860 200 q 651 35 738 71 q 457 0 564 0 l 129 0 m 854 494 q 828 666 854 588 q 751 801 801 744 q 626 890 700 858 q 457 922 553 922 l 200 922 l 200 64 l 457 64 q 628 97 554 64 q 753 188 703 129 q 828 324 803 246 q 854 494 854 403 z "},"ḍ":{"ha":854,"x_min":58,"x_max":771,"o":"m 379 -210 l 379 -85 l 443 -85 l 443 -210 l 379 -210 m 406 -14 q 267 17 331 -14 q 156 101 203 49 q 84 220 110 153 q 58 360 58 288 q 83 503 58 435 q 153 622 108 571 q 258 704 197 674 q 390 735 318 735 q 479 721 438 735 q 557 684 521 707 q 622 631 593 661 q 672 565 651 600 l 672 1014 l 742 1014 l 742 97 q 771 63 742 63 l 771 0 q 757 -2 763 -1 q 746 -3 751 -3 q 699 19 718 -3 q 679 64 679 40 l 679 144 q 560 29 635 72 q 406 -14 486 -14 m 418 49 q 499 64 456 49 q 578 106 542 79 q 642 168 615 133 q 672 243 668 203 l 672 481 q 628 555 657 519 q 564 616 600 590 q 486 657 528 642 q 406 672 444 672 q 292 645 343 672 q 204 574 240 618 q 149 474 168 531 q 129 358 129 418 q 151 240 129 296 q 213 142 174 185 q 305 74 253 99 q 418 49 357 49 z "},"Ḥ":{"ha":1021,"x_min":129,"x_max":893,"o":"m 893 986 l 893 0 l 822 0 l 822 472 l 200 472 l 200 0 l 129 0 l 129 986 l 200 986 l 200 536 l 822 536 l 822 986 l 893 986 m 483 -210 l 483 -85 l 547 -85 l 547 -210 l 483 -210 z "},"ḥ":{"ha":800,"x_min":108,"x_max":699,"o":"m 699 0 l 629 0 l 629 403 q 450 671 629 671 q 363 654 406 671 q 284 607 321 638 q 219 535 247 576 q 178 447 192 494 l 178 0 l 108 0 l 108 1014 l 178 1014 l 178 550 q 301 685 222 635 q 469 735 379 735 q 572 713 529 735 q 644 649 615 690 q 685 548 672 607 q 699 415 699 489 l 699 0 m 375 -210 l 375 -85 l 439 -85 l 439 -210 l 375 -210 z "},"Ṅ":{"ha":1074,"x_min":129,"x_max":946,"o":"m 510 1149 l 510 1274 l 574 1274 l 574 1149 l 510 1149 m 200 853 l 200 0 l 129 0 l 129 986 l 183 986 l 875 118 l 875 986 l 946 986 l 946 0 l 881 0 l 200 853 z "},"ṅ":{"ha":800,"x_min":108,"x_max":699,"o":"m 371 889 l 371 1014 l 435 1014 l 435 889 l 371 889 m 699 0 l 629 0 l 629 403 q 590 607 629 543 q 464 671 550 671 q 373 654 418 671 q 289 607 328 638 q 221 535 250 576 q 178 447 192 494 l 178 0 l 108 0 l 108 722 l 174 722 l 174 550 q 228 626 196 592 q 302 684 261 660 q 389 722 343 708 q 483 735 435 735 q 650 652 601 735 q 699 415 699 569 l 699 0 z "},"Ṛ":{"ha":901,"x_min":129,"x_max":840,"o":"m 129 0 l 129 986 l 539 986 q 654 960 601 986 q 745 890 707 933 q 805 791 783 846 q 826 681 826 736 q 810 576 826 626 q 763 485 793 525 q 689 418 732 444 q 594 383 646 392 l 840 0 l 758 0 l 519 372 l 200 372 l 200 0 l 129 0 m 200 438 l 546 438 q 632 458 593 438 q 699 513 671 479 q 741 591 726 547 q 756 681 756 635 q 738 772 756 728 q 691 849 721 815 q 622 902 661 882 q 536 922 582 922 l 200 922 l 200 438 m 421 -210 l 421 -85 l 485 -85 l 485 -210 l 421 -210 z "},"ṛ":{"ha":474,"x_min":108,"x_max":450,"o":"m 450 660 q 280 602 353 657 q 178 451 207 547 l 178 0 l 108 0 l 108 722 l 175 722 l 175 544 q 274 669 213 621 q 407 724 336 717 q 432 725 421 725 q 450 725 443 725 l 450 660 m 111 -210 l 111 -85 l 175 -85 l 175 -210 l 111 -210 z "},"Ṣ":{"ha":840,"x_min":49,"x_max":792,"o":"m 703 822 q 432 929 607 929 q 222 874 288 929 q 156 726 156 819 q 172 648 156 679 q 224 594 189 617 q 314 557 260 572 q 444 525 368 542 q 588 488 524 508 q 698 438 653 468 q 767 363 743 407 q 792 253 792 318 q 766 139 792 188 q 694 58 740 90 q 583 8 647 25 q 439 -8 518 -8 q 49 139 208 -8 l 86 196 q 239 92 149 131 q 442 54 329 54 q 644 101 571 54 q 717 244 717 149 q 697 327 717 293 q 640 386 678 361 q 543 429 601 411 q 407 464 485 447 q 267 499 328 481 q 166 547 207 518 q 104 615 125 575 q 83 717 83 656 q 109 835 83 783 q 181 922 135 886 q 290 975 226 957 q 432 993 354 993 q 603 965 528 993 q 739 878 678 936 l 703 822 m 397 -210 l 397 -85 l 461 -85 l 461 -210 l 397 -210 z "},"ṣ":{"ha":668,"x_min":44,"x_max":615,"o":"m 338 -14 q 178 14 254 -14 q 44 97 101 42 l 79 144 q 200 67 138 92 q 338 42 263 42 q 490 81 432 42 q 547 192 547 121 q 533 248 547 225 q 489 287 518 271 q 417 315 460 303 q 317 342 374 328 q 210 369 256 356 q 136 403 165 383 q 92 450 107 422 q 78 521 78 478 q 99 615 78 575 q 156 682 119 656 q 241 722 193 708 q 343 735 289 735 q 493 706 428 735 q 594 633 558 678 l 556 596 q 462 658 519 638 q 339 679 404 679 q 263 671 299 679 q 201 644 228 663 q 160 598 175 626 q 144 531 144 569 q 155 479 144 499 q 188 446 165 460 q 247 422 211 432 q 333 399 283 411 q 454 367 401 382 q 542 329 507 351 q 597 276 578 307 q 615 199 615 246 q 540 44 615 101 q 338 -14 464 -14 m 300 -210 l 300 -85 l 364 -85 l 364 -210 l 300 -210 z "},"Ṭ":{"ha":842,"x_min":25,"x_max":818,"o":"m 388 -210 l 388 -85 l 451 -85 l 451 -210 l 388 -210 m 818 922 l 457 922 l 457 0 l 386 0 l 386 922 l 25 922 l 25 986 l 818 986 l 818 922 z "},"ṭ":{"ha":444,"x_min":36,"x_max":431,"o":"m 238 -210 l 238 -85 l 301 -85 l 301 -210 l 238 -210 m 431 35 q 412 24 425 32 q 378 10 399 17 q 333 -3 358 3 q 279 -8 308 -8 q 224 0 250 -8 q 179 25 199 8 q 149 65 160 42 q 138 121 138 89 l 138 665 l 36 665 l 36 722 l 138 722 l 138 969 l 207 969 l 207 722 l 375 722 l 375 665 l 207 665 l 207 138 q 235 77 207 97 q 297 57 263 57 q 372 72 340 57 q 410 90 403 86 l 431 35 z "},"Ẁ":{"ha":1449,"x_min":21,"x_max":1429,"o":"m 507 979 l 576 979 l 724 621 l 871 979 l 940 979 l 767 564 l 974 83 l 1351 986 l 1429 986 l 1007 0 l 942 0 l 725 507 l 507 0 l 442 0 l 21 986 l 97 986 l 476 83 l 681 564 l 507 979 m 607 1275 l 686 1275 l 772 1157 l 725 1135 l 607 1275 z "},"ẁ":{"ha":1119,"x_min":26,"x_max":1093,"o":"m 1024 722 l 1093 722 l 781 0 l 722 0 l 560 382 l 397 0 l 339 0 l 26 722 l 94 722 l 371 76 l 522 432 l 400 721 l 460 721 l 560 482 l 658 721 l 719 721 l 597 432 l 749 76 l 1024 722 m 443 1014 l 522 1014 l 608 896 l 561 874 l 443 1014 z "},"Ẃ":{"ha":1449,"x_min":21,"x_max":1429,"o":"m 722 1133 l 674 1156 l 758 1274 l 839 1274 l 722 1133 m 507 979 l 576 979 l 724 621 l 871 979 l 940 979 l 767 564 l 974 83 l 1351 986 l 1429 986 l 1007 0 l 942 0 l 725 507 l 507 0 l 442 0 l 21 986 l 97 986 l 476 83 l 681 564 l 507 979 z "},"ẃ":{"ha":1119,"x_min":26,"x_max":1093,"o":"m 558 874 l 510 896 l 594 1014 l 675 1014 l 558 874 m 1024 722 l 1093 722 l 781 0 l 722 0 l 560 382 l 397 0 l 339 0 l 26 722 l 94 722 l 371 76 l 522 432 l 400 721 l 460 721 l 560 482 l 658 721 l 719 721 l 597 432 l 749 76 l 1024 722 z "},"Ẅ":{"ha":1449,"x_min":21,"x_max":1429,"o":"m 599 1150 l 599 1272 l 660 1272 l 660 1150 l 599 1150 m 788 1150 l 788 1272 l 849 1272 l 849 1150 l 788 1150 m 507 979 l 576 979 l 724 621 l 871 979 l 940 979 l 767 564 l 974 83 l 1351 986 l 1429 986 l 1007 0 l 942 0 l 725 507 l 507 0 l 442 0 l 21 986 l 97 986 l 476 83 l 681 564 l 507 979 z "},"ẅ":{"ha":1119,"x_min":26,"x_max":1093,"o":"m 435 889 l 435 1011 l 496 1011 l 496 889 l 435 889 m 624 889 l 624 1011 l 685 1011 l 685 889 l 624 889 m 1024 722 l 1093 722 l 781 0 l 722 0 l 560 382 l 397 0 l 339 0 l 26 722 l 94 722 l 371 76 l 522 432 l 400 721 l 460 721 l 560 482 l 658 721 l 719 721 l 597 432 l 749 76 l 1024 722 z "},"Ẓ":{"ha":871,"x_min":42,"x_max":826,"o":"m 42 58 l 743 922 l 51 922 l 51 986 l 826 986 l 826 928 l 131 64 l 824 64 l 824 0 l 42 0 l 42 58 m 414 -210 l 414 -85 l 478 -85 l 478 -210 l 414 -210 z "},"ẓ":{"ha":681,"x_min":44,"x_max":633,"o":"m 44 50 l 556 668 l 53 668 l 53 722 l 633 722 l 633 672 l 124 54 l 631 54 l 631 0 l 44 0 l 44 50 m 308 -210 l 308 -85 l 372 -85 l 372 -210 l 308 -210 z "},"Ẹ":{"ha":850,"x_min":129,"x_max":786,"o":"m 786 64 l 786 0 l 129 0 l 129 986 l 774 986 l 774 922 l 200 922 l 200 535 l 701 535 l 701 474 l 200 474 l 200 64 l 786 64 m 428 -210 l 428 -85 l 492 -85 l 492 -210 l 428 -210 z "},"ẹ":{"ha":810,"x_min":58,"x_max":765,"o":"m 415 -14 q 274 16 339 -14 q 160 98 208 46 q 85 218 113 150 q 58 364 58 286 q 85 508 58 440 q 160 626 113 575 q 272 706 207 676 q 411 735 336 735 q 553 705 488 735 q 665 624 618 675 q 739 506 713 574 q 765 364 765 439 q 765 347 765 357 q 764 333 765 336 l 131 333 q 160 217 135 271 q 223 125 185 164 q 311 64 261 86 q 418 42 361 42 q 492 52 456 42 q 559 81 528 63 q 615 124 590 99 q 653 181 639 150 l 714 164 q 669 92 699 125 q 599 36 639 60 q 513 -1 560 13 q 415 -14 465 -14 m 699 389 q 670 506 694 453 q 608 597 646 558 q 519 656 569 635 q 413 678 469 678 q 306 656 356 678 q 217 597 256 635 q 156 505 179 558 q 129 389 133 451 l 699 389 m 383 -210 l 383 -85 l 447 -85 l 447 -210 l 383 -210 z "},"Ẽ":{"ha":850,"x_min":129,"x_max":786,"o":"m 786 64 l 786 0 l 129 0 l 129 986 l 774 986 l 774 922 l 200 922 l 200 535 l 701 535 l 701 474 l 200 474 l 200 64 l 786 64 m 557 1158 q 503 1167 526 1158 q 460 1185 479 1175 q 422 1205 440 1196 q 382 1214 403 1214 q 344 1204 358 1214 q 324 1183 331 1194 q 314 1160 317 1171 q 311 1147 311 1150 l 264 1147 q 268 1172 264 1153 q 285 1210 272 1190 q 322 1247 299 1231 q 382 1263 344 1263 q 431 1253 410 1263 q 472 1234 453 1244 q 512 1215 492 1224 q 558 1207 532 1207 q 602 1217 586 1207 q 626 1238 618 1226 q 635 1260 633 1250 q 638 1274 638 1271 l 685 1274 q 680 1248 685 1267 q 662 1210 675 1229 q 624 1174 649 1190 q 557 1158 599 1158 z "},"ẽ":{"ha":810,"x_min":58,"x_max":765,"o":"m 415 -14 q 274 16 339 -14 q 160 98 208 46 q 85 218 113 150 q 58 364 58 286 q 85 508 58 440 q 160 626 113 575 q 272 706 207 676 q 411 735 336 735 q 553 705 488 735 q 665 624 618 675 q 739 506 713 574 q 765 364 765 439 q 765 347 765 357 q 764 333 765 336 l 131 333 q 160 217 135 271 q 223 125 185 164 q 311 64 261 86 q 418 42 361 42 q 492 52 456 42 q 559 81 528 63 q 615 124 590 99 q 653 181 639 150 l 714 164 q 669 92 699 125 q 599 36 639 60 q 513 -1 560 13 q 415 -14 465 -14 m 699 389 q 670 506 694 453 q 608 597 646 558 q 519 656 569 635 q 413 678 469 678 q 306 656 356 678 q 217 597 256 635 q 156 505 179 558 q 129 389 133 451 l 699 389 m 494 899 q 440 907 464 899 q 397 926 417 915 q 359 945 378 936 q 319 954 340 954 q 282 944 296 954 q 261 923 268 935 q 251 901 254 911 q 249 888 249 890 l 201 888 q 206 912 201 893 q 223 951 210 931 q 259 987 236 971 q 319 1003 282 1003 q 369 994 347 1003 q 410 974 390 985 q 449 956 429 964 q 496 947 469 947 q 540 957 524 947 q 563 978 556 967 q 573 1001 571 990 q 575 1014 575 1011 l 622 1014 q 617 988 622 1007 q 599 950 613 969 q 561 915 586 931 q 494 899 536 899 z "},"Ị":{"ha":329,"x_min":129,"x_max":200,"o":"m 129 0 l 129 986 l 200 986 l 200 0 l 129 0 m 131 -210 l 131 -85 l 194 -85 l 194 -210 l 131 -210 z "},"ị":{"ha":288,"x_min":108,"x_max":178,"o":"m 108 0 l 108 722 l 178 722 l 178 0 l 108 0 m 108 886 l 108 1014 l 178 1014 l 178 886 l 108 886 m 111 -210 l 111 -85 l 175 -85 l 175 -210 l 111 -210 z "},"Ọ":{"ha":1046,"x_min":61,"x_max":985,"o":"m 490 -210 l 490 -85 l 554 -85 l 554 -210 l 490 -210 m 522 -7 q 335 36 419 -7 q 189 149 250 79 q 94 308 128 218 q 61 493 61 399 q 97 682 61 592 q 194 842 132 772 q 340 952 256 911 q 524 993 425 993 q 712 949 626 993 q 858 835 797 906 q 951 674 918 764 q 985 493 985 585 q 949 303 985 393 q 852 144 914 213 q 706 34 790 75 q 522 -7 621 -7 m 132 493 q 160 330 132 408 q 241 191 189 251 q 365 94 293 131 q 524 58 438 58 q 684 96 613 58 q 806 195 756 133 q 885 335 857 257 q 913 493 913 413 q 883 656 913 578 q 802 795 854 735 q 679 892 750 856 q 524 928 608 928 q 363 890 435 928 q 239 791 290 853 q 160 651 188 729 q 132 493 132 574 z "},"ọ":{"ha":822,"x_min":58,"x_max":764,"o":"m 375 -210 l 375 -85 l 439 -85 l 439 -210 l 375 -210 m 411 -14 q 270 16 335 -14 q 158 97 206 46 q 85 217 111 149 q 58 360 58 285 q 85 504 58 436 q 160 624 113 572 q 272 705 207 675 q 411 735 336 735 q 550 705 486 735 q 662 624 614 675 q 737 504 710 572 q 764 360 764 436 q 737 217 764 285 q 663 97 710 149 q 551 16 615 46 q 411 -14 486 -14 m 128 357 q 150 237 128 293 q 210 139 172 181 q 300 73 249 97 q 410 49 351 49 q 519 73 468 49 q 610 140 571 97 q 671 240 649 183 q 693 361 693 296 q 671 481 693 425 q 610 580 649 538 q 520 647 571 622 q 411 672 469 672 q 301 647 353 672 q 212 579 250 622 q 151 478 174 536 q 128 357 128 421 z "}}}
